<?xml version="1.0" encoding="UTF-8"?>
<!-- Generator: visioncortex VTracer 0.6.3 -->
<svg version="1.1" xmlns="http://www.w3.org/2000/svg" width="1280" height="1280">
<path d="M0 0 C1.02 -0.01 1.02 -0.01 2.05 -0.01 C4.33 -0.03 6.61 -0.03 8.89 -0.04 C10.52 -0.05 12.14 -0.06 13.77 -0.06 C19.13 -0.09 24.49 -0.11 29.85 -0.12 C31.69 -0.12 33.54 -0.13 35.38 -0.14 C43.04 -0.16 50.71 -0.18 58.37 -0.19 C69.37 -0.2 80.36 -0.24 91.36 -0.29 C99.08 -0.33 106.8 -0.35 114.53 -0.36 C119.15 -0.36 123.76 -0.37 128.38 -0.41 C132.72 -0.44 137.06 -0.44 141.41 -0.43 C143 -0.43 144.6 -0.44 146.19 -0.46 C148.37 -0.48 150.54 -0.47 152.71 -0.45 C153.93 -0.46 155.15 -0.46 156.41 -0.46 C159.48 0.15 159.48 0.15 161.87 2.55 C163.57 5.3 163.98 6.99 164.48 10.15 C165.62 13.87 166.92 17.54 168.21 21.21 C169.86 25.99 171.21 30.82 172.48 35.72 C173.67 40.26 174.96 44.66 176.71 49.01 C178.2 53.13 179.26 57.39 180.43 61.61 C181.39 64.85 182.51 67.95 183.73 71.09 C185.35 75.37 185.89 78.61 185.48 83.15 C186.14 83.15 186.8 83.15 187.48 83.15 C187.89 84.61 187.89 84.61 188.3 86.09 C189.78 91.28 191.51 96.39 193.31 101.48 C194.91 106.06 195.82 110.33 196.48 115.15 C196.79 115.77 197.1 116.38 197.42 117.01 C199.08 120.35 199.79 123.9 200.7 127.5 C201.42 129.93 202.35 131.9 203.48 134.15 C204 135.85 204.48 137.56 204.92 139.28 C207.33 148.37 210.08 157.32 213.2 166.19 C214.86 170.98 216.21 175.81 217.48 180.72 C218.67 185.26 219.96 189.65 221.7 194.01 C223.62 199.28 224.97 204.76 226.48 210.15 C227.04 212.09 227.6 214.03 228.17 215.97 C228.4 216.76 228.63 217.55 228.87 218.36 C229.34 220.15 229.34 220.15 230.48 221.15 C230.53 223.49 230.53 225.82 230.48 228.15 C231.14 228.15 231.8 228.15 232.48 228.15 C232.75 229.12 233.02 230.09 233.3 231.09 C234.06 233.8 234.93 236.44 235.86 239.09 C237.59 244.17 238.82 249.35 240.04 254.57 C240.87 258.02 241.85 261.01 243.48 264.15 C244.3 266.92 245 269.7 245.7 272.5 C246.42 274.92 247.32 276.92 248.48 279.15 C250.13 283.99 250.69 288.06 250.48 293.15 C251.47 293.48 252.46 293.81 253.48 294.15 C253.44 294.92 253.4 295.68 253.36 296.47 C253.26 299.38 253.26 299.38 255.48 302.15 C256.02 304.01 256.49 305.89 256.92 307.78 C257.99 312.26 259.22 316.59 260.73 320.94 C261.55 323.35 262.27 325.78 262.98 328.22 C263.86 331.17 264.79 334.04 265.92 336.9 C268.22 342.84 269.77 349.03 271.48 355.15 C272.04 357.09 272.6 359.03 273.17 360.97 C273.4 361.76 273.63 362.55 273.87 363.36 C274.34 365.15 274.34 365.15 275.48 366.15 C275.63 367.27 275.77 368.38 275.92 369.53 C276.24 373.24 276.24 373.24 278.48 376.15 C278.86 377.48 279.19 378.81 279.48 380.15 C281.12 385.84 282.91 391.47 284.8 397.07 C285.79 400.07 286.62 403.12 287.48 406.15 C287.98 407.66 288.48 409.16 288.98 410.65 C290.27 414.46 291.38 418.29 292.48 422.15 C293.03 423.65 293.57 425.15 294.11 426.65 C295.48 430.68 295.75 433.92 295.48 438.15 C296.14 438.15 296.8 438.15 297.48 438.15 C298.48 441.63 299.47 445.1 300.45 448.58 C302.1 454.44 303.79 460.25 305.77 466.01 C306.57 468.4 307.28 470.8 307.98 473.22 C308.86 476.17 309.79 479.04 310.92 481.9 C312.79 486.73 314.11 491.71 315.51 496.69 C317.21 502.74 319 508.75 320.98 514.72 C321.23 515.45 321.47 516.19 321.72 516.94 C322.23 518.43 322.77 519.9 323.34 521.36 C325.36 526.78 326.75 532.4 325.48 538.15 C323.4 540.76 322.21 542.01 318.9 542.65 C317.91 542.65 316.92 542.65 315.91 542.65 C314.2 542.66 314.2 542.66 312.46 542.67 C311.22 542.66 309.98 542.65 308.7 542.64 C307.39 542.64 306.08 542.65 304.73 542.65 C301.14 542.66 297.54 542.65 293.95 542.63 C290.19 542.61 286.43 542.61 282.67 542.61 C276.35 542.61 270.04 542.59 263.72 542.57 C256.42 542.53 249.12 542.52 241.82 542.52 C234.8 542.53 227.78 542.52 220.75 542.5 C217.76 542.49 214.78 542.49 211.79 542.49 C207.61 542.49 203.44 542.47 199.27 542.44 C198.03 542.45 196.78 542.45 195.5 542.45 C194.37 542.44 193.23 542.43 192.06 542.42 C191.08 542.42 190.09 542.41 189.07 542.41 C186.35 542.14 184.75 541.67 182.48 540.15 C178.66 533.33 175.8 526.02 175.48 518.15 C174.82 518.15 174.16 518.15 173.48 518.15 C173.55 517.04 173.55 517.04 173.61 515.9 C173.48 512.96 172.82 511.73 171.48 509.15 C169.76 504.54 168.45 499.98 167.48 495.15 C167.13 494.47 166.78 493.79 166.42 493.09 C165.48 491.15 165.48 491.15 165.48 487.15 C164.82 486.16 164.16 485.17 163.48 484.15 C163.81 483.82 164.14 483.49 164.48 483.15 C164.2 482.47 163.91 481.79 163.61 481.09 C161.97 476.82 160.48 472.75 160.48 468.15 C159.82 468.15 159.16 468.15 158.48 468.15 C158.53 467.41 158.57 466.67 158.61 465.9 C158.48 462.99 157.83 461.69 156.48 459.15 C156.32 458.27 156.15 457.38 155.98 456.47 C155.82 455.7 155.65 454.94 155.48 454.15 C154.82 453.82 154.16 453.49 153.48 453.15 C153.81 452.16 154.14 451.17 154.48 450.15 C153.73 447.96 153.73 447.96 152.55 445.72 C150.87 442.36 150.48 441.08 150.48 437.15 C149.82 436.16 149.16 435.17 148.48 434.15 C148.81 433.82 149.14 433.49 149.48 433.15 C149.2 432.47 148.91 431.79 148.61 431.09 C146.97 426.82 145.48 422.75 145.48 418.15 C144.82 418.15 144.16 418.15 143.48 418.15 C143.53 417.41 143.57 416.67 143.61 415.9 C143.48 413.05 142.88 411.6 141.48 409.15 C141.48 408.82 141.48 408.49 141.48 408.15 C96.6 407.82 51.72 407.49 5.48 407.15 C4.49 411.11 3.5 415.07 2.48 419.15 C2.15 419.48 1.82 419.81 1.48 420.15 C1.12 421.81 0.79 423.48 0.48 425.15 C-0.4 430.04 -0.4 430.04 -1.52 431.15 C-2.31 434.67 -3 438.2 -3.7 441.74 C-4.39 444.64 -5.21 446.54 -6.52 449.15 C-7.25 451.88 -7.94 454.59 -8.58 457.34 C-10.39 465.02 -10.39 465.02 -11.52 466.15 C-12.01 468.46 -12.46 470.77 -12.89 473.09 C-16.08 489.72 -16.08 489.72 -18.52 492.15 C-18.84 493.67 -19.13 495.19 -19.39 496.72 C-20.02 500.02 -20.76 503.04 -22.02 506.15 C-23.55 509.96 -24.31 513.76 -25.05 517.78 C-25.68 520.97 -26.57 524.04 -27.52 527.15 C-27.72 527.97 -27.92 528.79 -28.13 529.63 C-28.36 530.5 -28.59 531.38 -28.83 532.28 C-29.03 533.09 -29.23 533.89 -29.44 534.72 C-30.91 538.04 -32.38 540.33 -35.52 542.15 C-39.67 542.91 -43.78 542.82 -47.99 542.77 C-49.25 542.77 -50.52 542.78 -51.82 542.79 C-55.28 542.8 -58.74 542.78 -62.21 542.76 C-65.83 542.74 -69.46 542.75 -73.08 542.75 C-79.16 542.75 -85.24 542.73 -91.32 542.7 C-98.36 542.66 -105.4 542.65 -112.43 542.66 C-119.2 542.66 -125.97 542.65 -132.74 542.63 C-135.62 542.63 -138.5 542.62 -141.38 542.62 C-145.4 542.62 -149.42 542.6 -153.43 542.57 C-154.63 542.58 -155.84 542.58 -157.07 542.58 C-158.71 542.57 -158.71 542.57 -160.37 542.55 C-161.8 542.54 -161.8 542.54 -163.25 542.54 C-164.37 542.35 -164.37 542.35 -165.52 542.15 C-166.51 540.67 -166.51 540.67 -167.52 539.15 C-169.57 537.96 -169.57 537.96 -171.52 537.15 C-171.6 533.59 -171.45 530.58 -170.52 527.15 C-170.17 524.82 -169.83 522.49 -169.52 520.15 C-168.86 520.15 -168.2 520.15 -167.52 520.15 C-167.58 518.73 -167.58 518.73 -167.64 517.28 C-167.52 514.15 -167.52 514.15 -165.52 512.15 C-165.17 509.82 -164.84 507.49 -164.52 505.15 C-163.58 503.03 -163.58 503.03 -162.52 501.15 C-160.77 497.33 -159.89 493.53 -159.02 489.44 C-157.1 480.74 -157.1 480.74 -155.52 479.15 C-155.37 478.04 -155.23 476.93 -155.08 475.78 C-154.52 472.15 -154.52 472.15 -152.52 469.15 C-151.8 466.83 -151.14 464.5 -150.52 462.15 C-148.71 455.77 -148.71 455.77 -147.76 452.74 C-146.24 447.86 -145.07 443.23 -144.52 438.15 C-143.86 438.15 -143.2 438.15 -142.52 438.15 C-142.31 437.08 -142.11 436.01 -141.89 434.91 C-141.62 433.51 -141.35 432.11 -141.08 430.72 C-140.94 430.01 -140.81 429.3 -140.67 428.57 C-139.63 423.27 -139.63 423.27 -138.52 422.15 C-138.15 419.83 -137.81 417.49 -137.52 415.15 C-136.86 415.15 -136.2 415.15 -135.52 415.15 C-135.39 413.92 -135.27 412.68 -135.14 411.4 C-134.75 408.23 -134.11 405.95 -132.52 403.15 C-132.16 401.83 -131.83 400.49 -131.52 399.15 C-131.19 398.49 -130.86 397.83 -130.52 397.15 C-130.15 394.82 -129.82 392.49 -129.52 390.15 C-128.86 390.15 -128.2 390.15 -127.52 390.15 C-127.37 389.06 -127.23 387.97 -127.08 386.84 C-126.52 383.15 -126.52 383.15 -125.52 380.15 C-124.51 376.32 -123.59 372.64 -123.02 368.72 C-122.85 367.87 -122.69 367.03 -122.52 366.15 C-121.86 365.82 -121.2 365.49 -120.52 365.15 C-120.16 362.82 -119.83 360.49 -119.52 358.15 C-118.88 356.8 -118.21 355.47 -117.52 354.15 C-116.81 351.83 -116.15 349.5 -115.52 347.15 C-114.85 344.82 -114.18 342.49 -113.52 340.15 C-113.34 339.51 -113.16 338.86 -112.98 338.19 C-111.62 333.26 -111.62 333.26 -110.52 332.15 C-110.37 331.06 -110.23 329.97 -110.08 328.84 C-109.58 325.59 -109.04 323.94 -107.52 321.15 C-105.48 315.58 -104.42 309.92 -103.3 304.1 C-103.04 303.13 -102.78 302.16 -102.52 301.15 C-101.86 300.82 -101.2 300.49 -100.52 300.15 C-100.26 298.16 -100.01 296.17 -99.86 294.16 C-99.52 292.15 -99.52 292.15 -97.52 289.15 C-97.35 286.53 -97.35 286.53 -97.52 284.15 C-96.86 283.82 -96.2 283.49 -95.52 283.15 C-95.31 281.54 -95.11 279.93 -94.93 278.31 C-94.44 275.75 -93.54 273.56 -92.52 271.15 C-90.81 267.12 -90.09 263.51 -89.52 259.15 C-88.52 256.82 -87.52 254.49 -86.52 252.15 C-85.92 249.77 -85.41 247.39 -84.95 244.97 C-84.52 243.15 -84.52 243.15 -83.52 242.15 C-83.15 239.83 -82.81 237.49 -82.52 235.15 C-81.86 235.15 -81.2 235.15 -80.52 235.15 C-80.39 233.92 -80.27 232.68 -80.14 231.4 C-79.75 228.22 -79.07 225.97 -77.52 223.15 C-77.17 221.49 -76.83 219.82 -76.52 218.15 C-76.19 217.82 -75.86 217.49 -75.52 217.15 C-75.29 215.16 -75.07 213.16 -74.89 211.16 C-74.52 209.15 -74.52 209.15 -72.52 206.15 C-70.41 200.5 -68.88 194.68 -68.02 188.72 C-67.85 187.87 -67.69 187.03 -67.52 186.15 C-66.86 185.82 -66.2 185.49 -65.52 185.15 C-65.16 182.82 -64.83 180.49 -64.52 178.15 C-63.88 176.8 -63.21 175.47 -62.52 174.15 C-61.81 171.83 -61.15 169.5 -60.52 167.15 C-59.85 164.82 -59.18 162.49 -58.52 160.15 C-58.34 159.51 -58.16 158.86 -57.98 158.19 C-56.62 153.26 -56.62 153.26 -55.52 152.15 C-55.3 150.51 -55.3 150.51 -55.08 148.84 C-54.58 145.59 -54.04 143.94 -52.52 141.15 C-50.48 135.58 -49.42 129.92 -48.3 124.1 C-48.04 123.13 -47.78 122.16 -47.52 121.15 C-46.86 120.82 -46.2 120.49 -45.52 120.15 C-45.26 118.16 -45.01 116.17 -44.86 114.16 C-44.52 112.15 -44.52 112.15 -42.52 109.15 C-42.35 106.53 -42.35 106.53 -42.52 104.15 C-41.86 103.82 -41.2 103.49 -40.52 103.15 C-40.31 101.54 -40.11 99.93 -39.93 98.31 C-39.44 95.75 -38.54 93.56 -37.52 91.15 C-35.81 87.12 -35.09 83.51 -34.52 79.15 C-33.52 76.82 -32.52 74.49 -31.52 72.15 C-30.92 69.77 -30.41 67.39 -29.95 64.97 C-29.52 63.15 -29.52 63.15 -28.52 62.15 C-28.28 60.81 -28.1 59.45 -27.95 58.09 C-27.74 56.14 -27.74 56.14 -27.52 54.15 C-26.86 54.48 -26.2 54.81 -25.52 55.15 C-25.33 53.3 -25.33 53.3 -25.14 51.4 C-24.75 48.22 -24.07 45.97 -22.52 43.15 C-22.17 41.49 -21.83 39.82 -21.52 38.15 C-21.19 37.82 -20.86 37.49 -20.52 37.15 C-20.29 35.16 -20.07 33.16 -19.89 31.16 C-19.52 29.15 -19.52 29.15 -17.52 26.15 C-15.41 20.5 -13.88 14.68 -13.02 8.72 C-12.85 7.87 -12.69 7.03 -12.52 6.15 C-11.86 5.82 -11.2 5.49 -10.52 5.15 C-10.19 4.49 -9.86 3.83 -9.52 3.15 C-7.51 -0.86 -4.06 0.02 0 0 Z M167.48 26.15 C168.48 28.15 168.48 28.15 168.48 28.15 Z M71.48 133.15 C72.48 135.15 72.48 135.15 72.48 135.15 Z M71.48 136.15 C69.99 139.52 69.48 141.36 69.48 145.15 C68.82 145.15 68.16 145.15 67.48 145.15 C67.29 146.33 67.1 147.52 66.9 148.73 C66.64 150.29 66.37 151.85 66.11 153.4 C65.92 154.57 65.92 154.57 65.73 155.76 C64.71 161.7 64.71 161.7 63.48 164.17 C61.51 168.1 61.29 172.73 60.63 177.04 C60.04 180.68 59.56 183.04 57.48 186.15 C57.07 188.17 57.07 188.17 56.92 190.28 C56.48 194.15 56.48 194.15 55.48 195.15 C55.12 196.81 54.79 198.48 54.48 200.15 C53.6 205.04 53.6 205.04 52.48 206.15 C51.83 209.3 51.24 212.45 50.68 215.61 C50.03 219.04 49.45 221.21 47.48 224.15 C47.12 226.48 46.79 228.82 46.48 231.15 C46.15 231.48 45.82 231.81 45.48 232.15 C45.16 233.67 44.87 235.19 44.61 236.72 C43.98 240.02 43.24 243.04 41.98 246.15 C40.77 249.16 40.06 252.03 39.48 255.22 C38.7 259.53 37.21 263.12 35.48 267.15 C34.92 269.65 34.47 272.16 34.02 274.68 C33.52 276.97 32.86 278.98 31.98 281.15 C29.67 286.95 28.48 292.92 28.48 299.15 C57.85 299.15 87.22 299.15 117.48 299.15 C117.48 292.04 117.27 290.06 114.48 284.15 C113.86 281.53 113.86 281.53 113.48 279.15 C112.8 275.35 111.76 271.81 110.48 268.15 C109.82 268.15 109.16 268.15 108.48 268.15 C108.69 267.41 108.9 266.67 109.11 265.9 C109.55 262.69 109.06 261.9 107.48 259.15 C106.82 257.15 106.15 255.15 105.48 253.15 C105.15 252.82 104.82 252.49 104.48 252.15 C104.81 251.49 105.14 250.83 105.48 250.15 C104.68 248.2 104.68 248.2 103.48 246.15 C102.3 244.03 102.3 244.03 101.48 242.15 C101.81 241.49 102.14 240.83 102.48 240.15 C101.86 238.47 101.19 236.81 100.48 235.15 C99.96 233.35 99.46 231.54 98.98 229.72 C97.94 225.81 96.83 221.97 95.48 218.15 C94.82 218.15 94.16 218.15 93.48 218.15 C93.79 216.76 93.79 216.76 94.11 215.34 C94.85 212 94.85 212 92.48 209.15 C92.13 207.16 91.8 205.16 91.48 203.15 C90.86 201.14 90.19 199.14 89.48 197.15 C88.06 193.14 87.15 189.35 86.48 185.15 C85.64 183.21 85.64 183.21 84.48 182.15 C84.98 181.16 84.98 181.16 85.48 180.15 C85.01 178.19 85.01 178.19 84.17 176.03 C82.67 171.78 81.52 167.54 80.48 163.15 C79.82 163.15 79.16 163.15 78.48 163.15 C78.68 162.58 78.87 162 79.07 161.4 C79.56 158.76 79.16 157.65 78.11 155.22 C76.88 152.19 76.01 149.39 75.48 146.15 C74.86 142.59 73.91 139.48 72.48 136.15 C72.15 136.15 71.82 136.15 71.48 136.15 Z M67.48 142.15 C68.48 144.15 68.48 144.15 68.48 144.15 Z M212.48 171.15 C213.48 173.15 213.48 173.15 213.48 173.15 Z M277.48 381.15 C278.48 383.15 278.48 383.15 278.48 383.15 Z M-34.52 534.15 C-33.03 535.14 -33.03 535.14 -31.52 536.15 C-31.52 535.49 -31.52 534.83 -31.52 534.15 C-32.51 534.15 -33.5 534.15 -34.52 534.15 Z M320.48 537.15 C320.48 538.14 320.48 539.13 320.48 540.15 C321.47 539.82 322.46 539.49 323.48 539.15 C323.48 538.49 323.48 537.83 323.48 537.15 C322.49 537.15 321.5 537.15 320.48 537.15 Z M-37.52 538.15 C-37.52 538.81 -37.52 539.47 -37.52 540.15 C-36.86 539.82 -36.2 539.49 -35.52 539.15 C-36.18 538.82 -36.84 538.49 -37.52 538.15 Z " fill="#000005" transform="translate(176.51559448242188,-0.153900146484375)"/>
<path d="M0 0 C0.84 0.03 1.68 0.07 2.54 0.11 C9.97 0.51 16.82 1.82 23.69 4.69 C24.8 4.87 24.8 4.87 25.94 5.06 C29.22 5.81 32.02 7.1 35.07 8.51 C39.05 10.3 43.12 11.86 47.18 13.44 C49.69 14.69 49.69 14.69 51.69 17.69 C52.68 18.02 53.67 18.35 54.69 18.69 C54.69 19.35 54.69 20.01 54.69 20.69 C55.68 21.02 56.67 21.35 57.69 21.69 C57.69 22.35 57.69 23.01 57.69 23.69 C58.35 23.69 59.01 23.69 59.69 23.69 C59.81 24.75 59.93 25.81 60.05 26.91 C60.22 28.33 60.39 29.76 60.56 31.19 C60.64 31.88 60.72 32.58 60.8 33.3 C61.22 36.75 61.74 39.88 62.72 43.24 C64.44 49.76 64.13 56.67 64.25 63.38 C64.29 65.48 64.34 67.59 64.39 69.69 C64.44 71.6 64.48 73.5 64.51 75.4 C64.6 78.56 64.6 78.56 65.19 81.1 C65.67 83.61 65.84 85.89 65.88 88.45 C65.89 89.36 65.91 90.27 65.93 91.22 C65.95 92.68 65.95 92.68 65.97 94.17 C65.99 95.18 66.01 96.19 66.02 97.23 C66.1 101.54 66.17 105.85 66.24 110.16 C66.29 113.31 66.35 116.46 66.41 119.61 C66.43 121.08 66.43 121.08 66.45 122.58 C66.46 123.48 66.48 124.39 66.5 125.32 C66.52 126.51 66.52 126.51 66.54 127.73 C66.57 129.77 66.57 129.77 67.69 131.69 C69.54 144.18 69.03 157.15 69.24 169.74 C69.29 172.75 69.35 175.77 69.41 178.78 C69.43 180.16 69.43 180.16 69.45 181.57 C69.46 182.43 69.48 183.29 69.5 184.18 C69.52 185.31 69.52 185.31 69.54 186.46 C69.64 188.74 69.64 188.74 70.19 191.16 C70.69 193.71 70.84 196.04 70.88 198.63 C70.89 199.58 70.91 200.54 70.93 201.52 C70.95 203.05 70.95 203.05 70.97 204.61 C70.99 205.66 71.01 206.71 71.02 207.8 C71.1 212.3 71.17 216.8 71.24 221.3 C71.29 224.59 71.35 227.88 71.41 231.17 C71.43 232.7 71.43 232.7 71.45 234.27 C71.46 235.22 71.48 236.16 71.5 237.13 C71.52 238.38 71.52 238.38 71.54 239.66 C71.56 241.76 71.56 241.76 72.69 243.69 C74.45 255.79 74.02 268.32 74.24 280.52 C74.29 283.39 74.35 286.25 74.41 289.12 C74.42 289.99 74.43 290.86 74.45 291.76 C74.52 295.12 74.62 298.31 75.19 301.63 C75.92 306.14 75.88 310.63 75.93 315.2 C75.97 317.28 76 319.36 76.03 321.43 C76.08 324.68 76.12 327.93 76.16 331.18 C76.2 334.34 76.26 337.49 76.31 340.64 C76.32 342.08 76.32 342.08 76.33 343.54 C76.43 349.02 77.06 354.05 78.23 359.39 C78.87 362.62 79 365.79 79.07 369.09 C79.1 370.39 79.13 371.69 79.17 373.04 C79.2 374.38 79.22 375.72 79.25 377.06 C79.31 379.74 79.37 382.41 79.44 385.09 C79.47 386.26 79.49 387.43 79.51 388.64 C79.66 391.2 80.05 393.23 80.69 395.69 C80.81 397.5 80.89 399.31 80.93 401.12 C80.97 402.16 81 403.2 81.03 404.28 C81.09 406.46 81.15 408.64 81.21 410.82 C81.38 416.21 81.78 420.61 83.69 425.69 C83.94 427.95 84.13 430.22 84.25 432.5 C84.13 436.41 84.13 436.41 85.69 439.69 C88.69 439.79 91.67 439.82 94.67 439.82 C95.62 439.82 96.56 439.82 97.53 439.82 C100.67 439.83 103.8 439.82 106.93 439.82 C109.1 439.82 111.27 439.82 113.44 439.82 C117.99 439.82 122.54 439.82 127.1 439.82 C132.94 439.81 138.79 439.82 144.63 439.82 C149.11 439.83 153.59 439.82 158.08 439.82 C160.23 439.82 162.39 439.82 164.54 439.82 C167.55 439.83 170.56 439.82 173.57 439.82 C174.92 439.82 174.92 439.82 176.29 439.82 C180.63 439.94 180.63 439.94 184.69 438.69 C184.69 439.35 184.69 440.01 184.69 440.69 C185.3 440.65 185.92 440.62 186.55 440.58 C187.36 440.55 188.17 440.53 189 440.5 C189.8 440.47 190.6 440.43 191.43 440.39 C194.2 440.75 194.9 441.61 196.69 443.69 C197.35 443.98 198.01 444.26 198.69 444.56 C201.37 446.07 202.15 448.06 203.69 450.69 C204.35 451.1 205.01 451.51 205.69 451.94 C209.68 455.43 210.47 460.52 210.98 465.63 C211.16 472.19 210.25 477.64 207.69 483.69 C207.03 483.69 206.37 483.69 205.69 483.69 C205.63 484.41 205.56 485.13 205.5 485.88 C204.44 489.54 202.39 491.05 199.69 493.69 C199.36 494.51 199.03 495.34 198.69 496.19 C197.37 499.49 195.22 501.22 192.69 503.69 C191.99 504.76 191.29 505.83 190.56 506.94 C188.69 509.69 188.69 509.69 185.69 510.69 C185.61 511.45 185.52 512.21 185.44 513 C184.69 515.69 184.69 515.69 182.88 517 C180.53 518.81 180.05 519.79 178.88 522.44 C177 526.5 174.53 529.06 171.29 532.09 C169.31 534.06 168.11 536.3 166.69 538.69 C165.04 540.05 163.38 541.39 161.69 542.69 C159.65 545.52 159.65 545.52 158.62 548.31 C155.82 553.2 151.96 557.04 147.69 560.69 C147.03 560.69 146.37 560.69 145.69 560.69 C145.6 561.43 145.52 562.16 145.43 562.92 C144.53 566.28 143.27 567.53 140.76 569.9 C139.96 570.67 139.17 571.44 138.35 572.23 C137.51 573.02 136.67 573.81 135.81 574.62 C134.16 576.19 132.52 577.76 130.88 579.34 C130.15 580.03 129.42 580.72 128.66 581.43 C126.56 583.62 126.56 583.62 125.36 586.5 C123.12 590.76 120.09 593.7 116.68 597.05 C116 597.73 115.33 598.41 114.63 599.11 C113.2 600.54 111.76 601.96 110.33 603.38 C108.12 605.57 105.93 607.76 103.74 609.96 C102.34 611.35 100.95 612.73 99.56 614.12 C98.9 614.78 98.24 615.44 97.56 616.11 C96.95 616.72 96.34 617.32 95.71 617.94 C94.91 618.74 94.91 618.74 94.08 619.55 C92.69 620.69 92.69 620.69 90.69 620.69 C90.59 621.44 90.49 622.19 90.39 622.96 C89.6 626.02 88.71 627.15 86.48 629.35 C85.83 630 85.18 630.65 84.51 631.31 C83.83 631.97 83.14 632.63 82.44 633.31 C81.77 633.98 81.1 634.65 80.41 635.34 C75.35 640.31 75.35 640.31 72.32 642.05 C69.71 643.67 67.81 645.34 65.66 647.52 C64.91 648.28 64.16 649.04 63.38 649.82 C62.58 650.64 61.78 651.45 60.96 652.29 C60.13 653.13 59.29 653.97 58.44 654.84 C55.79 657.51 53.14 660.19 50.5 662.88 C47.01 666.42 43.52 669.95 40.02 673.48 C39.21 674.3 38.41 675.12 37.58 675.97 C36.84 676.72 36.09 677.47 35.32 678.25 C34.34 679.25 34.34 679.25 33.34 680.27 C31.69 681.69 31.69 681.69 29.69 681.69 C29.69 682.35 29.69 683.01 29.69 683.69 C26.69 685.69 26.69 685.69 23.69 685.69 C23.36 686.68 23.03 687.67 22.69 688.69 C21.02 690.34 21.02 690.34 18.94 692.06 C16.45 694.16 14.09 696.25 11.88 698.62 C9.69 700.69 9.69 700.69 6.69 700.69 C6.69 701.35 6.69 702.01 6.69 702.69 C5.88 703 5.08 703.31 4.25 703.62 C1.8 704.45 1.8 704.45 0.69 705.69 C-0.8 705.77 -2.29 705.79 -3.79 705.79 C-4.68 705.78 -5.58 705.78 -6.51 705.78 C-7.46 705.77 -8.4 705.76 -9.38 705.75 C-10.8 705.74 -10.8 705.74 -12.25 705.74 C-14.61 705.72 -16.96 705.71 -19.31 705.69 C-19.64 704.7 -19.97 703.71 -20.31 702.69 C-21.05 702.58 -21.78 702.46 -22.54 702.35 C-29.99 700.57 -35.63 694.68 -40.68 689.23 C-42.18 687.46 -42.18 687.46 -44.31 687.69 C-44.31 686.7 -44.31 685.71 -44.31 684.69 C-44.97 684.69 -45.63 684.69 -46.31 684.69 C-46.31 684.03 -46.31 683.37 -46.31 682.69 C-47.3 682.69 -48.29 682.69 -49.31 682.69 C-49.31 682.03 -49.31 681.37 -49.31 680.69 C-49.87 680.46 -50.43 680.23 -51 680 C-53.93 678.34 -55.98 676.08 -58.31 673.69 C-61.49 670.45 -64.68 667.23 -67.88 664 C-68.73 663.13 -69.58 662.27 -70.45 661.37 C-71.27 660.54 -72.09 659.72 -72.94 658.86 C-73.68 658.11 -74.43 657.36 -75.19 656.58 C-77.19 654.8 -78.91 653.82 -81.31 652.69 C-83.02 651.07 -84.69 649.39 -86.31 647.69 C-87.98 646.02 -89.64 644.35 -91.31 642.69 C-92.27 641.73 -93.23 640.77 -94.19 639.81 C-94.69 639.31 -95.2 638.8 -95.71 638.29 C-101.96 632.04 -108.2 625.8 -114.44 619.56 C-115.16 618.84 -115.16 618.84 -115.9 618.1 C-117.27 616.73 -118.64 615.36 -120.01 613.98 C-121.71 612.29 -123.42 610.61 -125.14 608.93 C-126.09 608 -127.05 607.06 -128 606.12 C-128.49 605.66 -128.97 605.19 -129.47 604.71 C-132.03 602.18 -133.84 599.95 -135.31 596.69 C-136.96 595 -138.62 593.33 -140.31 591.69 C-141.3 590.2 -141.3 590.2 -142.31 588.69 C-142.97 588.36 -143.63 588.03 -144.31 587.69 C-144.31 587.03 -144.31 586.37 -144.31 585.69 C-144.97 585.69 -145.63 585.69 -146.31 585.69 C-146.31 584.7 -146.31 583.71 -146.31 582.69 C-147.3 582.36 -148.29 582.03 -149.31 581.69 C-150.74 580.2 -150.74 580.2 -152.19 578.38 C-154.1 576.04 -155.71 574.38 -158.12 572.5 C-160.59 570.46 -160.62 569.66 -161.31 566.69 C-161.92 566.4 -162.53 566.11 -163.15 565.81 C-165.68 564.5 -166.68 563.19 -168.31 560.88 C-169.08 559.81 -169.08 559.81 -169.86 558.72 C-170.58 557.71 -170.58 557.71 -171.31 556.69 C-172.43 555.3 -172.43 555.3 -173.56 553.88 C-175.31 551.69 -175.31 551.69 -177.31 548.69 C-177.97 548.03 -178.63 547.37 -179.31 546.69 C-180.2 545.49 -181.07 544.28 -181.94 543.06 C-184.82 539.16 -188.05 535.86 -191.58 532.55 C-193.33 530.66 -194.25 529.01 -195.31 526.69 C-197.14 523.69 -197.14 523.69 -199.44 521.69 C-201.31 519.69 -201.31 519.69 -201.31 516.69 C-201.97 516.36 -202.63 516.03 -203.31 515.69 C-204.22 514.41 -205.06 513.09 -205.88 511.75 C-206.53 510.68 -206.53 510.68 -207.19 509.6 C-207.94 508.32 -208.65 507.01 -209.31 505.69 C-209.95 505.42 -210.59 505.15 -211.25 504.88 C-214.04 503.27 -214.43 501.72 -215.31 498.69 C-215.31 497.7 -215.31 496.71 -215.31 495.69 C-216.63 495.69 -217.95 495.69 -219.31 495.69 C-219.56 494.99 -219.81 494.29 -220.06 493.56 C-221.48 490.3 -223.31 487.63 -225.31 484.69 C-230.46 476.54 -230.95 469.6 -229.94 460.19 C-229.63 458.95 -229.63 458.95 -229.31 457.69 C-228.65 457.36 -227.99 457.03 -227.31 456.69 C-226.69 455.11 -226.69 455.11 -226.06 453.5 C-224.39 449.39 -221.9 446.3 -218.31 443.69 C-216.98 443.35 -215.65 443.02 -214.31 442.69 C-213.98 442.03 -213.65 441.37 -213.31 440.69 C-206.75 439.28 -199.77 439.57 -193.09 439.67 C-191.64 439.68 -191.64 439.68 -190.16 439.69 C-187 439.73 -183.84 439.77 -180.68 439.81 C-178.47 439.83 -176.27 439.86 -174.06 439.88 C-168.29 439.94 -162.51 440.01 -156.73 440.08 C-150.83 440.15 -144.92 440.22 -139.02 440.28 C-127.45 440.41 -115.88 440.55 -104.31 440.69 C-104.81 439.2 -104.81 439.2 -105.31 437.69 C-105.26 435.75 -105.26 435.75 -105 433.69 C-104.92 433.01 -104.84 432.33 -104.76 431.62 C-104.31 429.69 -104.31 429.69 -102.31 426.69 C-101.94 423.98 -101.94 423.98 -101.9 420.93 C-101.86 419.81 -101.82 418.69 -101.78 417.54 C-101.75 416.37 -101.72 415.2 -101.69 414 C-101.63 412.23 -101.63 412.23 -101.57 410.43 C-101.48 407.51 -101.39 404.6 -101.31 401.69 C-100.98 401.69 -100.65 401.69 -100.31 401.69 C-99.98 388.16 -99.65 374.63 -99.31 360.69 C-98.98 360.69 -98.65 360.69 -98.31 360.69 C-98.12 358.56 -97.93 356.44 -97.75 354.31 C-97.65 353.13 -97.54 351.95 -97.43 350.73 C-97.07 347.77 -97.07 347.77 -98.31 345.69 C-97.65 345.69 -96.99 345.69 -96.31 345.69 C-96.31 327.87 -96.31 310.05 -96.31 291.69 C-95.98 291.69 -95.65 291.69 -95.31 291.69 C-94.82 259.02 -94.82 259.02 -94.31 225.69 C-93.98 225.69 -93.65 225.69 -93.31 225.69 C-93.12 222.73 -92.93 219.77 -92.75 216.81 C-92.69 215.97 -92.64 215.13 -92.58 214.26 C-92.53 213.46 -92.48 212.65 -92.43 211.82 C-92.39 211.08 -92.34 210.33 -92.29 209.57 C-92.18 207.6 -92.18 207.6 -93.31 205.69 C-92.65 205.69 -91.99 205.69 -91.31 205.69 C-91.31 186.55 -91.31 167.41 -91.31 147.69 C-90.98 147.69 -90.65 147.69 -90.31 147.69 C-89.98 125.58 -89.65 103.47 -89.31 80.69 C-88.98 80.69 -88.65 80.69 -88.31 80.69 C-87.38 70 -86.99 59.34 -86.71 48.62 C-86.67 47.38 -86.63 46.14 -86.59 44.87 C-86.56 43.75 -86.53 42.63 -86.5 41.48 C-86.31 38.69 -86.31 38.69 -85.31 35.69 C-85.26 34.13 -85.22 32.56 -85.19 31 C-84.66 24.95 -81.74 21.63 -77.31 17.69 C-74.31 15.69 -74.31 15.69 -71.31 15.69 C-71.31 15.03 -71.31 14.37 -71.31 13.69 C-67.65 12.2 -63.96 10.8 -60.25 9.42 C-57.92 8.54 -55.62 7.62 -53.31 6.69 C-53.31 6.36 -53.31 6.03 -53.31 5.69 C-45.56 4.56 -45.56 4.56 -43.31 5.69 C-43.31 5.03 -43.31 4.37 -43.31 3.69 C-38.36 2.7 -38.36 2.7 -33.31 1.69 C-33.31 1.36 -33.31 1.03 -33.31 0.69 C-22.19 -0.02 -11.14 -0.51 0 0 Z M56.69 23.69 C56.69 24.68 56.69 25.67 56.69 26.69 C57.35 26.69 58.01 26.69 58.69 26.69 C58.36 25.7 58.03 24.71 57.69 23.69 C57.36 23.69 57.03 23.69 56.69 23.69 Z M60.69 42.69 C60.36 43.35 60.03 44.01 59.69 44.69 C60.35 44.69 61.01 44.69 61.69 44.69 C61.36 44.03 61.03 43.37 60.69 42.69 Z M65.69 132.69 C65.36 133.35 65.03 134.01 64.69 134.69 C65.35 134.69 66.01 134.69 66.69 134.69 C66.36 134.03 66.03 133.37 65.69 132.69 Z M80.69 422.69 C80.36 423.35 80.03 424.01 79.69 424.69 C80.35 424.69 81.01 424.69 81.69 424.69 C81.36 424.03 81.03 423.37 80.69 422.69 Z M205.69 454.69 C206.69 456.69 206.69 456.69 206.69 456.69 Z M200.69 485.69 C200.36 486.68 200.03 487.67 199.69 488.69 C200.35 489.35 201.01 490.01 201.69 490.69 C202.35 489.04 203.01 487.39 203.69 485.69 C202.7 485.69 201.71 485.69 200.69 485.69 Z M195.69 495.69 C196.69 497.69 196.69 497.69 196.69 497.69 Z M185.69 505.69 C187.17 506.68 187.17 506.68 188.69 507.69 C188.69 507.03 188.69 506.37 188.69 505.69 C187.7 505.69 186.71 505.69 185.69 505.69 Z M180.69 512.69 C181.02 513.68 181.35 514.67 181.69 515.69 C182.35 515.36 183.01 515.03 183.69 514.69 C183.69 514.03 183.69 513.37 183.69 512.69 C182.7 512.69 181.71 512.69 180.69 512.69 Z M174.69 522.69 C174.69 523.68 174.69 524.67 174.69 525.69 C175.35 525.36 176.01 525.03 176.69 524.69 C176.69 524.03 176.69 523.37 176.69 522.69 C176.03 522.69 175.37 522.69 174.69 522.69 Z M170.69 525.69 C170.69 526.68 170.69 527.67 170.69 528.69 C171.68 528.36 172.67 528.03 173.69 527.69 C173.36 527.03 173.03 526.37 172.69 525.69 C172.03 525.69 171.37 525.69 170.69 525.69 Z M163.69 535.69 C164.69 537.69 164.69 537.69 164.69 537.69 Z M165.69 535.69 C166.69 537.69 166.69 537.69 166.69 537.69 Z M153.69 547.69 C155.17 548.68 155.17 548.68 156.69 549.69 C156.69 549.03 156.69 548.37 156.69 547.69 C155.7 547.69 154.71 547.69 153.69 547.69 Z M142.69 563.69 C143.69 565.69 143.69 565.69 143.69 565.69 Z M120.69 585.69 C122.17 586.68 122.17 586.68 123.69 587.69 C123.69 587.03 123.69 586.37 123.69 585.69 C122.7 585.69 121.71 585.69 120.69 585.69 Z M119.69 587.69 C120.69 589.69 120.69 589.69 120.69 589.69 Z M87.69 623.69 C88.69 625.69 88.69 625.69 88.69 625.69 Z M84.69 625.69 C85.69 627.69 85.69 627.69 85.69 627.69 Z M17.69 687.69 C18.69 689.69 18.69 689.69 18.69 689.69 Z " fill="#000005" transform="translate(1063.3125,301.3125)"/>
<path d="M0 0 C0.66 -0 1.31 -0.01 1.99 -0.01 C4.2 -0.03 6.41 -0.02 8.62 -0.01 C10.21 -0.01 11.81 -0.02 13.4 -0.02 C17.79 -0.04 22.19 -0.03 26.58 -0.03 C31.32 -0.02 36.05 -0.03 40.78 -0.04 C50.06 -0.06 59.34 -0.06 68.63 -0.06 C76.17 -0.05 83.71 -0.05 91.25 -0.06 C92.32 -0.06 93.39 -0.06 94.5 -0.06 C96.67 -0.06 98.85 -0.07 101.03 -0.07 C121.47 -0.08 141.9 -0.08 162.34 -0.06 C181.05 -0.05 199.76 -0.07 218.46 -0.09 C237.66 -0.12 256.85 -0.12 276.05 -0.12 C286.83 -0.11 297.61 -0.12 308.39 -0.13 C317.57 -0.15 326.75 -0.15 335.93 -0.13 C340.61 -0.12 345.3 -0.12 349.98 -0.14 C354.27 -0.15 358.56 -0.15 362.85 -0.13 C364.4 -0.12 365.95 -0.13 367.5 -0.14 C369.61 -0.15 371.72 -0.14 373.83 -0.12 C375.59 -0.12 375.59 -0.12 377.38 -0.12 C381.31 0.49 383.51 1.93 386.6 4.38 C388.21 7.73 387.74 11.7 387.75 15.36 C387.75 16.41 387.75 16.41 387.76 17.47 C387.77 19.76 387.77 22.05 387.77 24.35 C387.77 25.94 387.78 27.54 387.78 29.13 C387.79 32.48 387.79 35.82 387.79 39.17 C387.79 43.45 387.8 47.73 387.82 52.01 C387.83 55.31 387.83 58.61 387.83 61.9 C387.83 63.48 387.84 65.06 387.85 66.64 C387.86 68.85 387.85 71.06 387.85 73.27 C387.85 74.52 387.85 75.78 387.85 77.07 C387.61 80.28 386.98 82.5 385.6 85.38 C384.94 85.38 384.28 85.38 383.6 85.38 C383.52 86.1 383.44 86.82 383.35 87.57 C382.45 90.97 381 92.83 378.6 95.38 C377.94 95.38 377.28 95.38 376.6 95.38 C376.5 96.14 376.4 96.91 376.29 97.69 C375.52 100.7 374.77 101.29 372.6 103.38 C371.86 104.93 371.86 104.93 371.1 106.51 C369.6 109.38 369.6 109.38 366.6 110.38 C366.5 111.14 366.4 111.91 366.29 112.69 C365.51 115.73 364.8 116.27 362.6 118.38 C361.17 120.67 359.9 123.01 358.6 125.38 C357.94 125.38 357.28 125.38 356.6 125.38 C356.54 126.1 356.48 126.82 356.42 127.57 C355.35 131.26 353.5 132.91 350.6 135.38 C349.94 135.38 349.28 135.38 348.6 135.38 C348.48 136.14 348.36 136.91 348.23 137.69 C347.6 140.38 347.6 140.38 345.6 143.38 C344.94 143.38 344.28 143.38 343.6 143.38 C343.52 144.16 343.44 144.95 343.35 145.76 C343.11 146.62 342.86 147.49 342.6 148.38 C341.27 149.05 339.94 149.71 338.6 150.38 C338.47 151.12 338.33 151.86 338.19 152.62 C337.49 155.91 336.19 157.79 334.23 160.51 C333.62 161.35 333.02 162.2 332.39 163.08 C330.6 165.38 330.6 165.38 328.97 166.99 C327.34 168.5 327.34 168.5 326.1 171.51 C324.6 174.38 324.6 174.38 321.6 175.38 C321.5 176.14 321.4 176.91 321.29 177.69 C320.52 180.7 319.77 181.29 317.6 183.38 C316.86 184.93 316.86 184.93 316.1 186.51 C314.6 189.38 314.6 189.38 311.6 190.38 C311.5 191.14 311.4 191.91 311.29 192.69 C310.53 195.68 309.81 196.35 307.6 198.38 C306.92 199.53 306.92 199.53 306.23 200.69 C304.31 203.87 301.98 206.53 299.6 209.38 C299.07 210.31 298.53 211.24 297.98 212.19 C296.6 214.38 296.6 214.38 293.6 215.38 C293.48 216.14 293.36 216.91 293.23 217.69 C292.6 220.38 292.6 220.38 290.6 223.38 C289.94 223.38 289.28 223.38 288.6 223.38 C288.52 224.16 288.44 224.95 288.35 225.76 C288.11 226.62 287.86 227.49 287.6 228.38 C286.27 229.05 284.94 229.71 283.6 230.38 C283.47 231.12 283.33 231.86 283.19 232.62 C282.49 235.91 281.19 237.79 279.23 240.51 C278.62 241.35 278.02 242.2 277.39 243.08 C275.6 245.38 275.6 245.38 273.97 246.99 C272.34 248.5 272.34 248.5 271.1 251.51 C269.6 254.38 269.6 254.38 266.6 255.38 C266.5 256.14 266.4 256.91 266.29 257.69 C265.52 260.7 264.77 261.29 262.6 263.38 C261.86 264.93 261.86 264.93 261.1 266.51 C259.6 269.38 259.6 269.38 256.6 270.38 C256.54 271.1 256.48 271.82 256.42 272.57 C255.35 276.26 253.5 277.91 250.6 280.38 C249.94 280.38 249.28 280.38 248.6 280.38 C248.85 280.96 249.1 281.54 249.35 282.13 C249.44 282.87 249.52 283.62 249.6 284.38 C247.79 286.63 247.79 286.63 245.6 288.38 C244.94 288.38 244.28 288.38 243.6 288.38 C243.52 289.16 243.44 289.95 243.35 290.76 C243.11 291.62 242.86 292.49 242.6 293.38 C241.27 294.05 239.94 294.71 238.6 295.38 C237.93 297.82 237.93 297.82 237.6 300.38 C236.94 301.37 236.28 302.36 235.6 303.38 C234.94 303.38 234.28 303.38 233.6 303.38 C233.52 304.16 233.44 304.95 233.35 305.76 C233.11 306.62 232.86 307.49 232.6 308.38 C231.27 309.05 229.94 309.71 228.6 310.38 C228.24 312.04 227.91 313.71 227.6 315.38 C225.67 318.19 225.67 318.19 223.6 320.38 C222.94 320.38 222.28 320.38 221.6 320.38 C221.45 321.53 221.45 321.53 221.29 322.69 C220.52 325.7 219.77 326.29 217.6 328.38 C216.86 329.93 216.86 329.93 216.1 331.51 C214.6 334.38 214.6 334.38 211.6 335.38 C211.45 336.53 211.45 336.53 211.29 337.69 C210.51 340.73 209.8 341.27 207.6 343.38 C206.17 345.67 204.9 348.01 203.6 350.38 C202.94 350.38 202.28 350.38 201.6 350.38 C201.54 351.1 201.48 351.82 201.42 352.57 C200.35 356.26 198.5 357.91 195.6 360.38 C194.94 360.38 194.28 360.38 193.6 360.38 C193.42 361.53 193.42 361.53 193.23 362.69 C192.6 365.38 192.6 365.38 190.6 368.38 C189.94 368.38 189.28 368.38 188.6 368.38 C188.52 369.16 188.44 369.95 188.35 370.76 C188.11 371.62 187.86 372.49 187.6 373.38 C186.27 374.05 184.94 374.71 183.6 375.38 C183.47 376.12 183.33 376.86 183.19 377.62 C182.49 380.91 181.19 382.79 179.23 385.51 C178.62 386.35 178.02 387.2 177.39 388.08 C175.6 390.38 175.6 390.38 173.97 391.99 C172.34 393.5 172.34 393.5 171.1 396.51 C169.6 399.38 169.6 399.38 166.6 400.38 C166.45 401.53 166.45 401.53 166.29 402.69 C165.52 405.7 164.77 406.29 162.6 408.38 C161.86 409.93 161.86 409.93 161.1 411.51 C159.6 414.38 159.6 414.38 156.6 415.38 C156.45 416.53 156.45 416.53 156.29 417.69 C155.54 420.65 154.68 421.3 152.6 423.38 C152.6 424.7 152.6 426.02 152.6 427.38 C154.38 427.38 154.38 427.38 156.2 427.38 C184.36 427.36 212.52 427.34 240.68 427.33 C244.15 427.33 247.61 427.33 251.08 427.33 C252.11 427.32 252.11 427.32 253.17 427.32 C264.34 427.32 275.52 427.31 286.69 427.3 C298.15 427.29 309.62 427.29 321.08 427.29 C327.52 427.28 333.96 427.28 340.4 427.27 C346.46 427.27 352.52 427.27 358.57 427.27 C360.8 427.27 363.03 427.26 365.25 427.26 C368.29 427.26 371.32 427.26 374.35 427.26 C375.68 427.26 375.68 427.26 377.04 427.25 C378.26 427.25 378.26 427.25 379.5 427.26 C380.2 427.26 380.9 427.26 381.63 427.26 C383.72 427.39 385.59 427.81 387.6 428.38 C387.6 429.04 387.6 429.7 387.6 430.38 C388.59 430.71 389.58 431.04 390.6 431.38 C391.76 433.7 391.73 435.04 391.74 437.62 C391.75 438.51 391.76 439.4 391.76 440.31 C391.76 441.29 391.76 442.27 391.76 443.27 C391.77 444.3 391.77 445.33 391.78 446.39 C391.79 449.8 391.8 453.21 391.81 456.62 C391.81 458.99 391.82 461.35 391.82 463.71 C391.83 468.68 391.84 473.64 391.84 478.6 C391.85 484.96 391.87 491.33 391.9 497.69 C391.92 502.58 391.93 507.46 391.93 512.35 C391.93 514.69 391.94 517.04 391.95 519.39 C391.97 522.67 391.97 525.95 391.96 529.23 C391.97 530.2 391.98 531.17 391.99 532.18 C391.98 533.52 391.98 533.52 391.97 534.89 C391.97 535.66 391.97 536.44 391.98 537.24 C391.48 540.12 390.68 541.31 388.6 543.38 C385.55 543.88 385.55 543.88 381.7 543.89 C380.99 543.89 380.28 543.9 379.55 543.9 C377.15 543.92 374.75 543.91 372.36 543.89 C370.63 543.9 368.9 543.91 367.17 543.92 C362.41 543.93 357.64 543.93 352.88 543.92 C347.74 543.91 342.61 543.93 337.48 543.94 C327.42 543.96 317.35 543.96 307.29 543.95 C299.12 543.95 290.95 543.95 282.77 543.95 C281.61 543.96 280.45 543.96 279.25 543.96 C276.89 543.96 274.53 543.96 272.17 543.96 C250.03 543.98 227.88 543.97 205.74 543.95 C185.46 543.94 165.18 543.95 144.9 543.98 C124.09 544.01 103.29 544.02 82.49 544.01 C80.14 544.01 77.79 544.01 75.44 544.01 C74.28 544.01 73.12 544.01 71.93 544.01 C63.76 544.01 55.59 544.02 47.43 544.03 C37.48 544.05 27.53 544.05 17.58 544.03 C12.5 544.01 7.42 544.01 2.34 544.03 C-2.3 544.05 -6.95 544.04 -11.59 544.02 C-13.28 544.01 -14.96 544.01 -16.65 544.03 C-18.93 544.04 -21.21 544.03 -23.49 544.01 C-24.76 544.01 -26.03 544.01 -27.34 544.01 C-30.4 543.38 -30.4 543.38 -32.27 540.97 C-32.64 540.11 -33.01 539.26 -33.4 538.38 C-33.73 537.72 -34.06 537.06 -34.4 536.38 C-34.49 534.35 -34.52 532.33 -34.53 530.3 C-34.53 528.38 -34.53 528.38 -34.54 526.42 C-34.53 525.02 -34.53 523.62 -34.53 522.21 C-34.53 520.77 -34.53 519.34 -34.53 517.9 C-34.53 514.88 -34.53 511.86 -34.53 508.84 C-34.52 504.99 -34.52 501.13 -34.53 497.28 C-34.53 494.3 -34.53 491.33 -34.53 488.36 C-34.53 486.94 -34.53 485.52 -34.53 484.1 C-34.54 482.1 -34.53 480.11 -34.53 478.11 C-34.52 476.98 -34.52 475.84 -34.52 474.68 C-34.12 464.1 -34.12 464.1 -30.4 460.38 C-29.74 460.38 -29.08 460.38 -28.4 460.38 C-28.24 459.24 -28.24 459.24 -28.08 458.07 C-27.31 455.03 -26.59 454.5 -24.4 452.38 C-22.97 450.09 -21.69 447.75 -20.4 445.38 C-19.74 445.38 -19.08 445.38 -18.4 445.38 C-18.25 444.51 -18.25 444.51 -18.11 443.62 C-17.24 440.9 -15.98 439.57 -14.02 437.51 C-11.11 434.31 -9.19 431.33 -7.4 427.38 C-6.43 426.02 -5.43 424.69 -4.4 423.38 C-3.74 422.39 -3.08 421.4 -2.4 420.38 C-1.74 420.38 -1.08 420.38 -0.4 420.38 C-0.13 419.47 0.14 418.57 0.42 417.63 C1.51 414.65 2.47 412.69 4.6 410.38 C5.26 410.38 5.92 410.38 6.6 410.38 C6.71 409.62 6.81 408.85 6.92 408.07 C7.69 405.03 8.41 404.5 10.6 402.38 C12.03 400.09 13.31 397.75 14.6 395.38 C15.26 395.38 15.92 395.38 16.6 395.38 C16.69 394.86 16.77 394.35 16.85 393.82 C17.94 390.3 19.65 387.51 21.6 384.38 C22.26 384.05 22.92 383.72 23.6 383.38 C27.17 379.49 27.17 379.49 29.6 374.88 C30.96 371.48 33.26 369.18 35.6 366.38 C36.63 364.4 37.64 362.4 38.6 360.38 C39.26 359.72 39.92 359.06 40.6 358.38 C41.26 357.39 41.92 356.4 42.6 355.38 C43.26 355.38 43.92 355.38 44.6 355.38 C44.87 354.47 45.14 353.57 45.42 352.63 C46.51 349.65 47.47 347.69 49.6 345.38 C50.26 345.38 50.92 345.38 51.6 345.38 C51.71 344.62 51.81 343.85 51.92 343.07 C52.69 340.03 53.41 339.5 55.6 337.38 C57.03 335.09 58.31 332.75 59.6 330.38 C60.26 330.38 60.92 330.38 61.6 330.38 C61.71 329.8 61.82 329.22 61.93 328.61 C62.69 326.1 63.72 324.67 65.35 322.63 C68 319.23 70.32 315.74 72.53 312.04 C73.6 310.38 73.6 310.38 75.6 308.38 C76.48 307.25 77.33 306.1 78.17 304.94 C78.6 304.35 79.04 303.75 79.48 303.13 C80.78 301.27 80.78 301.27 81.6 298.38 C82.94 297.05 84.27 295.71 85.6 294.38 C86.64 292.73 87.63 291.06 88.6 289.38 C89.61 287.77 90.63 286.16 91.67 284.57 C92.17 283.78 92.68 282.99 93.2 282.17 C93.9 281.29 93.9 281.29 94.6 280.38 C95.26 280.38 95.92 280.38 96.6 280.38 C96.7 279.84 96.79 279.3 96.89 278.74 C97.82 275.68 99.33 273.32 101.04 270.63 C101.66 269.65 102.28 268.66 102.91 267.65 C103.47 266.9 104.03 266.15 104.6 265.38 C105.26 265.38 105.92 265.38 106.6 265.38 C106.7 264.8 106.79 264.22 106.89 263.62 C107.76 260.9 109.02 259.57 110.98 257.51 C113.89 254.31 115.81 251.33 117.6 247.38 C118.57 246.02 119.57 244.69 120.6 243.38 C121.26 242.39 121.92 241.4 122.6 240.38 C123.26 240.38 123.92 240.38 124.6 240.38 C124.87 239.47 125.14 238.57 125.42 237.63 C126.51 234.65 127.47 232.69 129.6 230.38 C130.26 230.38 130.92 230.38 131.6 230.38 C131.76 229.24 131.76 229.24 131.92 228.07 C132.69 225.03 133.41 224.5 135.6 222.38 C137.03 220.09 138.31 217.75 139.6 215.38 C140.26 215.38 140.92 215.38 141.6 215.38 C141.69 214.86 141.77 214.35 141.85 213.82 C142.94 210.3 144.65 207.51 146.6 204.38 C147.26 204.05 147.92 203.72 148.6 203.38 C152.17 199.49 152.17 199.49 154.6 194.88 C155.57 192.47 156.49 191.19 158.17 189.26 C160.75 186.57 160.75 186.57 161.6 183.38 C162.26 182.72 162.92 182.06 163.6 181.38 C164.26 180.35 164.92 179.32 165.6 178.26 C166.26 177.31 166.92 176.36 167.6 175.38 C168.26 175.38 168.92 175.38 169.6 175.38 C169.87 174.47 170.14 173.57 170.42 172.63 C171.51 169.65 172.47 167.69 174.6 165.38 C175.26 165.38 175.92 165.38 176.6 165.38 C176.76 164.24 176.76 164.24 176.92 163.07 C177.69 160.03 178.41 159.5 180.6 157.38 C182.03 155.09 183.31 152.75 184.6 150.38 C185.26 150.38 185.92 150.38 186.6 150.38 C186.71 149.8 186.82 149.22 186.92 148.63 C187.7 146.05 188.81 144.54 190.48 142.44 C192.28 140.14 193.85 137.96 195.35 135.44 C196.6 133.38 196.6 133.38 198.6 132.38 C199.72 130.73 199.72 130.73 200.73 128.82 C201.66 127.12 201.66 127.12 202.6 125.38 C203.26 125.38 203.92 125.38 204.6 125.38 C204.89 124.25 205.18 123.11 205.48 121.94 C206.04 120.18 206.04 120.18 206.6 118.38 C207.26 118.05 207.92 117.72 208.6 117.38 C206.98 117.39 206.98 117.39 205.33 117.39 C179.05 117.48 152.77 117.55 126.49 117.59 C113.78 117.61 101.07 117.64 88.36 117.68 C77.28 117.72 66.2 117.75 55.12 117.76 C49.26 117.76 43.39 117.77 37.53 117.8 C32 117.83 26.48 117.84 20.96 117.83 C18.93 117.83 16.91 117.84 14.88 117.86 C12.11 117.88 9.35 117.87 6.58 117.86 C5.78 117.87 4.98 117.88 4.16 117.9 C-1.29 117.84 -5.96 116.71 -10.4 113.38 C-11.33 110.57 -11.52 108.9 -11.52 106 C-11.52 105.1 -11.52 104.2 -11.52 103.28 C-11.52 102.3 -11.51 101.32 -11.51 100.31 C-11.51 99.27 -11.51 98.24 -11.51 97.17 C-11.51 93.75 -11.5 90.32 -11.49 86.9 C-11.49 84.53 -11.49 82.16 -11.49 79.78 C-11.49 73.53 -11.48 67.29 -11.46 61.04 C-11.45 54.66 -11.45 48.29 -11.45 41.91 C-11.43 29.4 -11.42 16.89 -11.4 4.38 C-10.74 4.05 -10.08 3.72 -9.4 3.38 C-8.99 2.87 -8.59 2.36 -8.17 1.84 C-5.52 -0.34 -3.4 0 0 0 Z M378.6 87.38 C379.6 89.38 379.6 89.38 379.6 89.38 Z M380.6 87.38 C381.6 89.38 381.6 89.38 381.6 89.38 Z M371.6 97.38 C373.09 98.37 373.09 98.37 374.6 99.38 C374.6 98.72 374.6 98.06 374.6 97.38 C373.61 97.38 372.62 97.38 371.6 97.38 Z M368.6 105.38 C369.6 107.38 369.6 107.38 369.6 107.38 Z M361.6 112.38 C361.6 113.37 361.6 114.36 361.6 115.38 C362.59 115.05 363.58 114.72 364.6 114.38 C364.6 113.72 364.6 113.06 364.6 112.38 C363.61 112.38 362.62 112.38 361.6 112.38 Z M356.6 120.38 C357.6 122.38 357.6 122.38 357.6 122.38 Z M358.6 120.38 C359.6 122.38 359.6 122.38 359.6 122.38 Z M351.6 127.38 C351.93 128.37 352.26 129.36 352.6 130.38 C353.26 130.05 353.92 129.72 354.6 129.38 C354.6 128.72 354.6 128.06 354.6 127.38 C353.61 127.38 352.62 127.38 351.6 127.38 Z M348.6 130.38 C348.6 131.37 348.6 132.36 348.6 133.38 C349.26 133.05 349.92 132.72 350.6 132.38 C349.94 131.72 349.28 131.06 348.6 130.38 Z M343.6 137.38 C343.6 138.37 343.6 139.36 343.6 140.38 C344.59 140.05 345.58 139.72 346.6 139.38 C346.6 138.72 346.6 138.06 346.6 137.38 C345.61 137.38 344.62 137.38 343.6 137.38 Z M338.6 145.38 C338.6 146.37 338.6 147.36 338.6 148.38 C339.59 148.05 340.58 147.72 341.6 147.38 C341.6 146.72 341.6 146.06 341.6 145.38 C340.61 145.38 339.62 145.38 338.6 145.38 Z M333.6 152.38 C333.6 153.37 333.6 154.36 333.6 155.38 C334.59 155.05 335.58 154.72 336.6 154.38 C336.6 153.72 336.6 153.06 336.6 152.38 C335.61 152.38 334.62 152.38 333.6 152.38 Z M328.6 163.38 C329.6 165.38 329.6 165.38 329.6 165.38 Z M323.6 170.38 C324.6 172.38 324.6 172.38 324.6 172.38 Z M316.6 177.38 C318.09 178.37 318.09 178.37 319.6 179.38 C319.6 178.72 319.6 178.06 319.6 177.38 C318.61 177.38 317.62 177.38 316.6 177.38 Z M313.6 185.38 C314.6 187.38 314.6 187.38 314.6 187.38 Z M307.6 192.38 C307.27 193.37 306.94 194.36 306.6 195.38 C307.59 195.05 308.58 194.72 309.6 194.38 C309.6 193.72 309.6 193.06 309.6 192.38 C308.94 192.38 308.28 192.38 307.6 192.38 Z M301.6 200.38 C302.6 202.38 302.6 202.38 302.6 202.38 Z M303.6 200.38 C304.6 202.38 304.6 202.38 304.6 202.38 Z M293.6 210.38 C295.09 211.37 295.09 211.37 296.6 212.38 C296.6 211.72 296.6 211.06 296.6 210.38 C295.61 210.38 294.62 210.38 293.6 210.38 Z M288.6 217.38 C288.6 218.37 288.6 219.36 288.6 220.38 C289.26 220.05 289.92 219.72 290.6 219.38 C289.94 218.72 289.28 218.06 288.6 217.38 Z M283.6 225.38 C283.6 226.37 283.6 227.36 283.6 228.38 C284.59 228.05 285.58 227.72 286.6 227.38 C286.6 226.72 286.6 226.06 286.6 225.38 C285.61 225.38 284.62 225.38 283.6 225.38 Z M278.6 232.38 C278.6 233.37 278.6 234.36 278.6 235.38 C279.59 235.05 280.58 234.72 281.6 234.38 C281.6 233.72 281.6 233.06 281.6 232.38 C280.61 232.38 279.62 232.38 278.6 232.38 Z M274.6 240.38 C275.26 241.04 275.92 241.7 276.6 242.38 C276.6 241.72 276.6 241.06 276.6 240.38 C275.94 240.38 275.28 240.38 274.6 240.38 Z M273.6 243.38 C274.6 245.38 274.6 245.38 274.6 245.38 Z M266.6 250.38 C267.6 252.38 267.6 252.38 267.6 252.38 Z M268.6 250.38 C269.6 252.38 269.6 252.38 269.6 252.38 Z M261.6 257.38 C263.09 258.37 263.09 258.37 264.6 259.38 C264.6 258.72 264.6 258.06 264.6 257.38 C263.61 257.38 262.62 257.38 261.6 257.38 Z M256.6 265.38 C257.6 267.38 257.6 267.38 257.6 267.38 Z M258.6 265.38 C259.6 267.38 259.6 267.38 259.6 267.38 Z M251.6 272.38 C251.93 273.37 252.26 274.36 252.6 275.38 C253.26 275.05 253.92 274.72 254.6 274.38 C254.6 273.72 254.6 273.06 254.6 272.38 C253.61 272.38 252.62 272.38 251.6 272.38 Z M248.6 275.38 C248.6 276.37 248.6 277.36 248.6 278.38 C249.59 278.05 250.58 277.72 251.6 277.38 C251.27 276.72 250.94 276.06 250.6 275.38 C249.94 275.38 249.28 275.38 248.6 275.38 Z M243.6 282.38 C245.09 283.37 245.09 283.37 246.6 284.38 C246.6 283.72 246.6 283.06 246.6 282.38 C245.61 282.38 244.62 282.38 243.6 282.38 Z M238.6 290.38 C238.6 291.37 238.6 292.36 238.6 293.38 C239.59 293.05 240.58 292.72 241.6 292.38 C241.6 291.72 241.6 291.06 241.6 290.38 C240.61 290.38 239.62 290.38 238.6 290.38 Z M233.6 297.38 C233.6 298.37 233.6 299.36 233.6 300.38 C234.59 300.05 235.58 299.72 236.6 299.38 C236.6 298.72 236.6 298.06 236.6 297.38 C235.61 297.38 234.62 297.38 233.6 297.38 Z M228.6 305.38 C228.6 306.37 228.6 307.36 228.6 308.38 C229.59 308.05 230.58 307.72 231.6 307.38 C231.6 306.72 231.6 306.06 231.6 305.38 C230.61 305.38 229.62 305.38 228.6 305.38 Z M223.6 312.38 C224.6 314.38 224.6 314.38 224.6 314.38 Z M225.6 312.38 C226.6 314.38 226.6 314.38 226.6 314.38 Z M216.6 322.38 C218.09 323.37 218.09 323.37 219.6 324.38 C219.6 323.72 219.6 323.06 219.6 322.38 C218.61 322.38 217.62 322.38 216.6 322.38 Z M213.6 330.38 C214.6 332.38 214.6 332.38 214.6 332.38 Z M206.6 337.38 C206.6 338.37 206.6 339.36 206.6 340.38 C207.59 340.05 208.58 339.72 209.6 339.38 C209.6 338.72 209.6 338.06 209.6 337.38 C208.61 337.38 207.62 337.38 206.6 337.38 Z M201.6 345.38 C202.6 347.38 202.6 347.38 202.6 347.38 Z M203.6 345.38 C204.6 347.38 204.6 347.38 204.6 347.38 Z M196.6 352.38 C196.93 353.37 197.26 354.36 197.6 355.38 C198.26 355.05 198.92 354.72 199.6 354.38 C199.6 353.72 199.6 353.06 199.6 352.38 C198.61 352.38 197.62 352.38 196.6 352.38 Z M193.6 355.38 C193.6 356.37 193.6 357.36 193.6 358.38 C194.26 358.05 194.92 357.72 195.6 357.38 C194.94 356.72 194.28 356.06 193.6 355.38 Z M188.6 362.38 C188.6 363.37 188.6 364.36 188.6 365.38 C189.59 365.05 190.58 364.72 191.6 364.38 C191.6 363.72 191.6 363.06 191.6 362.38 C190.61 362.38 189.62 362.38 188.6 362.38 Z M183.6 370.38 C183.6 371.37 183.6 372.36 183.6 373.38 C184.59 373.05 185.58 372.72 186.6 372.38 C186.6 371.72 186.6 371.06 186.6 370.38 C185.61 370.38 184.62 370.38 183.6 370.38 Z M178.6 377.38 C178.6 378.37 178.6 379.36 178.6 380.38 C179.59 380.05 180.58 379.72 181.6 379.38 C181.6 378.72 181.6 378.06 181.6 377.38 C180.61 377.38 179.62 377.38 178.6 377.38 Z M173.6 388.38 C174.6 390.38 174.6 390.38 174.6 390.38 Z M168.6 395.38 C169.6 397.38 169.6 397.38 169.6 397.38 Z M161.6 402.38 C163.09 403.37 163.09 403.37 164.6 404.38 C164.6 403.72 164.6 403.06 164.6 402.38 C163.61 402.38 162.62 402.38 161.6 402.38 Z M158.6 410.38 C159.6 412.38 159.6 412.38 159.6 412.38 Z M152.6 417.38 C152.27 418.37 151.94 419.36 151.6 420.38 C152.59 420.05 153.58 419.72 154.6 419.38 C154.6 418.72 154.6 418.06 154.6 417.38 C153.94 417.38 153.28 417.38 152.6 417.38 Z " fill="#000005" transform="translate(75.39630603790283,736.619683265686)"/>
<path d="M0 0 C0.33 0 0.66 0 1 0 C1 19.14 1 38.28 1 58 C0.67 58 0.34 58 0 58 C0 38.86 0 19.72 0 0 Z " fill="#000005" transform="translate(39,1209)"/>
<path d="M0 0 C0.33 0 0.66 0 1 0 C1 5.94 1 11.88 1 18 C0.67 18 0.34 18 0 18 C0 12.06 0 6.12 0 0 Z " fill="#FCFDFF" transform="translate(1140,635)"/>
<path d="M0 0 C0.33 0 0.66 0 1 0 C1 5.61 1 11.22 1 17 C0.67 17 0.34 17 0 17 C0 11.39 0 5.78 0 0 Z " fill="#FCFDFF" transform="translate(1135,526)"/>
<path d="M0 0 C0.33 0 0.66 0 1 0 C1 5.61 1 11.22 1 17 C0.67 17 0.34 17 0 17 C0 11.39 0 5.78 0 0 Z " fill="#FCFDFF" transform="translate(1130,414)"/>
<path d="M0 0 C0.33 0 0.66 0 1 0 C1 2.31 1 4.62 1 7 C0.67 7 0.34 7 0 7 C0 4.69 0 2.38 0 0 Z " fill="#FCFDFF" transform="translate(1145,714)"/>
<path d="M0 0 C3 1 3 1 3 1 Z " fill="#FCFDFF" transform="translate(230,1162)"/>
<path d="" fill="#FCFDFF" transform="translate(0,0)"/>
<path d="" fill="#414045" transform="translate(0,0)"/>
<path d="" fill="#000005" transform="translate(0,0)"/>
<path d="" fill="#414045" transform="translate(0,0)"/>
<path d="" fill="#000005" transform="translate(0,0)"/>
<path d="" fill="#000005" transform="translate(0,0)"/>
<path d="" fill="#FCFDFF" transform="translate(0,0)"/>
<path d="" fill="#FCFDFF" transform="translate(0,0)"/>
<path d="" fill="#FCFDFF" transform="translate(0,0)"/>
<path d="" fill="#FCFDFF" transform="translate(0,0)"/>
<path d="" fill="#FCFDFF" transform="translate(0,0)"/>
<path d="" fill="#FCFDFF" transform="translate(0,0)"/>
<path d="" fill="#000005" transform="translate(0,0)"/>
<path d="" fill="#000005" transform="translate(0,0)"/>
<path d="" fill="#000005" transform="translate(0,0)"/>
<path d="" fill="#000005" transform="translate(0,0)"/>
<path d="" fill="#000005" transform="translate(0,0)"/>
<path d="" fill="#838085" transform="translate(0,0)"/>
<path d="" fill="#000005" transform="translate(0,0)"/>
<path d="" fill="#000005" transform="translate(0,0)"/>
<path d="" fill="#000005" transform="translate(0,0)"/>
<path d="" fill="#000005" transform="translate(0,0)"/>
<path d="" fill="#000005" transform="translate(0,0)"/>
<path d="" fill="#000005" transform="translate(0,0)"/>
<path d="" fill="#000005" transform="translate(0,0)"/>
<path d="" fill="#000005" transform="translate(0,0)"/>
<path d="" fill="#000005" transform="translate(0,0)"/>
<path d="" fill="#000005" transform="translate(0,0)"/>
<path d="" fill="#838085" transform="translate(0,0)"/>
<path d="" fill="#838085" transform="translate(0,0)"/>
<path d="" fill="#000005" transform="translate(0,0)"/>
<path d="" fill="#000005" transform="translate(0,0)"/>
<path d="" fill="#838085" transform="translate(0,0)"/>
<path d="" fill="#FCFDFF" transform="translate(0,0)"/>
<path d="" fill="#838085" transform="translate(0,0)"/>
<path d="" fill="#000005" transform="translate(0,0)"/>
<path d="" fill="#000005" transform="translate(0,0)"/>
<path d="" fill="#000005" transform="translate(0,0)"/>
<path d="" fill="#000005" transform="translate(0,0)"/>
<path d="" fill="#838085" transform="translate(0,0)"/>
<path d="" fill="#000005" transform="translate(0,0)"/>
<path d="" fill="#838085" transform="translate(0,0)"/>
<path d="" fill="#000005" transform="translate(0,0)"/>
<path d="" fill="#000005" transform="translate(0,0)"/>
<path d="" fill="#838085" transform="translate(0,0)"/>
<path d="" fill="#FCFDFF" transform="translate(0,0)"/>
<path d="" fill="#000005" transform="translate(0,0)"/>
<path d="" fill="#000005" transform="translate(0,0)"/>
<path d="" fill="#838085" transform="translate(0,0)"/>
<path d="" fill="#000005" transform="translate(0,0)"/>
<path d="" fill="#000005" transform="translate(0,0)"/>
<path d="" fill="#FCFDFF" transform="translate(0,0)"/>
<path d="" fill="#838085" transform="translate(0,0)"/>
<path d="" fill="#838085" transform="translate(0,0)"/>
<path d="" fill="#FCFDFF" transform="translate(0,0)"/>
<path d="" fill="#FCFDFF" transform="translate(0,0)"/>
<path d="" fill="#000005" transform="translate(0,0)"/>
<path d="" fill="#000005" transform="translate(0,0)"/>
<path d="" fill="#000005" transform="translate(0,0)"/>
<path d="" fill="#000005" transform="translate(0,0)"/>
<path d="" fill="#838085" transform="translate(0,0)"/>
<path d="" fill="#000005" transform="translate(0,0)"/>
<path d="" fill="#000005" transform="translate(0,0)"/>
<path d="" fill="#000005" transform="translate(0,0)"/>
<path d="" fill="#838085" transform="translate(0,0)"/>
<path d="" fill="#000005" transform="translate(0,0)"/>
<path d="" fill="#000005" transform="translate(0,0)"/>
<path d="" fill="#FCFDFF" transform="translate(0,0)"/>
<path d="" fill="#000005" transform="translate(0,0)"/>
<path d="" fill="#000005" transform="translate(0,0)"/>
<path d="" fill="#838085" transform="translate(0,0)"/>
<path d="" fill="#000005" transform="translate(0,0)"/>
<path d="" fill="#FCFDFF" transform="translate(0,0)"/>
<path d="" fill="#000005" transform="translate(0,0)"/>
<path d="" fill="#000005" transform="translate(0,0)"/>
<path d="" fill="#000005" transform="translate(0,0)"/>
<path d="" fill="#000005" transform="translate(0,0)"/>
<path d="" fill="#000005" transform="translate(0,0)"/>
<path d="" fill="#838085" transform="translate(0,0)"/>
<path d="" fill="#838085" transform="translate(0,0)"/>
<path d="" fill="#000005" transform="translate(0,0)"/>
<path d="" fill="#000005" transform="translate(0,0)"/>
<path d="" fill="#838085" transform="translate(0,0)"/>
<path d="" fill="#FCFDFF" transform="translate(0,0)"/>
<path d="" fill="#838085" transform="translate(0,0)"/>
<path d="" fill="#FCFDFF" transform="translate(0,0)"/>
<path d="" fill="#000005" transform="translate(0,0)"/>
<path d="" fill="#000005" transform="translate(0,0)"/>
<path d="" fill="#838085" transform="translate(0,0)"/>
<path d="" fill="#000005" transform="translate(0,0)"/>
<path d="" fill="#000005" transform="translate(0,0)"/>
<path d="" fill="#838085" transform="translate(0,0)"/>
<path d="" fill="#000005" transform="translate(0,0)"/>
<path d="" fill="#838085" transform="translate(0,0)"/>
<path d="" fill="#000005" transform="translate(0,0)"/>
<path d="" fill="#000005" transform="translate(0,0)"/>
<path d="" fill="#000005" transform="translate(0,0)"/>
<path d="" fill="#838085" transform="translate(0,0)"/>
<path d="" fill="#000005" transform="translate(0,0)"/>
<path d="" fill="#000005" transform="translate(0,0)"/>
<path d="" fill="#000005" transform="translate(0,0)"/>
<path d="" fill="#000005" transform="translate(0,0)"/>
<path d="" fill="#000005" transform="translate(0,0)"/>
<path d="" fill="#838085" transform="translate(0,0)"/>
<path d="" fill="#000005" transform="translate(0,0)"/>
<path d="" fill="#000005" transform="translate(0,0)"/>
<path d="" fill="#000005" transform="translate(0,0)"/>
<path d="" fill="#000005" transform="translate(0,0)"/>
<path d="" fill="#838085" transform="translate(0,0)"/>
<path d="" fill="#000005" transform="translate(0,0)"/>
<path d="" fill="#FCFDFF" transform="translate(0,0)"/>
<path d="" fill="#FCFDFF" transform="translate(0,0)"/>
<path d="" fill="#000005" transform="translate(0,0)"/>
<path d="" fill="#000005" transform="translate(0,0)"/>
<path d="" fill="#FCFDFF" transform="translate(0,0)"/>
<path d="" fill="#000005" transform="translate(0,0)"/>
<path d="" fill="#FCFDFF" transform="translate(0,0)"/>
<path d="" fill="#000005" transform="translate(0,0)"/>
<path d="" fill="#FCFDFF" transform="translate(0,0)"/>
<path d="" fill="#FCFDFF" transform="translate(0,0)"/>
<path d="" fill="#000005" transform="translate(0,0)"/>
<path d="" fill="#000005" transform="translate(0,0)"/>
<path d="" fill="#000005" transform="translate(0,0)"/>
<path d="" fill="#FCFDFF" transform="translate(0,0)"/>
<path d="" fill="#000005" transform="translate(0,0)"/>
<path d="" fill="#FCFDFF" transform="translate(0,0)"/>
<path d="" fill="#838085" transform="translate(0,0)"/>
<path d="" fill="#000005" transform="translate(0,0)"/>
<path d="" fill="#000005" transform="translate(0,0)"/>
<path d="" fill="#000005" transform="translate(0,0)"/>
<path d="" fill="#000005" transform="translate(0,0)"/>
<path d="" fill="#000005" transform="translate(0,0)"/>
<path d="" fill="#000005" transform="translate(0,0)"/>
<path d="" fill="#000005" transform="translate(0,0)"/>
<path d="" fill="#000005" transform="translate(0,0)"/>
<path d="" fill="#000005" transform="translate(0,0)"/>
<path d="" fill="#FCFDFF" transform="translate(0,0)"/>
<path d="" fill="#FCFDFF" transform="translate(0,0)"/>
<path d="" fill="#000005" transform="translate(0,0)"/>
<path d="" fill="#FCFDFF" transform="translate(0,0)"/>
<path d="" fill="#FCFDFF" transform="translate(0,0)"/>
<path d="" fill="#000005" transform="translate(0,0)"/>
<path d="" fill="#000005" transform="translate(0,0)"/>
<path d="" fill="#FCFDFF" transform="translate(0,0)"/>
<path d="" fill="#000005" transform="translate(0,0)"/>
<path d="" fill="#FCFDFF" transform="translate(0,0)"/>
<path d="" fill="#000005" transform="translate(0,0)"/>
<path d="" fill="#000005" transform="translate(0,0)"/>
<path d="" fill="#FCFDFF" transform="translate(0,0)"/>
<path d="" fill="#FCFDFF" transform="translate(0,0)"/>
<path d="" fill="#000005" transform="translate(0,0)"/>
<path d="" fill="#000005" transform="translate(0,0)"/>
<path d="" fill="#FCFDFF" transform="translate(0,0)"/>
<path d="" fill="#000005" transform="translate(0,0)"/>
<path d="" fill="#000005" transform="translate(0,0)"/>
<path d="" fill="#FCFDFF" transform="translate(0,0)"/>
<path d="" fill="#000005" transform="translate(0,0)"/>
</svg>
