<svg xmlns="http://www.w3.org/2000/svg" width="55.391" height="60.672" viewBox="0 0 55.391 60.672"><g transform="translate(-22.282)"><g transform="translate(32.364)"><g transform="translate(0)"><path d="M152.288,36.8,134.613,20.684l2.855-2.855a1.183,1.183,0,0,0,1.507-.139l3.215-3.215a1.185,1.185,0,0,0,0-1.676L129.738.347a1.185,1.185,0,0,0-1.676,0l-3.215,3.215a1.185,1.185,0,0,0-.139,1.507L112.436,17.341a1.185,1.185,0,0,0-1.507.139L107.713,20.7a1.185,1.185,0,0,0,0,1.676l12.452,12.452a1.185,1.185,0,0,0,1.676,0l3.215-3.215A1.185,1.185,0,0,0,125.2,30.1l2.855-2.854,16.111,17.676a1.185,1.185,0,0,0,.848.386h.027a1.185,1.185,0,0,0,.838-.347l6.453-6.453a1.185,1.185,0,0,0-.04-1.714ZM128.9,2.861l10.776,10.776-1.539,1.539L127.36,4.4ZM121,32.309,110.227,21.533l1.539-1.539L122.543,30.77Zm2.532-3.9L114.126,19,126.368,6.76l9.408,9.408Zm21.543,14L129.728,25.569l3.207-3.207,16.84,15.349Z" transform="translate(-107.366)" fill="#ffa200"/></g></g><g transform="translate(22.282 45.031)"><g transform="translate(0)"><path d="M65.364,386.259V384.7a4.7,4.7,0,0,0-4.7-4.7H31.449a4.7,4.7,0,0,0-4.7,4.7v1.555a4.7,4.7,0,0,0,.228,9.389H65.137a4.7,4.7,0,0,0,.228-9.389Zm-.228,7.019H26.979a2.327,2.327,0,1,1,0-4.654h26.5a1.185,1.185,0,1,0,0-2.37H29.122V384.7a2.33,2.33,0,0,1,2.327-2.327H60.667a2.33,2.33,0,0,1,2.327,2.327v2.735a1.185,1.185,0,0,0,1.185,1.185h.957a2.327,2.327,0,1,1,0,4.654Z" transform="translate(-22.282 -380.007)" fill="#ffa200"/></g></g><g transform="translate(56.93 51.898)"><g transform="translate(0)"><path d="M317.016,438.907a1.2,1.2,0,0,0-.176-.427,1.125,1.125,0,0,0-.147-.18,1.139,1.139,0,0,0-.18-.147,1.17,1.17,0,0,0-.205-.109,1.2,1.2,0,0,0-.222-.068,1.173,1.173,0,0,0-.463,0,1.257,1.257,0,0,0-.222.068,1.2,1.2,0,0,0-.2.109,1.129,1.129,0,0,0-.18.147,1.19,1.19,0,0,0-.325,1.07,1.26,1.26,0,0,0,.068.221,1.2,1.2,0,0,0,.109.2,1.189,1.189,0,0,0,.532.437,1.256,1.256,0,0,0,.222.068,1.2,1.2,0,0,0,.463,0,1.2,1.2,0,0,0,.222-.068,1.175,1.175,0,0,0,.2-.109,1.2,1.2,0,0,0,.18-.148,1.126,1.126,0,0,0,.147-.18,1.2,1.2,0,0,0,.109-.2,1.247,1.247,0,0,0,.068-.221,1.143,1.143,0,0,0,0-.463Z" transform="translate(-314.67 -437.954)" fill="#ffa200"/></g></g><g transform="translate(44.873 36.471)"><path d="M214.108,307.772a1.185,1.185,0,0,0-1.185,1.185v2.3a1.185,1.185,0,1,0,2.37,0v-2.3A1.185,1.185,0,0,0,214.108,307.772Z" transform="translate(-212.923 -307.772)" fill="#ffa200"/></g><g transform="translate(35.22 38.34)"><g transform="translate(0)"><path d="M135.6,326.01l-2.118-2.118a1.185,1.185,0,0,0-1.676,1.676l2.118,2.118a1.185,1.185,0,0,0,1.676-1.676Z" transform="translate(-131.461 -323.545)" fill="#ffa200"/></g></g><g transform="translate(52.408 38.34)"><g transform="translate(0)"><path d="M280.653,323.892a1.185,1.185,0,0,0-1.676,0l-2.118,2.118a1.185,1.185,0,1,0,1.676,1.676l2.118-2.118A1.185,1.185,0,0,0,280.653,323.892Z" transform="translate(-276.512 -323.545)" fill="#ffa200"/></g></g></g></svg>