<svg xmlns="http://www.w3.org/2000/svg" width="14" height="16" viewBox="0 0 14 16"><path d="M-2.375-5A.376.376,0,0,0-2-5.375v-1.25A.376.376,0,0,0-2.375-7h-1.25A.376.376,0,0,0-4-6.625v1.25A.376.376,0,0,0-3.625-5ZM1-5.375v-1.25A.376.376,0,0,0,.625-7H-.625A.376.376,0,0,0-1-6.625v1.25A.376.376,0,0,0-.625-5H.625A.376.376,0,0,0,1-5.375Zm3,0v-1.25A.376.376,0,0,0,3.625-7H2.375A.376.376,0,0,0,2-6.625v1.25A.376.376,0,0,0,2.375-5h1.25A.376.376,0,0,0,4-5.375Zm-3,3v-1.25A.376.376,0,0,0,.625-4H-.625A.376.376,0,0,0-1-3.625v1.25A.376.376,0,0,0-.625-2H.625A.376.376,0,0,0,1-2.375Zm-3,0v-1.25A.376.376,0,0,0-2.375-4h-1.25A.376.376,0,0,0-4-3.625v1.25A.376.376,0,0,0-3.625-2h1.25A.376.376,0,0,0-2-2.375Zm6,0v-1.25A.376.376,0,0,0,3.625-4H2.375A.376.376,0,0,0,2-3.625v1.25A.376.376,0,0,0,2.375-2h1.25A.376.376,0,0,0,4-2.375ZM7-10.5A1.5,1.5,0,0,0,5.5-12H4v-1.625A.376.376,0,0,0,3.625-14H2.375A.376.376,0,0,0,2-13.625V-12H-2v-1.625A.376.376,0,0,0-2.375-14h-1.25A.376.376,0,0,0-4-13.625V-12H-5.5A1.5,1.5,0,0,0-7-10.5V.5A1.5,1.5,0,0,0-5.5,2h11A1.5,1.5,0,0,0,7,.5ZM5.5.313A.188.188,0,0,1,5.313.5H-5.312A.188.188,0,0,1-5.5.313V-9h11Z" transform="translate(7 14)" fill="#ffa200"/></svg>