<svg xmlns="http://www.w3.org/2000/svg" width="19.998" height="15.946" viewBox="0 0 19.998 15.946"><path d="M6-8.031a2.776,2.776,0,0,0,.991,0l.256.447a.386.386,0,0,0,.472.169,3.5,3.5,0,0,0,1-.581.384.384,0,0,0,.087-.491l-.256-.447a2.7,2.7,0,0,0,.5-.856h.516a.389.389,0,0,0,.381-.325,3.521,3.521,0,0,0,0-1.159.386.386,0,0,0-.381-.322H9.053a2.7,2.7,0,0,0-.5-.856l.256-.447a.388.388,0,0,0-.087-.491,3.452,3.452,0,0,0-1-.581.386.386,0,0,0-.472.169l-.256.447a2.778,2.778,0,0,0-.991,0L5.747-13.8a.386.386,0,0,0-.472-.169,3.494,3.494,0,0,0-1,.581.384.384,0,0,0-.087.491l.256.447a2.7,2.7,0,0,0-.5.856H3.428a.389.389,0,0,0-.381.325,3.521,3.521,0,0,0,0,1.159.386.386,0,0,0,.381.322h.516a2.7,2.7,0,0,0,.5.856l-.256.447A.388.388,0,0,0,4.272-8a3.453,3.453,0,0,0,1,.581.386.386,0,0,0,.472-.169ZM5.675-9.869a1.167,1.167,0,0,1,1.65-1.65A1.167,1.167,0,0,1,5.675-9.869Zm-3.6,4.809a5.43,5.43,0,0,0,0-1.984l1.053-.525a.747.747,0,0,0,.313-.909,7.328,7.328,0,0,0-1.316-2.056.748.748,0,0,0-.947-.166l-.909.525a5.427,5.427,0,0,0-1.716-.991v-1.05a.751.751,0,0,0-.625-.737,7.128,7.128,0,0,0-2.375,0,.744.744,0,0,0-.612.734v1.053a5.369,5.369,0,0,0-1.716.991l-.909-.525a.747.747,0,0,0-.947.166A7.337,7.337,0,0,0-9.953-8.475a.745.745,0,0,0,.328.906l1.041.528a5.414,5.414,0,0,0,0,1.981l-1.041.525a.754.754,0,0,0-.328.909A7.367,7.367,0,0,0-8.634-1.572a.748.748,0,0,0,.947.166l.909-.522a5.427,5.427,0,0,0,1.716.991V.112A.751.751,0,0,0-4.437.85a7.028,7.028,0,0,0,2.372,0A.748.748,0,0,0-1.45.112V-.937A5.368,5.368,0,0,0,.266-1.928l.909.525a.747.747,0,0,0,.947-.166A7.378,7.378,0,0,0,3.453-3.625a.751.751,0,0,0-.328-.909ZM-1.6-4.4a2.337,2.337,0,0,1-3.3-3.3A2.337,2.337,0,0,1-1.6-4.4ZM6,1.309a2.778,2.778,0,0,0,.991,0l.256.447a.386.386,0,0,0,.472.169,3.494,3.494,0,0,0,1-.581A.384.384,0,0,0,8.813.853L8.556.406a2.7,2.7,0,0,0,.5-.856h.516A.389.389,0,0,0,9.95-.775a3.521,3.521,0,0,0,0-1.159.386.386,0,0,0-.381-.322H9.053a2.7,2.7,0,0,0-.5-.856l.256-.447a.388.388,0,0,0-.087-.491,3.453,3.453,0,0,0-1-.581.386.386,0,0,0-.472.169l-.256.447a2.776,2.776,0,0,0-.991,0l-.256-.447a.386.386,0,0,0-.472-.169,3.494,3.494,0,0,0-1,.581.384.384,0,0,0-.087.491l.256.447a2.7,2.7,0,0,0-.5.856H3.428a.389.389,0,0,0-.381.325,3.521,3.521,0,0,0,0,1.159.386.386,0,0,0,.381.322h.516a2.7,2.7,0,0,0,.5.856L4.184.853a.388.388,0,0,0,.087.491,3.452,3.452,0,0,0,1,.581.386.386,0,0,0,.472-.169ZM5.675-.531a1.167,1.167,0,0,1,1.65-1.65A1.167,1.167,0,0,1,5.675-.531Z" transform="translate(10 13.997)" fill="#ffa200"/></svg>