<svg xmlns="http://www.w3.org/2000/svg" width="45.818" height="61.085" viewBox="0 0 45.818 61.085"><g transform="translate(-0.25)"><path d="M854,233.247h7.184L854,226.063Zm0,0" transform="translate(-823.208 -217.976)" fill="#ffa200"/><path d="M28.611,192.762v-9.817H.25v54.54H39.519V193.853H29.7A1.09,1.09,0,0,1,28.611,192.762ZM6.795,189.49h8.726v2.182H6.795Zm0,13.09H24.248v2.182H6.795Zm0,13.09H14.43v2.182H6.795Zm4.363,15.271H6.795v-2.182h4.363Zm21.816,0H13.34v-2.182H32.974Zm0-6.545H6.795v-2.182H32.974Zm0-6.545H16.612v-2.182H32.974Zm0-6.545H6.795v-2.182H32.974Zm0-6.545H26.429v-2.182h6.545Zm0-6.545H6.795v-2.182H32.974Zm0,0" transform="translate(0 -176.4)" fill="#ffa200"/><path d="M183.2,0V4.363H206.1c.023,0,.045.012.068.013a1.044,1.044,0,0,1,.282.057,1.006,1.006,0,0,1,.1.036,1.055,1.055,0,0,1,.321.218L217.781,15.6a1.078,1.078,0,0,1,.218.32.911.911,0,0,1,.036.1,1.048,1.048,0,0,1,.056.28c0,.024.014.045.014.068V54.54h4.363V0Zm0,0" transform="translate(-176.4)" fill="#ffa200"/></g></svg>