<svg xmlns="http://www.w3.org/2000/svg" width="45.774" height="59.384" viewBox="0 0 45.774 59.384"><g transform="translate(-221.914 -321.89)"><path d="M247.475,321.89c1.2.764.932,1.982.883,3.082a1.5,1.5,0,0,0,1.318,1.834,64.267,64.267,0,0,1,6.055,2.4c.322-.429.842-1.215,1.459-1.915a1.486,1.486,0,0,1,2.435-.044c.873.876,1.741,1.756,2.626,2.62a1.539,1.539,0,0,1-.053,2.548c-.66.59-1.379,1.114-1.772,1.429.961,2.537,1.7,4.617,2.56,6.645a1.531,1.531,0,0,0,1.221.647c4.027-.164,3.448.752,3.458,3.6,0,.247,0,.495,0,.742,0,2.7-.144,2.94-2.848,2.8-1.378-.069-1.814.44-2.184,1.67a55.067,55.067,0,0,1-2.077,5.134,27.222,27.222,0,0,1,2.258,3.414c.158.322-.617,1.1-.881,1.532l-8.442-3.151c4.44-3.717,6.631-8.206,6.034-13.79a14.308,14.308,0,0,0-5.414-9.881,14.778,14.778,0,0,0-20.247,1.533c-5.822,6.3-5.106,14.415,2.131,22.172l-8.146,3.048c-1.539-1.139-1.617-1.763-.115-3.22a11.049,11.049,0,0,1,1.468-1.093c-.971-2.519-1.7-4.551-2.562-6.527a1.634,1.634,0,0,0-1.268-.764c-4,.142-3.427-.739-3.433-3.628q0-.371,0-.742c0-2.71.112-2.871,2.858-2.8,1.2.032,1.786-.22,2.136-1.532a51.14,51.14,0,0,1,2.307-5.764c-.464-.371-1.183-.9-1.843-1.485a1.538,1.538,0,0,1-.047-2.548c.849-.829,1.7-1.662,2.516-2.519a1.591,1.591,0,0,1,2.66.045c.562.623,1.094,1.272,1.456,1.7,2.437-.918,4.561-1.67,6.632-2.546.325-.137.521-.821.586-1.279.167-1.17-.394-2.521.928-3.373Z" transform="translate(0)" fill="#ffa200"/><path d="M234,467.11c.391-4.328.765-8.658,1.179-12.984.37-3.866,2.151-6.5,6.141-7.563a49.037,49.037,0,0,0,6.231-2.587l1.143,7.134,1.785-2.366c1.714.826,1.951,2.107,1.845,3.73-.27,4.141-.377,8.293-.567,12.439-.034.734-.157,1.465-.239,2.2Z" transform="translate(-8.497 -85.836)" fill="#ffa200"/><path d="M303.038,467.3c-.252-4.784-.443-9.573-.791-14.35-.12-1.653-.053-3.057,1.779-4.01l1.834,2.35c.385-2.44.768-4.871,1.11-7.045,2.848,1.127,5.624,2.147,8.332,3.321,2.844,1.233,3.739,3.813,4.043,6.609.473,4.368.814,8.75,1.211,13.126Z" transform="translate(-56.454 -86.023)" fill="#ffa200"/><path d="M279.3,391.185a30.966,30.966,0,0,0-2.58-1.948,3.409,3.409,0,0,1-1.85-3.682,3.107,3.107,0,0,0-.392-1.354c-.824-2.136-1.739-4.241-2.45-6.413a3.583,3.583,0,0,1,.423-2.239,12.217,12.217,0,0,1-.8-7.112c1.35-.81,2.453-1.354,3.423-2.076a7.209,7.209,0,0,1,6.954-1.36,3.711,3.711,0,0,1,2.584,2.444,1.639,1.639,0,0,0,.385.744c.555.479,1.551.809,1.672,1.355a15.747,15.747,0,0,1,.2,4.071,6.319,6.319,0,0,1-.683,1.815,4.5,4.5,0,0,1-.548,5.268c-.147.126-.433.179-.478.322a24.045,24.045,0,0,0-1.378,4.829,3.718,3.718,0,0,1-1.668,3.2c-.95.612-1.809,1.363-2.813,2.134" transform="translate(-34.822 -30.04)" fill="#ffa200"/></g></svg>