<svg xmlns="http://www.w3.org/2000/svg" width="16" height="16" viewBox="0 0 16 16"><path d="M2.5,0h-10A.5.5,0,0,0-8,.5v1a.5.5,0,0,0,.5.5h10A.5.5,0,0,0,3,1.5V.5A.5.5,0,0,0,2.5,0ZM7.413-10.647,4.881-13.178a.5.5,0,0,0-.706,0l-.353.353a.5.5,0,0,0,0,.706L5-10.941V-9A1.747,1.747,0,0,0,6.5-7.275V-2.25a.752.752,0,0,1-.75.75A.752.752,0,0,1,5-2.25v-1A2.75,2.75,0,0,0,2.25-6H2v-6a2,2,0,0,0-2-2H-5a2,2,0,0,0-2,2V-1H2V-4.5h.25A1.25,1.25,0,0,1,3.5-3.25v.869A2.343,2.343,0,0,0,5.516-.009,2.256,2.256,0,0,0,8-2.25V-9.231A2,2,0,0,0,7.413-10.647ZM0-8H-5v-4H0Z" transform="translate(8 14)" fill="#ffa200"/></svg>