<svg xmlns="http://www.w3.org/2000/svg" width="42.916" height="61.279" viewBox="0 0 42.916 61.279"><g transform="translate(0.002 4.51)"><path d="M85.486,61.506a2.546,2.546,0,0,1-.826,1.875,14.951,14.951,0,0,0,2.774-.426l-1.623,2.4,5.228,3.541a2.548,2.548,0,0,1-.14-.781c0-.079,0-.157.006-.235l-4.031-2.73,4.582-6.764,4,2.708q.181-.349.34-.7l-1.332-.9c.028-.055.054-.112.083-.167-.01-.246-.013-.491-.018-.737a16.939,16.939,0,0,0,1.223-1.54c.145.833.276,1.689.38,2.555a11.152,11.152,0,0,0,.793-3.96,7.472,7.472,0,0,0-.6-3.072c-.048-.1-.081-.165-.094-.187a2.553,2.553,0,0,1,4.351-2.673,11.614,11.614,0,0,1,1.454,5.935,17.005,17.005,0,0,1-2.316,8.328l.3.207-4.581,6.764-.87-.59a2.533,2.533,0,0,1-1,.251l1.049.711a41.368,41.368,0,0,0-.739,7.723,38.429,38.429,0,0,0,2.38,13.4,3.192,3.192,0,1,0,5.986-2.217,32.052,32.052,0,0,1-1.983-11.182,34.65,34.65,0,0,1,1.16-8.862c.1-.374.2-.717.3-1.033,1.612-.409,3.072-1.5,3.612-4.277a28.209,28.209,0,0,0-1.451-14.175c-1.286-3.739-4.445-4.922-6.625-4.379a3.469,3.469,0,0,0-2.315,2.374,31.858,31.858,0,0,0-1.52,4.359,14.667,14.667,0,0,1-.855,1.426,11.463,11.463,0,0,1-3.413,3.371,10.008,10.008,0,0,1-4.927,1.463A2.552,2.552,0,0,1,85.486,61.506Z" transform="translate(-62.722 -37.755)" fill="#ffa200"/><ellipse cx="5.743" cy="5.743" rx="5.743" ry="5.743" transform="translate(23.543 -1.905) rotate(-13.109)" fill="#ffa200"/><rect width="4.905" height="0.51" transform="translate(26.496 27.102) rotate(-55.07)" fill="#ffa200"/><rect width="4.905" height="0.511" transform="translate(28.282 28.317) rotate(-55.062)" fill="#ffa200"/><path d="M122.476,63.914a11.157,11.157,0,0,0-1.376-5.665,2.043,2.043,0,0,0-3.472,2.153v0c.014.025.053.1.111.221a7.958,7.958,0,0,1,.651,3.289c-.016,2.489-.908,6.24-5.454,11a2.043,2.043,0,1,0,2.946,2.83C121.023,72.417,122.492,67.488,122.476,63.914Z" transform="translate(-83.679 -46.022)" fill="#ffa200"/><ellipse cx="5.743" cy="5.743" rx="5.743" ry="5.743" transform="translate(5.578 6.676) rotate(-76.891)" fill="#ffa200"/><path d="M3.915,69.144a34.44,34.44,0,0,1,1.456,9.9A32.1,32.1,0,0,1,3.389,90.222a3.191,3.191,0,1,0,5.986,2.216,38.476,38.476,0,0,0,2.38-13.4A40.076,40.076,0,0,0,9.433,65.524a21.864,21.864,0,0,1-.054-4.664,13.219,13.219,0,0,1-2.951-3.168,13.977,13.977,0,0,1-2.261-6.45l0-.037A2.561,2.561,0,0,1,6.6,48.515l.117,0a2.549,2.549,0,0,1,2.549,2.437c0,.01,0,.045.009.1.012.11.035.287.077.515a8.847,8.847,0,0,0,1.043,2.824c.138-.684.273-1.338.391-1.944.732-2.541-.226-5.582-2.405-6.126s-5.339.64-6.625,4.379A28.209,28.209,0,0,0,.3,64.866C.844,67.642,2.3,68.735,3.915,69.144Z" transform="translate(0 -37.754)" fill="#ffa200"/><path d="M22.478,59.922c-.045-.242-.07-.431-.083-.551-.006-.059-.01-.1-.011-.124v-.005a2.042,2.042,0,1,0-4.08.185h0a13.343,13.343,0,0,0,2.182,6.255,12.75,12.75,0,0,0,4.733,4.268,17.886,17.886,0,0,0,8.451,1.868h.173a2.042,2.042,0,0,0,0-4.085h-.157a13.845,13.845,0,0,1-6.56-1.4,8.735,8.735,0,0,1-4.066-4.483A9.822,9.822,0,0,1,22.478,59.922Z" transform="translate(-13.629 -46.023)" fill="#ffa200"/></g></svg>