<svg xmlns="http://www.w3.org/2000/svg" width="59.967" height="53.301" viewBox="0 0 59.967 53.301"><path d="M28.217-39.229l5.653,1.488a.9.9,0,0,1,.688.843.917.917,0,0,1-.946.874H29.9a3.121,3.121,0,0,1-1.165-.229,1.491,1.491,0,0,0-1.593.208l-1.977,1.822a1.21,1.21,0,0,0-.236.277,1.182,1.182,0,0,0-.172.617,1.188,1.188,0,0,0,.577,1.021,8.751,8.751,0,0,0,3.593,1.2v1.842A1.748,1.748,0,0,0,30.733-27.6h1.805a1.748,1.748,0,0,0,1.805-1.666V-31.1a5.98,5.98,0,0,0,5.57-6.558,6.313,6.313,0,0,0-4.839-4.965l-5.65-1.489a.9.9,0,0,1-.688-.843.917.917,0,0,1,.946-.874h3.706a3.122,3.122,0,0,1,1.169.229,1.491,1.491,0,0,0,1.593-.208l1.977-1.822a1.168,1.168,0,0,0,.226-.271,1.183,1.183,0,0,0,.172-.622,1.189,1.189,0,0,0-.575-1.02,8.756,8.756,0,0,0-3.593-1.2v-1.845a1.747,1.747,0,0,0-1.805-1.665H30.746a1.747,1.747,0,0,0-1.805,1.665v1.832A5.981,5.981,0,0,0,23.371-44.2,6.318,6.318,0,0,0,28.217-39.229ZM58.844-20.1a3.445,3.445,0,0,0-4.435,0L44.788-12.4a6.6,6.6,0,0,1-4.141,1.455H28.314a1.666,1.666,0,0,1-1.665-1.663,1.666,1.666,0,0,1,1.665-1.666h8.15a3.455,3.455,0,0,0,3.461-2.769,3.266,3.266,0,0,0,.048-.559v-.009a3.333,3.333,0,0,0-3.33-3.325H19.987A12.221,12.221,0,0,0,12.273-18.2L7.433-14.276H1.665A1.666,1.666,0,0,0,0-12.61v9.993A1.666,1.666,0,0,0,1.665-.952H38.81a6.647,6.647,0,0,0,4.158-1.461L58.714-15.007a3.326,3.326,0,0,0,1.253-2.6A3.321,3.321,0,0,0,58.849-20.1Z" transform="translate(0 54.252)" fill="#ffa200"/></svg>