<svg xmlns="http://www.w3.org/2000/svg" width="55.654" height="60.941" viewBox="0 0 55.654 60.941"><g transform="translate(-3.04 0)"><path d="M56.416,51.894a4.6,4.6,0,0,0-3.815-.388L44.57,46.759a2.659,2.659,0,0,1,1.686-2.2,1.8,1.8,0,0,0,.676-3.128,2.69,2.69,0,0,1,.193-3.933,1.792,1.792,0,0,0-.381-3.174,2.688,2.688,0,0,1-1.095-3.783,1.793,1.793,0,0,0-1.383-2.88A2.689,2.689,0,0,1,42,24.443a1.794,1.794,0,0,0-2.245-2.278,2.691,2.691,0,0,1-3.19-2.31A1.793,1.793,0,0,0,33.7,18.431a2.686,2.686,0,0,1-3.762-1.151,1.791,1.791,0,0,0-3.171-.415,2.686,2.686,0,0,1-3.936.129,1.8,1.8,0,0,0-3.136.637,2.689,2.689,0,0,1-3.675,1.411,1.793,1.793,0,0,0-2.76,1.615,2.683,2.683,0,0,1-3.025,2.521A1.792,1.792,0,0,0,8.158,25.6a2.688,2.688,0,0,1-2.041,3.37,1.8,1.8,0,0,0-1.184,2.972A2.684,2.684,0,0,1,4.1,35.793a1.8,1.8,0,0,0-.151,3.2A2.676,2.676,0,0,1,4.4,42.9a1.8,1.8,0,0,0,.9,3.072A2.683,2.683,0,0,1,7,49.516a1.8,1.8,0,0,0,1.843,2.618,2.687,2.687,0,0,1,2.766,2.805A1.792,1.792,0,0,0,14.2,56.812a2.691,2.691,0,0,1,3.526,1.756,1.792,1.792,0,0,0,3.058.93,2.689,2.689,0,0,1,3.9.518,1.8,1.8,0,0,0,3.2-.109,2.69,2.69,0,0,1,3.862-.784,1.8,1.8,0,0,0,2.987-1.142,2.684,2.684,0,0,1,3.392-1.988,1.8,1.8,0,0,0,2.459-2.049,2.691,2.691,0,0,1,.669-2.094l8.261,4.879a4.634,4.634,0,1,0,6.906-4.836Zm-18.725-9.2-5.974-3.532a5.726,5.726,0,0,0-8.868-4.682l3.3,1.952a2.555,2.555,0,0,1-2.6,4.4l-3.3-1.952a5.726,5.726,0,0,0,8.379,5.511L34.393,47.8a13,13,0,1,1,3.3-5.1Zm2.89,1.7-1.206-.714A15,15,0,1,0,36.1,48.8l1.224.72A16.292,16.292,0,1,1,40.581,44.4ZM56.156,57.133l-2.132,1.2-2.1-1.24.026-2.444,2.13-1.2,2.1,1.237ZM36.175,13.5l1.081.68a4.1,4.1,0,0,1,1.7,2.962l.048,1.277a1.544,1.544,0,0,0,1.953,1.5l1.249-.284a4.1,4.1,0,0,1,3.3.888l.938.871a1.545,1.545,0,0,0,2.444-.319L49.572,20a4.091,4.091,0,0,1,2.961-1.7l1.278-.047a1.548,1.548,0,0,0,1.5-1.954l-.29-1.248a4.093,4.093,0,0,1,.89-3.3l.871-.939a1.545,1.545,0,0,0-.319-2.445l-1.084-.68a4.124,4.124,0,0,1-1.7-2.962l-.044-1.278a1.545,1.545,0,0,0-1.953-1.5l-1.251.282a4.1,4.1,0,0,1-3.3-.887L46.2.461a1.546,1.546,0,0,0-2.445.318L43.07,1.863a4.1,4.1,0,0,1-2.961,1.7l-1.277.047a1.544,1.544,0,0,0-1.5,1.955l.282,1.247a4.092,4.092,0,0,1-.887,3.3l-.871.938A1.553,1.553,0,0,0,36.175,13.5ZM46.322,5.689a5.245,5.245,0,1,1-5.245,5.245A5.243,5.243,0,0,1,46.322,5.689Z" transform="translate(0 0)" fill="#ffa200"/></g></svg>