<svg xmlns="http://www.w3.org/2000/svg" width="18" height="12" viewBox="0 0 18 12"><path d="M8.912-1.417l-4.368-10A.951.951,0,0,0,3.677-12H.628l.077.724A.25.25,0,0,1,.456-11H-.456A.25.25,0,0,1-.7-11.276L-.628-12h-3.05a.951.951,0,0,0-.867.583l-4.368,10A1,1,0,0,0-8.046,0h6.151l.322-3.052a.5.5,0,0,1,.5-.448h2.15a.5.5,0,0,1,.5.448L1.894,0H8.046A1,1,0,0,0,8.912-1.417ZM-.862-9.776A.25.25,0,0,1-.614-10H.614a.25.25,0,0,1,.249.224l.144,1.362A.375.375,0,0,1,.634-8H-.633a.375.375,0,0,1-.373-.414ZM.864-4.5H-.864a.5.5,0,0,1-.5-.552l.158-1.5A.5.5,0,0,1-.706-7H.705a.5.5,0,0,1,.5.448l.158,1.5A.5.5,0,0,1,.864-4.5Z" transform="translate(9 12)" fill="#ffa200"/></svg>