<svg xmlns="http://www.w3.org/2000/svg" width="60.631" height="60.628" viewBox="0 0 60.631 60.628"><path d="M25.483,0A25.483,25.483,0,1,0,50.965,25.483,25.506,25.506,0,0,0,25.483,0Zm0,46.466A20.983,20.983,0,1,1,46.466,25.483,21.008,21.008,0,0,1,25.483,46.466Z" fill="#ffa200"/><g transform="translate(39.651 39.651)"><path d="M355.164,351.99l-16.483-16.483a2.244,2.244,0,1,0-3.173,3.173l16.483,16.483a2.23,2.23,0,0,0,3.173,0A2.223,2.223,0,0,0,355.164,351.99Z" transform="translate(-334.85 -334.85)" fill="#ffa200"/></g><path d="M108.5,185.327h-4.358L102.3,179.3H81.7l-1.835,6.027H75.4V191.2h2.676l-.663,2.013v8.5h2.475v2.321h6.5v-2.321H97.52v2.321h6.5v-2.321H106.5v-8.5l-.557-2.013h2.57v-5.873Zm-23.718-3.245H99.225l2.345,8.5H82.434Zm2.38,15.157H81.285v-3.091h5.873Zm15.465,0H96.6v-3.091h6.027Z" transform="translate(-66.472 -158.068)" fill="#ffa200"/></svg>