<svg xmlns="http://www.w3.org/2000/svg" width="14.838" height="15.5" viewBox="0 0 14.838 15.5"><path d="M15.231-4.134,13.9-4.9a6.02,6.02,0,0,0,0-2.194l1.331-.769A.378.378,0,0,0,15.4-8.3a7.783,7.783,0,0,0-1.709-2.956.376.376,0,0,0-.462-.072l-1.331.769a5.9,5.9,0,0,0-1.9-1.1v-1.534a.374.374,0,0,0-.294-.366,7.856,7.856,0,0,0-3.412,0A.374.374,0,0,0,6-13.194v1.538a6.084,6.084,0,0,0-1.9,1.1l-1.328-.769a.371.371,0,0,0-.462.072A7.736,7.736,0,0,0,.6-8.3a.374.374,0,0,0,.172.438L2.1-7.094A6.02,6.02,0,0,0,2.1-4.9L.772-4.131A.378.378,0,0,0,.6-3.694,7.783,7.783,0,0,0,2.309-.737a.376.376,0,0,0,.462.072L4.1-1.434A5.9,5.9,0,0,0,6-.337V1.2a.374.374,0,0,0,.294.366,7.856,7.856,0,0,0,3.413,0A.374.374,0,0,0,10,1.2V-.337a6.084,6.084,0,0,0,1.9-1.1l1.331.769A.371.371,0,0,0,13.7-.737a7.736,7.736,0,0,0,1.709-2.956A.386.386,0,0,0,15.231-4.134ZM8-3.5A2.5,2.5,0,0,1,5.5-6,2.5,2.5,0,0,1,8-8.5,2.5,2.5,0,0,1,10.5-6,2.5,2.5,0,0,1,8-3.5Z" transform="translate(-0.583 13.747)" fill="#ffa200"/></svg>