<svg xmlns="http://www.w3.org/2000/svg" width="64.799" height="59.97" viewBox="0 0 64.799 59.97"><g transform="translate(0 -4)"><path d="M29.343,14.087,18.034,22.278V13.17h2.751V9.135h4.585V5.651C25.369,4.734,28.548,4,32.4,4c3.912,0,7.03.734,7.03,1.651V9.135h4.585V13.17H46.7v9.109L35.517,14.087A5.655,5.655,0,0,0,29.343,14.087ZM13.51,32.609a5.516,5.516,0,0,1,1.9-5.869l2.629-1.9,11.309-8.192a5.028,5.028,0,0,1,2.262-.795V43.124a.795.795,0,1,0,1.589,0V15.8a5.247,5.247,0,0,1,2.262.795l11.309,8.192,2.629,1.9a5.516,5.516,0,0,1,1.9,5.869l-6.48,16.505a3.64,3.64,0,0,1-1.651.367c-2.2-.061-3.607-1.284-4.768-4.1,0-.061-.061-.061-.061-.122a.06.06,0,0,0-.061-.061h0a.544.544,0,0,0-.978,0,.225.225,0,0,0-.061.183c-1.161,2.812-2.629,4.1-4.829,4.1h0c-2.262,0-3.729-1.284-4.89-4.1,0-.061-.061-.061-.061-.122v-.061h0a.544.544,0,0,0-.978,0,.225.225,0,0,0-.061.183c-1.161,2.751-2.568,4.035-4.707,4.1a3.64,3.64,0,0,1-1.651-.367ZM35.7,26.13a1.254,1.254,0,0,0,1.284,1.284,1.284,1.284,0,1,0,0-2.568A1.334,1.334,0,0,0,35.7,26.13Zm-9.047,0a1.284,1.284,0,0,0,2.568,0,1.284,1.284,0,0,0-2.568,0ZM64.8,52.66h-.061V63.97H.061V52.66H0c2.2,0,3.729-1.284,4.89-4.1,0-.061.061-.122.061-.245h0a.623.623,0,0,1,.489-.306.623.623,0,0,1,.489.306h0v.061c0,.061.061.061.061.122,1.161,2.873,2.629,4.1,4.89,4.1h0c2.2,0,3.729-1.284,4.89-4.1,0-.061.061-.122.061-.245h0a.544.544,0,0,1,.978,0h0v.061c0,.061.061.061.061.122,1.161,2.812,2.568,4.035,4.768,4.1,2.14-.061,3.607-1.284,4.707-4.1,0-.061.061-.122.061-.183h0a.544.544,0,0,1,.978,0h0v.061c0,.061.061.061.061.122,1.161,2.873,2.629,4.1,4.89,4.1h0c2.2,0,3.668-1.284,4.829-4.1,0-.061.061-.122.061-.183h0a.544.544,0,0,1,.978,0h0c0,.061,0,.061.061.061,0,.061.061.061.061.122,1.161,2.812,2.568,4.1,4.768,4.1,2.2-.061,3.607-1.284,4.768-4.1,0-.061.061-.122.061-.245h0a.544.544,0,0,1,.978,0h0c0,.061,0,.061.061.061,0,.061,0,.061.061.122,1.161,2.873,2.629,4.1,4.89,4.1h0c2.262,0,3.729-1.284,4.89-4.1,0-.061.061-.122.061-.245h0a.544.544,0,0,1,.978,0h0c0,.061,0,.061.061.061,0,.061,0,.061.061.122C61.131,51.377,62.6,52.66,64.8,52.66Z" fill="#ffa200"/></g></svg>