<?xml version="1.0" encoding="UTF-8"?>
<!-- Generator: visioncortex VTracer 0.6.3 -->
<svg version="1.1" xmlns="http://www.w3.org/2000/svg" width="1280" height="1280">
<path d="M0 0 C4.95 1.94 9.88 3.55 15 5 C20.59 6.75 26.12 8.51 31.44 11 C35.97 13.1 40.63 14.45 45.41 15.87 C49.34 17.11 53.16 18.53 57 20 C62.8 22.22 68.63 24.16 74.59 25.94 C78.6 27.19 82.55 28.58 86.5 30 C93.61 32.54 100.76 34.86 108 37 C109.42 37.43 110.84 37.86 112.27 38.29 C119.48 40.45 126.63 42.43 134 44 C136.93 44.92 139.81 45.93 142.71 46.97 C146.28 48.09 149.82 48.81 153.5 49.5 C158.16 50.37 162.51 51.5 167 53 C169.1 53.33 169.1 53.33 171.12 53.44 C184.89 54.78 196.12 60.34 208 67 C208 67.66 208 68.32 208 69 C208.99 69 209.98 69 211 69 C211 69.66 211 70.32 211 71 C211.84 71.37 211.84 71.37 212.69 71.75 C225.98 78.93 235.21 96.08 239.61 110.13 C243.93 126.72 242.25 145.18 236 161 C243.24 158.31 250.05 155.03 256.9 151.49 C259.34 150.32 261.36 149.49 264 149 C264 148.34 264 147.68 264 147 C265.15 146.37 266.3 145.74 267.48 145.09 C275.83 140.5 284.06 135.8 292.15 130.76 C294.79 129.13 297.44 127.54 300.12 126 C300.81 125.61 301.49 125.22 302.2 124.81 C304 124 304 124 307 124 C307 123.34 307 122.68 307 122 C307.95 121.46 308.91 120.91 309.89 120.36 C311.15 119.63 312.42 118.91 313.69 118.19 C314.63 117.65 314.63 117.65 315.58 117.11 C316.2 116.76 316.82 116.4 317.45 116.04 C318.36 115.53 318.36 115.53 319.29 115 C320.8 114.11 322.29 113.18 323.77 112.24 C326 111 326 111 329 111 C329 110.34 329 109.68 329 109 C329.76 108.64 330.52 108.27 331.31 107.9 C336.99 105.13 342.31 102.24 347.5 98.66 C350.72 96.52 354.03 94.56 357.38 92.62 C357.98 92.27 358.59 91.91 359.22 91.54 C362.03 89.92 363.7 89 367 89 C367 88.34 367 87.68 367 87 C368.65 86.67 370.3 86.34 372 86 C372 85.34 372 84.68 372 84 C372.76 83.64 373.52 83.27 374.31 82.9 C379.12 80.55 383.84 78.24 388.25 75.19 C392.89 71.97 397.76 69.27 402.69 66.55 C408.29 63.43 413.78 60.15 419.22 56.74 C423.67 54 423.67 54 427 54 C427 53.34 427 52.68 427 52 C428.65 51.67 430.3 51.34 432 51 C432 50.34 432 49.68 432 49 C432.77 48.62 433.55 48.25 434.34 47.86 C441.23 44.51 441.23 44.51 447.81 40.62 C453.96 36.65 460.52 33.38 467 30 C468.05 29.45 469.1 28.9 470.18 28.33 C500.95 12.49 537.24 3.31 571.27 12.62 C578.12 14.94 584.57 18.7 591 22 C591 22.66 591 23.32 591 24 C591.9 24.19 591.9 24.19 592.81 24.38 C595 25 595 25 598 27 C598 27.66 598 28.32 598 29 C598.96 29.4 598.96 29.4 599.94 29.81 C602 31 602 31 603 34 C603.66 34 604.32 34 605 34 C606.51 35.68 606.51 35.68 608.12 37.88 C608.66 38.59 609.2 39.31 609.76 40.05 C611 42 611 42 611 44 C611.66 44 612.32 44 613 44 C625.22 69.4 628.69 93.36 619.32 120.62 C618.05 123.87 616.61 126.92 615 130 C614.34 130 613.68 130 613 130 C612.9 130.56 612.79 131.12 612.68 131.7 C611.87 134.42 610.64 136.39 609.06 138.75 C608.54 139.55 608.01 140.35 607.47 141.17 C606.99 141.78 606.5 142.38 606 143 C605.34 143 604.68 143 604 143 C603.63 143.88 603.63 143.88 603.26 144.77 C599.28 151.82 590.26 156.26 583.56 160.5 C582.86 160.95 582.17 161.39 581.45 161.85 C576.37 165 576.37 165 573 165 C573 165.66 573 166.32 573 167 C571.31 168.23 571.31 168.23 568.94 169.61 C568.08 170.12 567.22 170.63 566.33 171.15 C565.42 171.68 564.5 172.21 563.56 172.75 C557.58 176.24 551.72 179.81 545.98 183.7 C543.56 185.29 541.07 186.67 538.5 188 C534.31 190.24 530.39 192.67 526.47 195.34 C523.39 197.41 520.27 199.41 517.12 201.38 C516.03 202.06 514.94 202.75 513.82 203.46 C511 205 511 205 508 205 C508 205.66 508 206.32 508 207 C506.31 208.23 506.31 208.23 503.94 209.61 C503.08 210.12 502.22 210.63 501.33 211.15 C500.42 211.68 499.5 212.21 498.56 212.75 C491.9 216.64 485.39 220.66 479 225 C474.4 228 474.4 228 471 228 C471 228.66 471 229.32 471 230 C468.09 232.04 466.6 233 463 233 C463 233.66 463 234.32 463 235 C462.28 235.39 461.55 235.77 460.8 236.17 C454.5 239.53 454.5 239.53 448.5 243.38 C446 245 446 245 443 245 C443 245.66 443 246.32 443 247 C441.31 248.23 441.31 248.23 438.94 249.61 C438.08 250.12 437.22 250.63 436.33 251.15 C435.42 251.68 434.5 252.21 433.56 252.75 C426.9 256.64 420.39 260.66 414 265 C409.4 268 409.4 268 406 268 C406 268.66 406 269.32 406 270 C403.09 272.04 401.6 273 398 273 C398 273.66 398 274.32 398 275 C397.43 275.29 396.85 275.59 396.26 275.89 C386.5 281.04 377.29 287.05 368 293 C357.08 299.99 357.08 299.99 353.19 302.19 C349.93 303.98 349.93 303.98 346.75 306.25 C344 308 344 308 341 308 C341 308.66 341 309.32 341 310 C338.09 312.04 336.6 313 333 313 C333 313.66 333 314.32 333 315 C327.25 318 327.25 318 325 318 C325 318.66 325 319.32 325 320 C324.34 320.35 323.67 320.7 322.99 321.06 C316.03 324.79 309.37 328.84 302.75 333.12 C296.9 336.9 291.06 340.58 285 344 C283.93 344.74 282.86 345.49 281.75 346.25 C279 348 279 348 276 348 C276 348.66 276 349.32 276 350 C273.09 352.04 271.6 353 268 353 C268 353.66 268 354.32 268 355 C265.09 357.04 263.6 358 260 358 C260 358.66 260 359.32 260 360 C259.37 360.33 258.74 360.66 258.09 361 C252.53 363.95 247.19 367.11 241.94 370.56 C233.86 375.83 225.84 379.85 216.73 383.03 C214.04 383.99 211.4 385.04 208.75 386.12 C202.71 388.55 197 390.16 190.5 390.66 C187.78 390.97 187.78 390.97 184.36 392 C180.08 393.09 176.06 393.29 171.66 393.27 C170.89 393.27 170.13 393.27 169.34 393.27 C167.73 393.27 166.12 393.27 164.51 393.26 C162.07 393.25 159.64 393.26 157.2 393.27 C149.55 393.28 142.42 393.06 135 391 C133.59 390.85 132.17 390.72 130.75 390.62 C125.83 390.14 121.39 388.64 116.7 387.12 C111.68 385.6 106.59 384.44 101.47 383.31 C96.1 382.1 96.1 382.1 95 381 C91.52 380.2 88.02 379.52 84.52 378.82 C81.48 378.11 78.86 377.18 76 376 C73.67 375.65 71.33 375.32 69 375 C65.82 374.18 62.77 373.33 59.75 372.05 C56.45 370.79 53.11 369.95 49.69 369.12 C48.65 368.87 48.65 368.87 47.59 368.61 C45.4 368.07 43.2 367.53 41 367 C38.1 366.3 35.21 365.59 32.31 364.88 C31.32 364.64 31.32 364.64 30.32 364.4 C27.65 363.74 25.09 363.04 22.54 362 C19.15 360.66 15.67 359.92 12.12 359.12 C2.26 356.86 -7.5 354.23 -17.27 351.55 C-19.16 351.04 -21.05 350.52 -22.94 350 C-24.34 349.61 -24.34 349.61 -25.78 349.22 C-32.75 347.31 -39.75 345.54 -46.79 343.86 C-50 343 -50 343 -52.42 342.01 C-55.95 340.63 -59.55 339.88 -63.25 339.06 C-72.37 336.99 -72.37 336.99 -76.5 335.5 C-80.67 334.01 -84.94 333.04 -89.25 332.06 C-96.62 330.39 -103.79 328.28 -111 326 C-118.03 323.84 -124.85 322.99 -132 325 C-132 325.66 -132 326.32 -132 327 C-133.65 327.33 -135.3 327.66 -137 328 C-137 328.66 -137 329.32 -137 330 C-137.84 330.41 -138.69 330.82 -139.55 331.24 C-140.65 331.78 -141.75 332.32 -142.88 332.88 C-143.97 333.41 -145.06 333.94 -146.18 334.49 C-149.04 335.85 -149.04 335.85 -151 338 C-150.66 341.87 -148.38 344.98 -146.44 348.25 C-143.34 353.57 -140.4 358.94 -137.62 364.44 C-137.13 365.41 -137.13 365.41 -136.61 366.41 C-130.66 378.32 -129.85 391.86 -134.06 404.5 C-137.95 413.93 -143.53 422.12 -152 428 C-152.66 428 -153.32 428 -154 428 C-154 428.66 -154 429.32 -154 430 C-156.91 432.04 -158.4 433 -162 433 C-162 433.66 -162 434.32 -162 435 C-162.69 435.33 -163.38 435.66 -164.1 436 C-170.09 438.91 -175.82 442.02 -181.5 445.5 C-186.85 448.77 -192.25 451.68 -197.9 454.39 C-200.91 455.96 -203.75 457.67 -206.62 459.47 C-219.6 467.59 -232.01 469.76 -247.18 467.53 C-253.86 465.94 -259.33 462.79 -265 459 C-265.99 458.34 -266.98 457.68 -268 457 C-268 456.34 -268 455.68 -268 455 C-268.57 454.79 -269.14 454.58 -269.73 454.37 C-280.2 448.06 -287.41 429.32 -292.52 418.83 C-294.34 415.35 -296.48 412.2 -298.8 409.04 C-300.18 406.7 -300.61 404.66 -301 402 C-301.66 402 -302.32 402 -303 402 C-306 396.38 -306 396.38 -306 393 C-306.66 393 -307.32 393 -308 393 C-308.33 392.31 -308.66 391.62 -309 390.9 C-312.25 384.21 -315.81 377.85 -319.68 371.51 C-322.43 366.98 -325.02 362.38 -327.52 357.71 C-329.78 353.58 -332.23 349.56 -334.68 345.53 C-336 343 -336 343 -336 340 C-336.66 340 -337.32 340 -338 340 C-338.33 339.31 -338.66 338.62 -339 337.9 C-342.25 331.21 -345.81 324.85 -349.68 318.5 C-352.4 314.03 -354.94 309.49 -357.41 304.87 C-359.35 301.38 -361.42 297.97 -363.5 294.56 C-366.77 289.19 -369.67 283.75 -372.41 278.09 C-374.62 273.79 -377.15 269.7 -379.68 265.58 C-382.05 261.68 -384.19 257.74 -386.19 253.62 C-388.29 249.3 -390.64 245.41 -393.37 241.46 C-398.15 234.25 -402.28 226.59 -406.06 218.81 C-408.53 213.75 -411.38 209.07 -414.48 204.38 C-418 198.87 -418 198.87 -418 195 C-418.66 195 -419.32 195 -420 195 C-420.29 194.39 -420.58 193.79 -420.88 193.16 C-423.95 186.9 -427.37 180.95 -431 175 C-443.74 153.95 -443.74 153.95 -444 143 C-444.04 142.12 -444.08 141.25 -444.12 140.35 C-444.46 126.69 -441.02 114.79 -432.16 104.27 C-429.11 101.07 -425.85 98.22 -422 96 C-421.34 96 -420.68 96 -420 96 C-420 95.34 -420 94.68 -420 94 C-419.31 93.67 -418.62 93.34 -417.9 93 C-411.23 89.76 -404.9 86.2 -398.58 82.33 C-393.76 79.39 -388.81 76.87 -383.72 74.41 C-379.58 72.27 -375.81 69.66 -372 67 C-367.5 64 -367.5 64 -363 64 C-363 63.34 -363 62.68 -363 62 C-350.33 55.81 -337.24 55.62 -324 60 C-308.35 66.19 -299.55 76.47 -292.43 91.18 C-291.27 93.47 -290.08 95.53 -288.62 97.62 C-287 100 -287 100 -287 102 C-280.75 99.38 -274.93 96.37 -269.12 92.88 C-268.01 92.21 -268.01 92.21 -266.87 91.54 C-263.86 89.75 -260.91 87.94 -258 86 C-257.01 86 -256.02 86 -255 86 C-255 85.34 -255 84.68 -255 84 C-254.23 83.62 -253.45 83.25 -252.66 82.86 C-251.61 82.35 -250.57 81.84 -249.5 81.31 C-247.97 80.56 -247.97 80.56 -246.41 79.8 C-243.18 78.1 -240.13 76.25 -237.06 74.3 C-233.71 72.19 -230.29 70.19 -226.88 68.19 C-226.14 67.76 -225.41 67.33 -224.65 66.88 C-218.84 63.48 -213 60.13 -207.14 56.8 C-204.34 55.2 -201.57 53.55 -198.81 51.88 C-195.56 49.91 -192.28 48.05 -188.94 46.25 C-179.8 41.31 -170.87 35.97 -162 30.57 C-155.42 26.56 -148.84 22.83 -141.9 19.46 C-138.81 17.91 -135.85 16.2 -132.88 14.44 C-125.25 9.93 -117.55 6.09 -109.29 2.9 C-107.41 2.16 -105.58 1.34 -103.75 0.5 C-98.07 -1.97 -91.96 -3.37 -86 -5 C-84.96 -5.29 -83.93 -5.59 -82.86 -5.89 C-55.57 -13.53 -26 -10.83 0 0 Z M-76 36 C-76.71 36.21 -77.43 36.42 -78.16 36.63 C-86.39 39.13 -94.28 42.22 -102 46 C-103.7 46.82 -103.7 46.82 -105.44 47.66 C-111.66 50.69 -117.7 53.91 -123.59 57.55 C-126.09 59.05 -128.62 60.44 -131.19 61.81 C-135.7 64.24 -140.07 66.84 -144.44 69.5 C-150.8 73.37 -157.27 76.8 -164 80 C-164 80.66 -164 81.32 -164 82 C-165.65 82.33 -167.3 82.66 -169 83 C-169 83.66 -169 84.32 -169 85 C-169.58 85.12 -170.16 85.24 -170.75 85.37 C-177.09 87.14 -182.8 91.48 -188.31 94.94 C-193.52 98.18 -198.81 101.02 -204.34 103.68 C-207 105 -209.54 106.34 -212 108 C-212 108.66 -212 109.32 -212 110 C-212.58 110.12 -213.16 110.24 -213.75 110.37 C-216.07 111.02 -217.88 111.9 -219.98 113.07 C-220.72 113.49 -221.47 113.91 -222.24 114.34 C-223.42 115.01 -223.42 115.01 -224.62 115.69 C-225.44 116.14 -226.25 116.6 -227.08 117.07 C-231.97 119.82 -236.82 122.63 -241.62 125.55 C-244.55 127.33 -247.49 129.08 -250.44 130.81 C-251.43 131.4 -252.41 131.98 -253.43 132.58 C-256 134 -256 134 -259 135 C-259 135.66 -259 136.32 -259 137 C-261.48 137.99 -261.48 137.99 -264 139 C-262.65 147.7 -257.56 155.4 -252.63 162.54 C-247.91 169.67 -243.8 177.25 -240.06 184.94 C-237.43 190.32 -234.43 195.4 -231.32 200.5 C-228.6 204.97 -226.06 209.51 -223.59 214.13 C-221.65 217.62 -219.58 221.03 -217.5 224.44 C-214.26 229.76 -211.38 235.15 -208.66 240.77 C-206.19 245.57 -203.4 250.18 -200.62 254.83 C-197.49 260.1 -194.6 265.44 -192 271 C-191.34 271 -190.68 271 -190 271 C-189.5 273.47 -189.5 273.47 -189 276 C-188.34 276 -187.68 276 -187 276 C-186.91 276.52 -186.83 277.04 -186.74 277.57 C-185.72 280.93 -183.96 283.81 -182.19 286.81 C-181.49 288.01 -180.8 289.2 -180.11 290.39 C-179.76 290.98 -179.42 291.57 -179.06 292.17 C-177.36 295.1 -175.68 298.05 -174 301 C-169.79 299.75 -166.45 298.2 -162.81 295.75 C-158.21 292.74 -153.54 290.03 -148.66 287.49 C-145.99 286.07 -145.99 286.07 -143.68 284.29 C-136.13 278.84 -128 278.85 -119 280 C-115.72 280.8 -112.67 281.72 -109.55 283.01 C-106.16 284.33 -102.67 285.08 -99.12 285.88 C-93.31 287.21 -87.52 288.6 -81.75 290.12 C-79.98 290.59 -79.98 290.59 -78.17 291.07 C-75 292 -75 292 -72.52 293.02 C-69.39 294.24 -66.29 294.85 -63 295.5 C-58.77 296.34 -54.98 297.36 -51 299 C-48.67 299.34 -46.33 299.67 -44 300 C-42 300.67 -40 301.33 -38 302 C-33.98 303.1 -29.94 304.12 -25.9 305.14 C-22.64 305.99 -19.48 306.81 -16.35 308.06 C-13.29 309.28 -10.23 309.86 -7 310.5 C-0.55 311.78 -0.55 311.78 2.5 313 C6.75 314.7 11.25 315.34 15.72 316.22 C18.54 316.89 20.45 317.73 23 319 C25.3 319.55 27.62 320.04 29.94 320.5 C34.2 321.34 38 322.35 42 324 C44.33 324.35 46.67 324.68 49 325 C52.28 325.85 55.39 326.74 58.5 328.06 C61.63 329.24 64.69 329.54 68 330 C71.17 330.82 74.21 331.67 77.23 332.94 C80.67 334.26 84.18 335.13 87.75 336 C88.46 336.18 89.17 336.35 89.9 336.53 C94.29 337.61 98.7 338.61 103.11 339.57 C106.89 340.43 110.6 341.4 114.16 342.93 C117.93 344.35 121.76 345.19 125.69 346.06 C133.75 347.87 133.75 347.87 136 349 C144.81 350.98 153.64 351.21 162.62 351.25 C164.18 351.26 164.18 351.26 165.76 351.28 C175.81 351.24 185.32 349.87 194.81 346.56 C196.02 346.15 197.22 345.74 198.46 345.32 C202.03 343.99 205.51 342.53 209 341 C209 340.34 209 339.68 209 339 C209.52 338.91 210.04 338.82 210.57 338.73 C213.93 337.72 216.84 336.04 219.88 334.31 C220.56 333.93 221.24 333.54 221.94 333.15 C229.24 328.96 236.31 324.43 243.37 319.87 C248.18 316.77 253 313.78 258 311 C258.88 310.51 259.75 310.02 260.65 309.52 C261.41 309.1 262.16 308.68 262.94 308.25 C263.71 307.82 264.48 307.39 265.28 306.95 C265.85 306.64 266.41 306.32 267 306 C267 305.34 267 304.68 267 304 C267.86 303.82 267.86 303.82 268.74 303.64 C271.16 302.95 272.95 302 275.1 300.7 C275.89 300.22 276.68 299.75 277.5 299.25 C278.34 298.74 279.19 298.22 280.06 297.69 C280.94 297.15 281.82 296.62 282.73 296.07 C289.71 291.83 296.63 287.48 303.53 283.09 C308.26 280.09 313.03 277.16 317.86 274.31 C321.01 272.38 324.05 270.3 327.09 268.2 C329 267 329 267 332 266 C332 265.34 332 264.68 332 264 C332.58 263.88 333.15 263.75 333.75 263.62 C336.02 262.99 337.93 262.11 340 261 C340 260.34 340 259.68 340 259 C340.57 258.88 341.15 258.77 341.74 258.65 C344.18 257.95 346 256.97 348.17 255.66 C348.97 255.18 349.77 254.7 350.6 254.2 C351.88 253.42 351.88 253.42 353.19 252.62 C354.07 252.09 354.95 251.56 355.86 251.01 C362.44 247.01 368.93 242.89 375.35 238.65 C379.49 235.94 383.68 233.41 388 231 C389.31 230.27 389.31 230.27 390.65 229.52 C391.41 229.1 392.16 228.68 392.94 228.25 C393.71 227.82 394.48 227.39 395.28 226.95 C395.85 226.64 396.41 226.32 397 226 C397 225.34 397 224.68 397 224 C397.58 223.88 398.15 223.75 398.75 223.62 C401.02 222.99 402.93 222.11 405 221 C405 220.34 405 219.68 405 219 C405.57 218.88 406.15 218.77 406.74 218.65 C409.18 217.95 411 216.97 413.17 215.66 C413.97 215.18 414.77 214.7 415.6 214.2 C416.88 213.42 416.88 213.42 418.19 212.62 C419.07 212.09 419.95 211.56 420.86 211.01 C427.44 207.01 433.93 202.89 440.35 198.65 C445.73 195.12 451.19 191.79 457 189 C457 188.34 457 187.68 457 187 C458.65 186.67 460.3 186.34 462 186 C462 185.34 462 184.68 462 184 C462.57 183.89 463.13 183.79 463.72 183.68 C466.37 182.89 468.19 181.73 470.5 180.19 C475.86 176.69 481.31 173.4 486.81 170.12 C494.1 165.79 501.27 161.32 508.35 156.64 C511 155 511 155 514 154 C514 153.34 514 152.68 514 152 C516.65 150.92 519.28 149.91 522 149 C522 148.34 522 147.68 522 147 C522.68 146.75 523.36 146.5 524.06 146.25 C529.16 144.08 533.69 141.23 538.25 138.12 C541.42 135.98 544.62 134.09 548 132.31 C553.07 129.59 557.95 126.63 562.81 123.56 C563.53 123.12 564.25 122.68 564.99 122.22 C573.78 116.58 579.51 109.26 582 99 C582.4 95.43 582.53 91.9 582.56 88.31 C582.58 86.99 582.58 86.99 582.61 85.65 C582.46 76.54 578.91 68.01 572.47 61.44 C561.78 51.72 550.3 51.45 536.5 51.87 C519.89 52.74 504.83 58.82 490 66 C488.3 66.82 488.3 66.82 486.57 67.66 C480.35 70.69 474.3 73.91 468.41 77.55 C465.91 79.05 463.38 80.44 460.81 81.81 C456.29 84.25 451.89 86.84 447.5 89.5 C442.37 92.61 437.18 95.56 431.89 98.4 C428.31 100.38 424.81 102.5 421.31 104.62 C416.31 107.66 411.31 110.51 406 113 C406 113.66 406 114.32 406 115 C405.14 115.18 405.14 115.18 404.26 115.36 C401.87 116.04 400.03 116.96 397.88 118.19 C397.08 118.64 396.29 119.09 395.48 119.55 C392.2 121.47 388.95 123.42 385.7 125.38 C382.66 127.2 379.61 129.01 376.56 130.81 C375.57 131.4 374.59 131.98 373.57 132.58 C371 134 371 134 368 135 C368 135.66 368 136.32 368 137 C366.35 137.33 364.7 137.66 363 138 C363 138.66 363 139.32 363 140 C362.43 140.11 361.87 140.23 361.28 140.35 C358.75 141.07 356.77 142.12 354.5 143.44 C351.7 145.04 348.9 146.58 346 148 C346 148.66 346 149.32 346 150 C345.42 150.12 344.84 150.24 344.25 150.37 C337.91 152.14 332.2 156.48 326.69 159.94 C320.64 163.7 314.43 166.94 308 170 C308 170.66 308 171.32 308 172 C306.35 172.33 304.7 172.66 303 173 C303 173.66 303 174.32 303 175 C302.43 175.11 301.87 175.23 301.28 175.35 C298.75 176.07 296.77 177.12 294.5 178.44 C291.7 180.04 288.9 181.58 286 183 C286 183.66 286 184.32 286 185 C285.49 185.09 284.98 185.18 284.45 185.28 C281.01 186.29 277.93 187.93 274.75 189.56 C273.78 190.06 273.78 190.06 272.78 190.56 C271.19 191.37 269.59 192.18 268 193 C268 193.66 268 194.32 268 195 C267.32 195.1 266.64 195.21 265.93 195.32 C262.42 196.14 259.36 197.47 256.06 198.94 C248.8 202.15 241.77 204.41 234 206 C232.91 206.26 231.82 206.52 230.7 206.79 C209.96 211.24 184.34 211.78 164 205 C162.36 204.85 160.71 204.73 159.06 204.62 C143.32 203.32 143.32 203.32 140 200 C137.78 199.53 135.55 199.1 133.31 198.69 C126.8 197.45 120.49 195.78 114.12 193.9 C110.95 192.99 107.78 192.25 104.55 191.56 C100.94 190.77 97.34 189.89 93.75 189 C92.72 188.75 92.72 188.75 91.67 188.5 C88.88 187.8 86.18 187.07 83.51 185.99 C80.12 184.65 76.62 183.91 73.06 183.12 C54.81 178.95 54.81 178.95 47.32 175.91 C44.27 174.71 41.24 174.46 38 174 C35.11 173.13 32.35 172.14 29.56 171 C26.89 169.9 26.89 169.9 23.56 169.06 C17.35 167.21 12.58 164.85 8.91 159.37 C7.6 155.97 7.71 152.65 7.75 149.06 C7.74 148.36 7.73 147.66 7.73 146.93 C7.74 142.85 8.19 139.67 10 136 C10.66 136 11.32 136 12 136 C12 135.34 12 134.68 12 134 C12.66 134 13.32 134 14 134 C14 133.34 14 132.68 14 132 C18.65 129.64 22.85 129.7 27.94 129.75 C29.12 129.74 29.12 129.74 30.32 129.73 C35.92 129.75 40.28 130.81 45.44 133.06 C48.59 134.22 51.68 134.53 55 135 C57.83 135.85 60.52 136.79 63.23 137.95 C66.51 139.19 69.78 140 73.19 140.81 C81.41 142.82 89.55 145.06 97.69 147.35 C103.8 149.07 109.92 150.76 116.04 152.46 C117.78 152.94 119.52 153.42 121.26 153.91 C126.02 155.23 130.78 156.43 135.61 157.46 C139.43 158.32 143.22 159.33 147.01 160.32 C153 161.69 158.86 162.18 165 162.19 C165.67 162.2 166.35 162.21 167.04 162.22 C171.69 162.24 175.6 161.44 180 160 C180.83 159.75 181.65 159.5 182.5 159.25 C190.16 155.42 194.99 149.05 198.11 141.21 C200.37 133.05 200.32 123.53 196.26 115.98 C195.84 115.33 195.43 114.67 195 114 C194.56 113.3 194.13 112.61 193.68 111.89 C188.12 103.8 181.37 99.53 172 97 C170.92 96.68 169.84 96.35 168.73 96.02 C164.14 94.77 159.55 93.95 154.87 93.14 C150.76 92.41 146.95 91.35 143 90 C141.01 89.56 139.01 89.14 137 88.75 C121.34 85.46 106.08 80.84 90.96 75.66 C86.01 73.99 81 72.52 76 71 C73.23 70.15 70.46 69.3 67.69 68.44 C66.72 68.14 66.72 68.14 65.73 67.84 C61.81 66.62 57.98 65.25 54.14 63.8 C50.8 62.55 47.43 61.37 44.06 60.19 C43.34 59.93 42.61 59.68 41.87 59.41 C39.58 58.61 37.29 57.8 35 57 C31.98 55.94 28.96 54.88 25.94 53.81 C25.26 53.57 24.58 53.34 23.89 53.09 C20.47 51.89 17.08 50.66 13.69 49.39 C10.52 48.2 7.35 47.1 4.12 46.06 C0.38 44.83 -3.29 43.51 -6.94 42 C-12.83 39.59 -18.88 37.76 -25 36 C-25.78 35.74 -26.56 35.49 -27.37 35.22 C-34.96 32.89 -42.03 32.55 -49.94 32.62 C-51.72 32.61 -51.72 32.61 -53.53 32.59 C-61.44 32.62 -68.44 33.71 -76 36 Z M-350 103 C-350 103.66 -350 104.32 -350 105 C-350.53 105.09 -351.05 105.18 -351.59 105.27 C-354.85 106.26 -357.6 107.96 -360.5 109.69 C-365.02 112.33 -369.55 114.83 -374.25 117.12 C-389.54 124.21 -389.54 124.21 -402 135 C-402.68 139.92 -401.48 142.45 -398.69 146.44 C-395.91 150.55 -393.75 154.37 -392 159 C-391.34 159 -390.68 159 -390 159 C-389.77 159.82 -389.54 160.64 -389.3 161.49 C-387.74 165.71 -385.59 169.3 -383.25 173.12 C-380.32 178.01 -377.48 182.86 -375 188 C-371.49 195.23 -367.33 202.07 -363.21 208.97 C-361.44 211.93 -359.69 214.9 -357.94 217.88 C-357.39 218.8 -356.84 219.73 -356.28 220.68 C-355 223 -355 223 -354 226 C-353.34 226 -352.68 226 -352 226 C-351.91 226.53 -351.82 227.05 -351.73 227.59 C-350.74 230.85 -349.04 233.6 -347.31 236.5 C-344.65 241.06 -342.13 245.63 -339.81 250.38 C-337.86 254.36 -335.77 258.13 -333.36 261.86 C-331.59 264.64 -329.92 267.47 -328.25 270.31 C-327.66 271.32 -327.06 272.33 -326.45 273.36 C-325 276 -325 276 -324 279 C-323.34 279 -322.68 279 -322 279 C-321.91 279.53 -321.82 280.05 -321.73 280.59 C-320.74 283.85 -319.04 286.6 -317.31 289.5 C-314.65 294.06 -312.13 298.63 -309.81 303.38 C-307.87 307.33 -305.8 311.06 -303.41 314.75 C-301.16 318.34 -299.1 322.04 -297.02 325.72 C-295.03 329.23 -292.99 332.69 -290.88 336.12 C-288.14 340.64 -285.83 345.31 -283.5 350.05 C-281.65 353.7 -279.57 357.16 -277.43 360.65 C-276.1 362.84 -274.85 365.06 -273.62 367.31 C-271.57 371.07 -269.34 374.69 -267.06 378.31 C-264.54 382.38 -262.21 386.44 -260.12 390.75 C-256.56 398.1 -252.35 405.06 -248.16 412.06 C-247.13 413.78 -246.13 415.51 -245.13 417.24 C-244.61 418.13 -244.1 419.02 -243.56 419.94 C-243.13 420.69 -242.7 421.44 -242.25 422.21 C-240.96 424.29 -240.96 424.29 -238 426 C-233.93 426.49 -231.81 425.6 -228.44 423.38 C-224.67 420.99 -220.89 418.89 -216.88 416.94 C-212.77 414.92 -208.91 412.78 -205.07 410.29 C-199.58 406.87 -193.8 403.86 -188 401 C-188 400.34 -188 399.68 -188 399 C-187.32 398.92 -186.64 398.84 -185.94 398.75 C-182.05 397.76 -179.37 396.2 -176 394 C-174.81 390.42 -174.2 387.69 -175 384 C-176.53 380.95 -178.26 378.09 -180.06 375.19 C-181.93 372.11 -183.55 368.99 -185.12 365.75 C-187.08 361.78 -189.13 358.02 -191.52 354.31 C-196.97 345.8 -202.01 337.19 -206.41 328.09 C-208.62 323.79 -211.15 319.7 -213.68 315.58 C-216.05 311.68 -218.19 307.74 -220.19 303.62 C-222.29 299.3 -224.64 295.41 -227.37 291.46 C-232.15 284.25 -236.28 276.59 -240.06 268.81 C-242.52 263.78 -245.39 259.17 -248.45 254.49 C-250.36 251.42 -251.72 248.38 -253 245 C-253.66 245 -254.32 245 -255 245 C-255.23 244.18 -255.46 243.36 -255.7 242.51 C-257.26 238.29 -259.41 234.7 -261.75 230.88 C-265.33 224.93 -268.61 218.94 -271.64 212.7 C-273.85 208.32 -276.42 204.17 -279 200 C-280.11 198.19 -281.21 196.38 -282.31 194.56 C-283.05 193.36 -283.05 193.36 -283.8 192.13 C-285 190 -285 190 -286 187 C-286.66 187 -287.32 187 -288 187 C-288.19 186.16 -288.19 186.16 -288.38 185.31 C-289.06 182.78 -289.99 180.42 -291 178 C-291.66 178 -292.32 178 -293 178 C-293.09 177.47 -293.18 176.95 -293.27 176.41 C-294.26 173.15 -295.96 170.4 -297.69 167.5 C-300.35 162.94 -302.87 158.37 -305.19 153.62 C-307.14 149.64 -309.23 145.87 -311.64 142.14 C-313.41 139.36 -315.08 136.53 -316.75 133.69 C-317.64 132.18 -317.64 132.18 -318.55 130.64 C-320 128 -320 128 -321 125 C-321.66 125 -322.32 125 -323 125 C-323.09 124.48 -323.17 123.97 -323.26 123.43 C-324.3 120.03 -326.08 117.11 -327.88 114.06 C-328.23 113.45 -328.58 112.85 -328.94 112.22 C-329.95 110.48 -330.98 108.74 -332 107 C-332.54 106.07 -333.08 105.14 -333.63 104.18 C-334.95 101.9 -334.95 101.9 -337 100 C-342.25 99.5 -345.47 100.35 -350 103 Z " fill="#000000" transform="translate(475,793)"/>
<path d="M0 0 C0.69 0.01 1.38 0.02 2.09 0.03 C8.35 0.17 14.49 0.94 20.68 1.81 C24.38 2.29 28.03 2.59 31.75 2.81 C39.73 3.33 47.59 4.29 55.34 6.29 C60.72 7.66 66.18 8.38 71.67 9.17 C76.17 9.84 80.26 10.77 84.56 12.31 C85.99 12.64 87.43 12.93 88.88 13.19 C107.46 16.81 125.93 21.75 143.61 28.57 C146.64 29.72 149.71 30.76 152.77 31.81 C161.17 34.7 169.41 37.79 177.56 41.31 C178.5 41.69 179.43 42.06 180.39 42.45 C186.81 45.03 192.98 47.95 199.15 51.09 C203.62 53.37 208.14 55.52 212.7 57.63 C220.74 61.35 228.37 65.37 235.88 70.07 C238.78 71.88 241.76 73.51 244.78 75.12 C250.74 78.35 256.43 81.94 262.12 85.62 C264.06 86.87 266 88.12 267.94 89.36 C268.78 89.91 269.62 90.45 270.49 91.01 C272.51 92.33 272.51 92.33 274.56 93.31 C274.56 93.97 274.56 94.63 274.56 95.31 C275.22 95.53 275.87 95.75 276.54 95.97 C280.65 97.8 284.18 100.26 287.88 102.81 C288.62 103.31 289.36 103.81 290.12 104.32 C290.82 104.81 291.52 105.29 292.24 105.78 C292.88 106.22 293.52 106.66 294.17 107.11 C294.63 107.51 295.09 107.9 295.56 108.31 C295.56 108.97 295.56 109.63 295.56 110.31 C296.88 110.64 298.2 110.97 299.56 111.31 C299.56 111.97 299.56 112.63 299.56 113.31 C300.24 113.52 300.92 113.72 301.61 113.93 C305.59 115.79 308.49 118.47 311.75 121.38 C312.99 122.47 314.24 123.57 315.48 124.66 C316.02 125.14 316.57 125.63 317.13 126.13 C318.57 127.41 318.57 127.41 320.56 128.31 C320.56 128.97 320.56 129.63 320.56 130.31 C321.13 130.58 321.71 130.85 322.3 131.12 C324.64 132.35 326.69 133.74 328.81 135.31 C329.87 136.09 329.87 136.09 330.95 136.88 C331.48 137.35 332.02 137.82 332.56 138.31 C332.56 138.97 332.56 139.63 332.56 140.31 C333.55 140.64 334.54 140.97 335.56 141.31 C335.56 141.97 335.56 142.63 335.56 143.31 C336.22 143.31 336.88 143.31 337.56 143.31 C337.56 143.97 337.56 144.63 337.56 145.31 C338.15 145.58 338.73 145.84 339.33 146.11 C341.67 147.37 343.31 148.75 345.24 150.58 C345.92 151.22 346.61 151.86 347.31 152.53 C348.01 153.2 348.71 153.87 349.44 154.56 C350.13 155.22 350.83 155.87 351.54 156.55 C353.56 158.46 355.56 160.38 357.56 162.31 C358.17 162.89 358.78 163.47 359.41 164.06 C360.83 165.44 362.2 166.87 363.56 168.31 C363.56 168.97 363.56 169.63 363.56 170.31 C364.22 170.31 364.88 170.31 365.56 170.31 C365.56 170.97 365.56 171.63 365.56 172.31 C366.22 172.31 366.88 172.31 367.56 172.31 C372.56 177.79 372.56 177.79 372.56 180.31 C373.55 180.64 374.54 180.97 375.56 181.31 C375.56 181.97 375.56 182.63 375.56 183.31 C376.22 183.31 376.88 183.31 377.56 183.31 C380.11 185.78 382.3 188.58 384.56 191.31 C385.67 192.64 385.67 192.64 386.8 194 C392.56 201.04 392.56 201.04 392.56 203.31 C393.22 203.31 393.88 203.31 394.56 203.31 C395.82 204.67 395.82 204.67 397.25 206.57 C397.78 207.28 398.31 207.98 398.85 208.7 C399.42 209.46 399.98 210.22 400.56 211 C401.74 212.56 402.91 214.12 404.09 215.68 C404.67 216.46 405.26 217.25 405.86 218.05 C407.4 220.1 408.96 222.13 410.54 224.16 C411.21 225.03 411.21 225.03 411.9 225.91 C413.11 227.47 414.33 229.02 415.54 230.58 C420.56 237.37 420.56 237.37 420.56 240.31 C421.22 240.31 421.88 240.31 422.56 240.31 C422.56 241.3 422.56 242.29 422.56 243.31 C423.22 243.31 423.88 243.31 424.56 243.31 C426.15 245.51 426.15 245.51 427.94 248.44 C429.89 251.62 431.84 254.77 434 257.81 C435.56 260.31 435.56 260.31 435.56 263.31 C436.22 263.31 436.88 263.31 437.56 263.31 C437.89 263.93 438.22 264.55 438.56 265.19 C441.99 271.58 445.62 277.82 449.4 284.01 C455.56 294.13 455.56 294.13 455.56 298.31 C456.22 298.31 456.88 298.31 457.56 298.31 C460.1 303.19 462.52 308.05 464.5 313.19 C466.39 318.06 468.7 322.67 471.06 327.33 C475.14 335.43 478.45 343.61 481.4 352.19 C482.68 355.9 484.01 359.51 485.69 363.06 C488.26 368.61 489.83 374.46 491.56 380.31 C492.45 383.23 493.35 386.15 494.25 389.06 C494.46 389.77 494.68 390.47 494.9 391.2 C495.74 394.52 495.74 394.52 497.56 397.31 C497.71 398.38 497.85 399.46 498 400.56 C498.38 404.14 498.38 404.14 499.5 406.61 C500.75 409.79 501.39 412.91 502.06 416.25 C502.75 419.67 503.44 422.95 504.56 426.26 C505.75 429.87 506.42 433.51 507.06 437.25 C507.75 441.25 508.5 445.11 509.62 449.02 C510.42 451.8 510.89 454.26 511.12 457.12 C511.39 460.34 511.39 460.34 512.56 463.31 C512.74 464.95 512.88 466.6 513 468.25 C513.32 472.06 513.77 475.75 514.5 479.5 C516.93 492.2 517.99 505.04 518.69 517.94 C518.75 519.07 518.75 519.07 518.81 520.23 C519.5 532.75 519.75 545.27 519.75 557.81 C519.75 559.01 519.75 559.01 519.75 560.22 C519.75 569.29 519.52 578.28 518.56 587.31 C519.21 587.33 519.86 587.34 520.53 587.36 C523.52 587.43 526.51 587.53 529.5 587.62 C530.52 587.65 531.54 587.67 532.6 587.69 C543.22 588.07 551.26 590.39 559.19 597.75 C565 604.03 567.72 607.98 568.25 616.62 C568.34 617.9 568.42 619.17 568.51 620.49 C568.59 626.71 568.02 631.29 564.62 636.56 C564.1 637.39 563.58 638.22 563.04 639.08 C561.88 640.83 560.72 642.57 559.56 644.31 C558.9 644.31 558.24 644.31 557.56 644.31 C557.32 645.03 557.08 645.74 556.84 646.47 C555.37 649.75 553.51 652.03 551.19 654.75 C548.66 657.75 546.21 660.67 544.12 664 C543.61 664.76 543.09 665.53 542.56 666.31 C541.9 666.31 541.24 666.31 540.56 666.31 C540.25 666.93 539.94 667.55 539.62 668.19 C538.94 669.56 538.25 670.94 537.56 672.31 C536.9 672.31 536.24 672.31 535.56 672.31 C535.23 673.63 534.9 674.95 534.56 676.31 C533.9 676.31 533.24 676.31 532.56 676.31 C532.29 677.12 532.03 677.92 531.75 678.75 C531.16 680.02 531.16 680.02 530.56 681.31 C529.57 681.64 528.58 681.97 527.56 682.31 C526.88 683.97 526.22 685.64 525.56 687.31 C524.16 689.17 522.7 690.98 521.19 692.75 C518.66 695.75 516.21 698.67 514.12 702 C513.61 702.76 513.09 703.53 512.56 704.31 C511.9 704.31 511.24 704.31 510.56 704.31 C510.32 704.85 510.07 705.38 509.81 705.94 C508.26 708.89 506.53 711.61 504.56 714.31 C503.9 714.31 503.24 714.31 502.56 714.31 C502.33 715.02 502.09 715.73 501.85 716.46 C500.33 719.84 498.37 722.15 495.94 724.94 C491.68 729.88 487.86 734.96 484.16 740.33 C483.63 740.98 483.1 741.64 482.56 742.31 C481.9 742.31 481.24 742.31 480.56 742.31 C480.13 743.21 480.13 743.21 479.69 744.12 C478.56 746.31 478.56 746.31 476.56 749.31 C475.9 749.31 475.24 749.31 474.56 749.31 C474.56 749.97 474.56 750.63 474.56 751.31 C473.24 751.64 471.92 751.97 470.56 752.31 C470.56 752.97 470.56 753.63 470.56 754.31 C460.74 758.83 451.89 759.36 441.56 756.31 C439.88 755.68 438.21 755.03 436.56 754.31 C436.56 753.65 436.56 752.99 436.56 752.31 C435.84 752.11 435.12 751.9 434.38 751.69 C430.59 749.84 429.04 747.71 426.56 744.31 C426.56 743.65 426.56 742.99 426.56 742.31 C425.9 742.31 425.24 742.31 424.56 742.31 C423.05 740.63 423.05 740.63 421.44 738.44 C420.9 737.72 420.36 737 419.8 736.26 C418.56 734.31 418.56 734.31 418.56 732.31 C417.9 732.31 417.24 732.31 416.56 732.31 C415.12 730.58 413.75 728.77 412.44 726.94 C411.71 725.94 410.99 724.94 410.24 723.91 C408.56 721.31 408.56 721.31 408.56 719.31 C407.9 719.31 407.24 719.31 406.56 719.31 C404.77 717.22 403.09 715.13 401.44 712.94 C400.97 712.33 400.5 711.73 400.02 711.11 C396.56 706.57 396.56 706.57 396.56 704.31 C395.9 704.31 395.24 704.31 394.56 704.31 C393.05 702.63 393.05 702.63 391.44 700.44 C390.9 699.72 390.36 699 389.8 698.26 C388.56 696.31 388.56 696.31 388.56 694.31 C387.9 694.31 387.24 694.31 386.56 694.31 C385.27 692.72 384.05 691.06 382.88 689.38 C379.66 684.82 376.32 680.42 372.81 676.09 C371.56 674.31 371.56 674.31 371.56 672.31 C370.9 672.31 370.24 672.31 369.56 672.31 C366.56 668.85 366.56 668.85 366.56 666.31 C365.9 666.31 365.24 666.31 364.56 666.31 C364.23 664.99 363.9 663.67 363.56 662.31 C362.9 662.31 362.24 662.31 361.56 662.31 C358.56 658.85 358.56 658.85 358.56 656.31 C357.9 656.31 357.24 656.31 356.56 656.31 C355.27 654.72 354.05 653.06 352.88 651.38 C350.27 647.68 347.62 644.11 344.75 640.62 C338.18 632.09 337.51 624.04 338.56 613.31 C339.48 609.99 340.77 607.24 342.56 604.31 C342.92 603.69 343.28 603.08 343.65 602.44 C344.69 600.75 344.69 600.75 346.56 598.31 C347.22 598.31 347.88 598.31 348.56 598.31 C348.56 597.65 348.56 596.99 348.56 596.31 C350.54 594.87 350.54 594.87 353.19 593.31 C354.05 592.8 354.9 592.28 355.79 591.75 C361.82 588.62 366.78 588.04 373.44 588.19 C374.22 588.2 375.01 588.21 375.81 588.21 C377.73 588.24 379.65 588.27 381.56 588.31 C381.53 586.55 381.53 586.55 381.5 584.75 C381.45 582.09 381.66 579.7 382.06 577.05 C382.6 573.03 382.71 569.09 382.7 565.04 C382.7 564.26 382.7 563.49 382.7 562.7 C382.7 561.08 382.7 559.46 382.69 557.84 C382.69 555.39 382.69 552.93 382.7 550.47 C382.7 548.89 382.7 547.31 382.7 545.72 C382.7 544.64 382.7 544.64 382.7 543.53 C382.68 538.71 382.21 534.09 381.56 529.31 C381.47 527.84 381.39 526.37 381.35 524.89 C381.04 515.74 380.37 506.76 379.06 497.69 C378.93 496.78 378.8 495.87 378.67 494.94 C378.08 490.49 378.08 490.49 376.56 486.31 C376.29 483.62 376.12 480.93 375.94 478.23 C375.53 475.05 374.59 472.35 373.56 469.31 C373.07 466.77 372.61 464.24 372.19 461.69 C371.11 455.55 369.57 449.8 367.47 443.92 C366.68 441.64 366.05 439.41 365.5 437.06 C364.66 433.71 363.63 430.66 362.34 427.46 C361.71 425.72 361.17 423.93 360.67 422.14 C359.4 417.74 357.89 413.48 356.31 409.19 C356.01 408.35 355.7 407.52 355.38 406.66 C353.14 400.67 350.65 394.9 347.88 389.14 C346.71 386.64 345.71 384.15 344.75 381.56 C342.3 375.28 339 369.43 335.8 363.51 C333.9 359.98 332.12 356.41 330.38 352.81 C328.19 348.4 325.73 344.36 322.93 340.32 C321.38 338.04 320.03 335.67 318.69 333.27 C315.57 327.87 312.35 322.45 308.34 317.66 C306.56 315.31 306.56 315.31 306.56 312.31 C305.9 312.31 305.24 312.31 304.56 312.31 C303.35 310.9 303.35 310.9 301.98 308.9 C301.47 308.17 300.95 307.43 300.42 306.67 C299.87 305.87 299.32 305.07 298.75 304.25 C293.72 297.09 288.4 290.39 282.53 283.91 C278.56 279.5 278.56 279.5 278.56 277.31 C277.9 277.31 277.24 277.31 276.56 277.31 C271.56 271.84 271.56 271.84 271.56 269.31 C270.92 269.04 270.28 268.78 269.62 268.5 C267.56 267.31 267.56 267.31 266.56 264.31 C265.9 264.31 265.24 264.31 264.56 264.31 C262.94 262.94 262.94 262.94 261.56 261.31 C261.56 260.65 261.56 259.99 261.56 259.31 C260.9 259.31 260.24 259.31 259.56 259.31 C257.94 257.94 257.94 257.94 256.56 256.31 C256.56 255.65 256.56 254.99 256.56 254.31 C255.9 254.31 255.24 254.31 254.56 254.31 C252.94 252.94 252.94 252.94 251.56 251.31 C251.56 250.65 251.56 249.99 251.56 249.31 C250.98 249.06 250.39 248.8 249.79 248.54 C247.37 247.21 245.83 245.75 243.94 243.75 C241.52 241.17 241.52 241.17 238.56 239.31 C238.56 238.65 238.56 237.99 238.56 237.31 C237.99 237.04 237.42 236.78 236.83 236.5 C234.48 235.27 232.44 233.89 230.31 232.31 C229.61 231.8 228.9 231.28 228.17 230.75 C227.64 230.28 227.11 229.8 226.56 229.31 C226.56 228.65 226.56 227.99 226.56 227.31 C225.84 227.06 225.12 226.82 224.38 226.56 C221.29 225.19 219.05 223.59 216.56 221.31 C216.56 220.65 216.56 219.99 216.56 219.31 C215.57 219.31 214.58 219.31 213.56 219.31 C213.56 218.65 213.56 217.99 213.56 217.31 C212.78 217 212 216.69 211.19 216.38 C208.56 215.31 208.56 215.31 206.56 214.31 C206.56 213.65 206.56 212.99 206.56 212.31 C205.78 212 205 211.69 204.19 211.38 C201.56 210.31 201.56 210.31 199.56 209.31 C199.56 208.65 199.56 207.99 199.56 207.31 C198.85 207.05 198.13 206.79 197.39 206.52 C194.45 205.27 191.94 203.77 189.25 202.05 C188.23 201.4 187.22 200.76 186.18 200.1 C184.09 198.76 181.99 197.42 179.9 196.07 C173.82 192.22 167.71 188.75 161.21 185.64 C158.64 184.35 156.24 182.92 153.81 181.38 C147.1 177.25 139.82 174.35 132.56 171.31 C131.46 170.85 130.36 170.38 129.22 169.9 C123.88 167.65 118.51 165.47 113.13 163.34 C111.52 162.7 109.93 162.05 108.34 161.38 C101.69 158.61 94.93 156.57 88 154.62 C85.85 154.02 83.7 153.41 81.56 152.8 C80.62 152.54 79.69 152.28 78.72 152.01 C76.56 151.31 76.56 151.31 75.56 150.31 C73.34 149.8 71.11 149.33 68.88 148.88 C65.29 148.15 61.85 147.41 58.38 146.25 C55.89 145.42 53.84 145.01 51.25 144.81 C45.89 144.3 40.77 143.12 35.56 141.81 C26.33 139.58 16.81 138.64 7.36 137.88 C6.48 137.81 5.6 137.73 4.69 137.66 C2.99 137.51 1.28 137.39 -0.43 137.27 C-7.03 136.72 -12.4 134.94 -17.46 130.57 C-17.91 130.01 -18.35 129.45 -18.81 128.88 C-19.27 128.32 -19.74 127.76 -20.21 127.19 C-23.79 121.71 -23.73 116.68 -23.73 110.32 C-23.74 108.82 -23.74 108.82 -23.75 107.29 C-23.77 103.98 -23.77 100.67 -23.77 97.36 C-23.78 95.05 -23.79 92.74 -23.79 90.44 C-23.81 85.61 -23.81 80.77 -23.81 75.94 C-23.81 69.76 -23.84 63.57 -23.87 57.39 C-23.89 52.63 -23.9 47.87 -23.89 43.1 C-23.9 40.82 -23.91 38.55 -23.92 36.27 C-23.94 33.07 -23.94 29.88 -23.92 26.69 C-23.93 25.75 -23.95 24.82 -23.96 23.85 C-23.89 16.36 -21.87 11.28 -17.12 5.5 C-11.69 1.08 -6.92 -0.09 0 0 Z M19.56 44.31 C19.56 61.14 19.56 77.97 19.56 95.31 C27.15 97.97 27.15 97.97 34.5 98.88 C41.17 99.3 47.46 100.4 53.88 102.29 C57.65 103.34 61.39 104.07 65.25 104.75 C74.5 106.42 83.55 108.64 92.56 111.31 C93.32 111.53 94.08 111.74 94.86 111.96 C100.08 113.47 105.06 115.28 110.09 117.36 C112.42 118.26 114.72 118.96 117.12 119.62 C124.18 121.65 130.88 124.67 137.63 127.51 C140.03 128.51 142.45 129.44 144.88 130.38 C149.67 132.27 154.23 134.6 158.82 136.94 C160.87 137.97 162.96 138.91 165.06 139.81 C173.05 143.24 180.65 147.26 188.05 151.8 C191.66 153.97 195.37 155.93 199.08 157.92 C201.16 159.09 203.11 160.31 205.06 161.69 C207.48 163.58 207.48 163.58 210.56 163.31 C210.56 163.97 210.56 164.63 210.56 165.31 C212.74 166.91 212.74 166.91 215.44 168.44 C216.34 168.98 217.25 169.52 218.18 170.07 C220.41 171.47 220.41 171.47 222.56 171.31 C222.56 171.97 222.56 172.63 222.56 173.31 C223.55 173.31 224.54 173.31 225.56 173.31 C225.56 173.97 225.56 174.63 225.56 175.31 C228.78 177.63 228.78 177.63 232.56 178.31 C232.56 178.97 232.56 179.63 232.56 180.31 C235.78 182.63 235.78 182.63 239.56 183.31 C239.56 183.97 239.56 184.63 239.56 185.31 C241.3 186.76 243.1 188.12 244.94 189.44 C246.43 190.52 246.43 190.52 247.96 191.63 C250.33 193.49 250.33 193.49 252.56 193.31 C252.56 193.97 252.56 194.63 252.56 195.31 C255.2 197.71 255.2 197.71 258.56 198.31 C258.56 198.97 258.56 199.63 258.56 200.31 C261.2 202.71 261.2 202.71 264.56 203.31 C264.56 203.97 264.56 204.63 264.56 205.31 C266.24 207.09 266.24 207.09 268.38 208.88 C269.08 209.5 269.79 210.12 270.52 210.75 C272.58 212.5 272.58 212.5 275.56 213.31 C275.56 213.97 275.56 214.63 275.56 215.31 C277.01 216.79 277.01 216.79 278.94 218.32 C284.05 222.67 288.77 227.37 293.5 232.12 C294.36 232.98 295.22 233.84 296.11 234.72 C296.93 235.54 297.75 236.36 298.59 237.21 C299.33 237.95 300.07 238.69 300.83 239.45 C302.56 241.31 302.56 241.31 303.56 243.31 C304.22 243.31 304.88 243.31 305.56 243.31 C305.79 243.85 306.02 244.38 306.25 244.94 C308.02 248.14 310.1 250.6 312.56 253.31 C313.22 253.31 313.88 253.31 314.56 253.31 C314.81 253.85 315.06 254.38 315.31 254.94 C316.87 257.89 318.6 260.61 320.56 263.31 C321.22 263.31 321.88 263.31 322.56 263.31 C322.81 263.85 323.06 264.4 323.31 264.95 C324.84 267.84 326.65 270.41 328.56 273.06 C329.26 274.05 329.96 275.03 330.69 276.05 C331.31 276.79 331.92 277.54 332.56 278.31 C333.22 278.31 333.88 278.31 334.56 278.31 C335.03 279.49 335.03 279.49 335.5 280.69 C336.49 283.24 336.49 283.24 337.56 285.31 C338.22 285.31 338.88 285.31 339.56 285.31 C339.83 285.87 340.09 286.43 340.37 287 C341.68 289.54 343.15 291.91 344.69 294.31 C345.31 295.28 345.93 296.25 346.57 297.25 C348.55 300.3 350.58 303.3 352.62 306.31 C355.68 310.88 358.38 315.51 360.95 320.36 C362.46 323.12 364.07 325.79 365.73 328.46 C371.05 337.06 375.33 346 379.56 355.17 C380.93 358.09 382.4 360.95 383.88 363.81 C386.18 368.36 387.98 372.94 389.64 377.75 C390.47 380.05 391.4 382.23 392.44 384.44 C395.66 391.52 398.05 398.95 400.56 406.31 C400.83 407.11 401.11 407.9 401.39 408.72 C402.2 411.1 403.01 413.49 403.81 415.88 C404.06 416.6 404.3 417.33 404.56 418.07 C406.91 425.12 408.59 432.26 410.1 439.53 C410.4 441.32 410.4 441.32 411.56 442.31 C411.92 443.77 412.22 445.24 412.5 446.71 C412.76 448.05 412.76 448.05 413.02 449.41 C413.2 450.35 413.38 451.29 413.56 452.25 C413.91 454.09 414.27 455.94 414.62 457.78 C414.78 458.6 414.94 459.42 415.1 460.27 C415.49 462.36 415.49 462.36 416.56 464.31 C416.89 466.14 417.17 467.98 417.44 469.81 C418.08 474.21 418.8 478.56 419.62 482.93 C424.04 507.21 424.85 531.69 424.88 556.31 C424.88 557.97 424.88 557.97 424.89 559.67 C424.91 571.7 424.62 583.52 423.03 595.46 C422.54 599.47 422.34 603.4 422.19 607.44 C421.68 615.32 420.02 620.26 414.25 625.69 C407.87 630.67 400.36 630.78 392.56 631.31 C393.86 634.1 395.3 636.4 397.24 638.77 C397.76 639.41 398.28 640.05 398.81 640.7 C399.35 641.36 399.88 642.01 400.44 642.69 C406.4 649.97 406.4 649.97 408.82 653.79 C409.4 654.62 409.97 655.45 410.56 656.31 C411.22 656.31 411.88 656.31 412.56 656.31 C412.83 656.87 413.1 657.43 413.38 658 C414.67 660.52 415.99 662.95 417.56 665.31 C418.22 665.31 418.88 665.31 419.56 665.31 C419.79 665.84 420.02 666.37 420.26 666.91 C421.99 670.1 424.2 672.85 426.44 675.69 C429.02 678.96 431.53 682.2 433.76 685.73 C434.35 686.58 434.95 687.43 435.56 688.31 C436.22 688.31 436.88 688.31 437.56 688.31 C437.93 689.12 437.93 689.12 438.31 689.95 C439.84 692.84 441.65 695.41 443.56 698.06 C444.26 699.05 444.96 700.03 445.69 701.05 C446.31 701.79 446.92 702.54 447.56 703.31 C448.22 703.31 448.88 703.31 449.56 703.31 C449.85 703.93 450.14 704.55 450.44 705.19 C451.5 707.45 451.5 707.45 453.56 709.31 C454.9 707.86 456.23 706.4 457.56 704.94 C458.68 703.72 458.68 703.72 459.81 702.48 C461.77 700.52 461.77 700.52 461.56 698.31 C462.22 698.31 462.88 698.31 463.56 698.31 C465.15 696.6 465.15 696.6 466.69 694.44 C467.23 693.72 467.77 693 468.32 692.26 C469.74 690.42 469.74 690.42 469.56 688.31 C470.22 688.31 470.88 688.31 471.56 688.31 C472.86 686.72 474.07 685.06 475.25 683.38 C478.47 678.82 481.8 674.42 485.31 670.09 C486.75 668.4 486.75 668.4 486.56 666.31 C487.22 666.31 487.88 666.31 488.56 666.31 C490.96 663.68 490.96 663.68 491.56 660.31 C492.22 660.31 492.88 660.31 493.56 660.31 C493.89 658.99 494.22 657.67 494.56 656.31 C495.22 656.31 495.88 656.31 496.56 656.31 C497.58 654.65 498.57 652.99 499.56 651.31 C500.89 649.98 502.23 648.64 503.56 647.31 C504.77 645.83 505.96 644.33 507.12 642.81 C507.7 642.06 508.28 641.31 508.88 640.53 C509.43 639.8 509.99 639.07 510.56 638.31 C511.13 637.62 511.69 636.93 512.28 636.22 C513.84 634.28 513.84 634.28 513.56 631.31 C512.97 631.3 512.37 631.28 511.76 631.27 C509.03 631.19 506.3 631.1 503.56 631 C502.63 630.98 501.69 630.95 500.73 630.93 C492.72 630.62 485.39 629.3 479.56 623.31 C475.71 617.5 475.01 612.48 475.25 605.62 C475.26 604.8 475.27 603.97 475.28 603.12 C475.39 597.07 475.39 597.07 476.06 594.11 C476.65 590.83 476.7 587.74 476.71 584.41 C476.71 583.73 476.71 583.05 476.72 582.36 C476.73 580.13 476.73 577.9 476.73 575.67 C476.73 574.11 476.74 572.54 476.74 570.97 C476.75 567.68 476.75 564.4 476.75 561.11 C476.75 556.94 476.76 552.78 476.78 548.61 C476.79 545.37 476.79 542.13 476.79 538.89 C476.79 537.36 476.8 535.82 476.8 534.29 C476.85 524.78 476.3 515.53 475.05 506.1 C474.47 501.62 474.12 497.14 473.81 492.63 C473.63 490.16 473.63 490.16 472.56 487.31 C472.41 485.61 472.29 483.9 472.19 482.19 C471.33 471.14 469.2 460.27 466.37 449.57 C465.56 446.3 464.89 443.03 464.23 439.72 C461.71 427.1 458.11 414.86 454 402.66 C453.11 400.01 452.29 397.37 451.52 394.67 C450.55 391.26 449.4 387.96 448.19 384.62 C446.54 380.08 444.97 375.54 443.5 370.94 C442.18 366.95 440.67 363.34 438.7 359.64 C436.83 355.82 435.35 351.83 433.84 347.85 C432.6 344.63 431.24 341.63 429.49 338.65 C427.91 335.92 426.74 333.45 425.69 330.5 C423.92 325.92 421.62 321.94 419.02 317.79 C416.85 314.11 415.18 310.26 413.56 306.31 C412.9 306.31 412.24 306.31 411.56 306.31 C411.44 305.73 411.31 305.15 411.18 304.55 C408.68 295.53 401.71 287.04 396.74 279.18 C395.75 277.62 394.78 276.04 393.82 274.47 C389.59 267.64 384.92 261.16 380.18 254.68 C379.64 253.94 379.1 253.21 378.55 252.45 C377.78 251.39 377.78 251.39 376.99 250.32 C375.7 248.5 374.49 246.65 373.29 244.77 C372.72 243.96 372.15 243.15 371.56 242.31 C370.9 242.31 370.24 242.31 369.56 242.31 C369.32 241.78 369.07 241.24 368.81 240.69 C367.26 237.73 365.53 235.02 363.56 232.31 C362.9 232.31 362.24 232.31 361.56 232.31 C360.56 230.31 359.56 228.31 358.56 226.31 C357.9 226.31 357.24 226.31 356.56 226.31 C356.29 225.74 356.03 225.17 355.75 224.58 C354.52 222.23 353.14 220.19 351.56 218.06 C351.05 217.36 350.53 216.65 350 215.92 C349.53 215.39 349.05 214.86 348.56 214.31 C347.9 214.31 347.24 214.31 346.56 214.31 C346.26 213.51 346.26 213.51 345.94 212.7 C343.98 209.31 341.3 206.88 338.5 204.19 C332.68 198.55 332.68 198.55 331.56 196.31 C330.9 196.31 330.24 196.31 329.56 196.31 C329.16 195.35 329.16 195.35 328.75 194.38 C327.68 191.98 327.68 191.98 324.56 191.31 C324.56 190.65 324.56 189.99 324.56 189.31 C323.05 187.78 323.05 187.78 321.06 186.19 C317.21 182.93 313.7 179.46 310.23 175.82 C308.69 174.09 308.69 174.09 306.56 174.31 C306.56 173.65 306.56 172.99 306.56 172.31 C304.95 170.64 304.95 170.64 302.88 168.94 C301.78 168.01 301.78 168.01 300.67 167.07 C299.97 166.49 299.28 165.91 298.56 165.31 C297.61 164.51 296.66 163.7 295.69 162.88 C293.73 161.12 293.73 161.12 291.56 161.31 C291.56 160.65 291.56 159.99 291.56 159.31 C289.66 157.64 287.76 156.1 285.75 154.56 C285.14 154.09 284.53 153.62 283.9 153.13 C281.8 151.52 279.68 149.91 277.56 148.31 C276.74 147.69 275.92 147.07 275.07 146.43 C272.49 144.48 269.9 142.55 267.31 140.62 C266.48 140 265.64 139.38 264.79 138.73 C264.01 138.16 263.23 137.58 262.42 136.99 C261.73 136.47 261.03 135.96 260.31 135.42 C258.63 134.13 258.63 134.13 256.56 134.31 C256.56 133.65 256.56 132.99 256.56 132.31 C255.02 131.45 255.02 131.45 253.44 130.56 C250.96 129.16 248.59 127.68 246.25 126.06 C243.82 124.13 243.82 124.13 241.56 124.31 C241.56 123.65 241.56 122.99 241.56 122.31 C240.11 121.5 240.11 121.5 238.63 120.67 C235.75 119.02 232.93 117.31 230.12 115.55 C229.35 115.07 228.58 114.59 227.79 114.1 C226.21 113.11 224.63 112.11 223.06 111.12 C222.29 110.64 221.53 110.17 220.74 109.68 C220.06 109.25 219.38 108.82 218.67 108.37 C216.31 107.19 214.16 106.72 211.56 106.31 C211.56 105.65 211.56 104.99 211.56 104.31 C202.6 99.78 193.61 95.34 184.5 91.1 C181.09 89.52 177.71 87.9 174.36 86.2 C171.55 84.79 168.75 83.5 165.81 82.38 C162.12 80.93 158.46 79.43 154.81 77.88 C149.2 75.52 143.5 73.46 137.76 71.44 C132.81 69.7 127.91 67.87 123.06 65.88 C118.15 64.01 113.04 62.87 107.93 61.67 C102.66 60.41 102.66 60.41 101.56 59.31 C100.53 59.17 99.5 59.02 98.44 58.88 C93.77 58.2 89.44 57.01 85.02 55.38 C80.35 53.94 75.62 53.11 70.81 52.25 C68.92 51.91 67.03 51.56 65.14 51.21 C63.89 50.99 63.89 50.99 62.62 50.76 C60.56 50.31 60.56 50.31 58.56 49.31 C56.9 49.11 55.23 48.95 53.56 48.81 C48.78 48.42 48.78 48.42 46.56 47.31 C43.17 46.67 39.74 46.23 36.31 45.75 C35.37 45.61 34.43 45.47 33.46 45.33 C32.54 45.2 31.62 45.07 30.67 44.93 C29.84 44.81 29 44.69 28.14 44.57 C25.29 44.29 22.42 44.31 19.56 44.31 Z " fill="#000000" transform="translate(680.4375,18.6875)"/>
<path d="M0 0 C1.58 0.45 1.58 0.45 3.18 0.91 C20.28 5.9 36.89 13.99 51 25 C51 25.66 51 26.32 51 27 C51.74 27.25 52.47 27.5 53.23 27.75 C56.26 29.12 58 30.62 60.36 32.96 C61.54 34.13 61.54 34.13 62.74 35.33 C63.55 36.15 64.36 36.97 65.19 37.81 C66.01 38.62 66.83 39.43 67.67 40.26 C68.45 41.05 69.24 41.83 70.04 42.64 C70.75 43.36 71.47 44.07 72.2 44.81 C74.1 47.12 75.05 49.18 76 52 C76.66 52 77.32 52 78 52 C79.13 53.35 79.13 53.35 80.36 55.26 C80.81 55.96 81.26 56.66 81.73 57.38 C82.21 58.14 82.69 58.9 83.19 59.69 C83.68 60.46 84.17 61.23 84.68 62.03 C90.6 71.42 95.89 80.62 99.17 91.3 C99.88 93.6 100.67 95.82 101.56 98.06 C111.58 124.68 110.45 156.18 102 183 C101.52 184.71 101.04 186.42 100.56 188.12 C98.17 196.03 94.85 203.7 91 211 C90.34 211 89.68 211 89 211 C88.67 212.65 88.34 214.3 88 216 C87.34 216 86.68 216 86 216 C85.93 216.52 85.85 217.04 85.78 217.58 C84.67 221.04 82.63 223.8 80.56 226.75 C80.15 227.35 79.75 227.95 79.33 228.57 C78.27 230.09 77.14 231.55 76 233 C75.34 233 74.68 233 74 233 C73.73 233.58 73.47 234.17 73.19 234.77 C69.36 241.95 62.39 248.11 56 253 C55.34 253 54.68 253 54 253 C53.67 253.99 53.34 254.98 53 256 C51.44 257.69 51.44 257.69 50 259 C55.19 261.12 60.39 263.15 65.69 265 C70.15 266.6 73.93 268.58 78 271 C79.64 271.67 81.28 272.35 82.92 273.02 C87.8 275.31 92.37 278.24 97 281 C100.62 283.1 104.23 285.19 108 287 C108 287.66 108 288.32 108 289 C108.59 289.12 109.18 289.24 109.78 289.36 C113.44 290.42 116.2 292.72 119.25 294.94 C119.9 295.39 120.55 295.85 121.22 296.32 C122.85 297.49 124.43 298.74 126 300 C126 300.66 126 301.32 126 302 C126.99 302 127.98 302 129 302 C129 302.66 129 303.32 129 304 C129.54 304.24 130.08 304.47 130.64 304.72 C133.63 306.34 136.11 308.35 138.75 310.5 C139.73 311.29 140.72 312.09 141.73 312.91 C142.48 313.6 143.23 314.29 144 315 C144 315.66 144 316.32 144 317 C144.66 317 145.32 317 146 317 C146 317.66 146 318.32 146 319 C146.99 319.33 147.98 319.66 149 320 C149 320.66 149 321.32 149 322 C149.66 322 150.32 322 151 322 C151 322.66 151 323.32 151 324 C151.99 324.33 152.98 324.66 154 325 C154 325.66 154 326.32 154 327 C154.66 327 155.32 327 156 327 C156 327.66 156 328.32 156 329 C156.99 329.33 157.98 329.66 159 330 C159 330.66 159 331.32 159 332 C159.66 332 160.32 332 161 332 C166 337.48 166 337.48 166 340 C166.66 340 167.32 340 168 340 C169.51 341.68 169.51 341.68 171.12 343.88 C171.66 344.59 172.2 345.31 172.76 346.05 C174 348 174 348 174 350 C174.66 350 175.32 350 176 350 C179 354.38 179 354.38 179 357 C179.66 357 180.32 357 181 357 C182.69 359.27 182.69 359.27 184.56 362.25 C185.18 363.22 185.8 364.2 186.44 365.2 C187.76 367.57 188.54 369.36 189 372 C189.66 372 190.32 372 191 372 C191.58 373.19 191.58 373.19 192.17 374.41 C194.85 379.86 197.61 384.96 201 390 C206.36 399.83 210.12 410.2 213.84 420.74 C214.74 423.27 215.67 425.8 216.62 428.31 C218.98 434.64 221.09 440.87 222.46 447.49 C222.86 449.36 223.3 451.22 223.75 453.07 C225.24 459.13 226.33 464.96 226.74 471.18 C227.03 474.36 227.64 477.43 228.25 480.56 C229.38 487.59 228.43 493.29 224.51 499.28 C224.01 499.85 223.51 500.41 223 501 C222.34 501 221.68 501 221 501 C221 501.66 221 502.32 221 503 C213.57 507.08 206.71 508.3 198.39 508.25 C197.56 508.26 196.72 508.26 195.87 508.26 C193.08 508.27 190.29 508.27 187.5 508.26 C185.48 508.26 183.46 508.27 181.44 508.27 C175.89 508.28 170.34 508.28 164.79 508.28 C158.81 508.27 152.82 508.28 146.83 508.29 C135.11 508.3 123.38 508.3 111.65 508.3 C102.12 508.3 92.59 508.3 83.06 508.31 C81.69 508.31 80.32 508.31 78.95 508.31 C76.89 508.31 74.82 508.31 72.76 508.31 C53.57 508.32 34.38 508.32 15.2 508.32 C14.47 508.32 13.75 508.32 13.01 508.32 C9.34 508.32 5.67 508.32 2.01 508.32 C1.28 508.32 0.55 508.32 -0.2 508.32 C-1.67 508.32 -3.14 508.32 -4.61 508.32 C-27.52 508.31 -50.43 508.32 -73.33 508.34 C-99.08 508.36 -124.82 508.37 -150.56 508.36 C-153.3 508.36 -156.05 508.36 -158.79 508.36 C-159.81 508.36 -159.81 508.36 -160.84 508.36 C-171.04 508.36 -181.24 508.37 -191.44 508.38 C-203.04 508.39 -214.64 508.39 -226.24 508.38 C-232.16 508.37 -238.08 508.37 -244 508.38 C-249.42 508.4 -254.84 508.39 -260.26 508.38 C-262.22 508.38 -264.18 508.38 -266.14 508.39 C-291.34 508.48 -291.34 508.48 -299 501.06 C-308.44 486.61 -303.42 471.55 -300.14 455.64 C-298.7 448.86 -297.26 442.3 -294.7 435.84 C-293.61 432.97 -292.85 430.03 -292.06 427.06 C-290.7 422.19 -289.15 417.67 -286.98 413.11 C-285.96 410.92 -285.11 408.7 -284.25 406.44 C-281.61 399.75 -278.28 393.4 -275.02 387 C-273.33 383.67 -271.66 380.34 -270 377 C-269.34 377 -268.68 377 -268 377 C-267.81 376.13 -267.81 376.13 -267.62 375.25 C-266.99 372.98 -266.11 371.07 -265 369 C-264.34 369 -263.68 369 -263 369 C-262.89 368.43 -262.77 367.86 -262.65 367.27 C-261.94 364.79 -260.93 362.94 -259.56 360.75 C-258.91 359.69 -258.91 359.69 -258.25 358.61 C-257.84 358.08 -257.43 357.55 -257 357 C-256.34 357 -255.68 357 -255 357 C-254.79 356.34 -254.59 355.68 -254.38 355 C-252.51 350.93 -250.02 347.31 -247 344 C-246.34 344 -245.68 344 -245 344 C-244.75 343.45 -244.5 342.9 -244.25 342.33 C-242.76 339.55 -240.96 337.22 -239 334.75 C-238.3 333.86 -237.6 332.97 -236.88 332.05 C-236.26 331.37 -235.64 330.7 -235 330 C-234.34 330 -233.68 330 -233 330 C-232.67 329.01 -232.34 328.02 -232 327 C-231.34 327 -230.68 327 -230 327 C-229.73 326.36 -229.46 325.72 -229.19 325.06 C-228 323 -228 323 -225 322 C-225 321.34 -225 320.68 -225 320 C-223.62 318.38 -223.62 318.38 -222 317 C-221.34 317 -220.68 317 -220 317 C-220 316.34 -220 315.68 -220 315 C-218.31 313.44 -216.54 311.95 -214.75 310.5 C-213.29 309.31 -213.29 309.31 -211.8 308.09 C-209.55 306.41 -207.55 305.12 -205 304 C-205 303.34 -205 302.68 -205 302 C-200.62 299 -200.62 299 -198 299 C-198 298.34 -198 297.68 -198 297 C-195.87 295.41 -193.74 293.94 -191.5 292.5 C-190.82 292.06 -190.15 291.62 -189.45 291.16 C-188.02 290.23 -186.58 289.31 -185.15 288.38 C-183.12 287.08 -181.12 285.76 -179.11 284.43 C-169.85 278.4 -160.25 273.54 -150.18 268.99 C-148.19 268.08 -146.2 267.15 -144.22 266.21 C-138.23 263.37 -132.34 260.93 -126 259 C-126.66 258.38 -127.32 257.76 -128 257.12 C-130 255 -130 255 -130 253 C-130.58 252.73 -131.15 252.46 -131.75 252.19 C-134.06 250.97 -136.02 249.7 -138 248 C-138 247.34 -138 246.68 -138 246 C-138.64 245.73 -139.28 245.46 -139.94 245.19 C-142 244 -142 244 -143 241 C-143.66 241 -144.32 241 -145 241 C-150 235.52 -150 235.52 -150 233 C-150.66 233 -151.32 233 -152 233 C-153.49 231.11 -154.85 229.24 -156.19 227.25 C-156.78 226.38 -156.78 226.38 -157.39 225.49 C-168 209.7 -168 209.7 -168 205 C-168.66 205 -169.32 205 -170 205 C-170.24 204.32 -170.48 203.64 -170.73 202.95 C-171.07 202.01 -171.4 201.08 -171.75 200.12 C-172.07 199.22 -172.4 198.32 -172.73 197.38 C-173.44 195.49 -174.16 193.61 -174.94 191.75 C-188.79 158.43 -186.43 119.58 -173.45 86.44 C-169.6 77.32 -164.92 68.58 -160 60 C-159.34 60 -158.68 60 -158 60 C-157.73 59.44 -157.46 58.88 -157.19 58.3 C-155.92 55.84 -154.51 53.56 -153 51.25 C-152.48 50.45 -151.97 49.65 -151.44 48.83 C-150.96 48.22 -150.49 47.62 -150 47 C-149.34 47 -148.68 47 -148 47 C-147.67 46.01 -147.34 45.02 -147 44 C-146.34 44 -145.68 44 -145 44 C-144.79 43.46 -144.59 42.93 -144.38 42.38 C-142.47 39.08 -139.95 36.41 -137 34 C-136.34 34 -135.68 34 -135 34 C-135 33.34 -135 32.68 -135 32 C-134.34 32 -133.68 32 -133 32 C-132.67 31.01 -132.34 30.02 -132 29 C-130.44 27.61 -130.44 27.61 -128.56 26.31 C-127.95 25.88 -127.33 25.44 -126.69 24.99 C-125 24 -125 24 -123 24 C-123 23.34 -123 22.68 -123 22 C-122.01 22 -121.02 22 -120 22 C-120 21.34 -120 20.68 -120 20 C-113.66 15.41 -106.92 11.66 -99.57 8.99 C-96.59 7.84 -93.8 6.42 -90.94 5 C-84.32 1.88 -77.67 0.27 -70.55 -1.24 C-67.06 -1.92 -67.06 -1.92 -64 -3 C-60.64 -3.47 -57.25 -3.75 -53.88 -4.06 C-52.96 -4.15 -52.05 -4.24 -51.11 -4.34 C-34.23 -5.94 -16.24 -5.05 0 0 Z M-89 51 C-90.02 51.58 -91.03 52.16 -92.08 52.75 C-98.76 56.78 -104.38 61.62 -110 67 C-110.75 67.68 -111.5 68.35 -112.27 69.05 C-128.75 84.42 -139.85 107.9 -141.2 130.39 C-141.3 134.05 -141.32 137.71 -141.31 141.38 C-141.33 142.6 -141.34 143.82 -141.36 145.09 C-141.37 153.45 -140.22 160.94 -138 169 C-137.68 170.23 -137.37 171.46 -137.04 172.73 C-134.87 180.08 -131.86 186.39 -128 193 C-127.32 194.33 -126.65 195.66 -126 197 C-125.34 197 -124.68 197 -124 197 C-123.92 197.54 -123.84 198.07 -123.75 198.62 C-122.72 201.87 -121.03 204.29 -119 207 C-118.34 207 -117.68 207 -117 207 C-116.67 207.99 -116.34 208.98 -116 210 C-115.34 210 -114.68 210 -114 210 C-113.73 210.6 -113.46 211.2 -113.19 211.81 C-112 214 -110.9 215.41 -109 217 C-108.34 217 -107.68 217 -107 217 C-106.67 217.99 -106.34 218.98 -106 220 C-105.34 220 -104.68 220 -104 220 C-104 220.66 -104 221.32 -104 222 C-101.74 223.7 -99.49 225.27 -97.12 226.81 C-96.09 227.49 -96.09 227.49 -95.04 228.18 C-71.98 243.09 -44.87 248.23 -17.83 243.44 C-14.84 242.74 -11.93 241.92 -9 241 C-7.37 240.51 -7.37 240.51 -5.71 240.01 C6.44 236.03 17.88 229.83 28 222 C28 221.34 28 220.68 28 220 C28.56 219.76 29.12 219.52 29.7 219.28 C38.07 214.62 45.17 205.11 50 197 C50 196.01 50 195.02 50 194 C50.66 194 51.32 194 52 194 C54.28 190.72 55.71 187.39 57 183.62 C58.08 180.53 59.18 177.6 60.56 174.62 C64.87 163.77 65.57 152.84 65.5 141.31 C65.5 140.56 65.5 139.82 65.5 139.05 C65.45 127.36 64.33 116.93 60 106 C59.64 104.95 59.28 103.91 58.91 102.83 C56.58 96.55 53.31 90.93 49.81 85.25 C49.15 84.17 49.15 84.17 48.48 83.08 C47.38 81.35 46.2 79.67 45 78 C44.34 78 43.68 78 43 78 C42.74 77.42 42.47 76.84 42.2 76.24 C38.82 69.92 32.86 64.08 27 60 C26.34 60 25.68 60 25 60 C25 59.34 25 58.68 25 58 C22.8 56.48 20.62 55.1 18.31 53.75 C17.28 53.15 17.28 53.15 16.24 52.53 C-16.77 33.45 -55.65 31.73 -89 51 Z M-99 295 C-100.18 295.34 -101.36 295.69 -102.58 296.04 C-108.23 297.73 -113.62 299.59 -119 302 C-119.91 302.29 -120.82 302.58 -121.75 302.88 C-131.54 306.26 -140.77 311.33 -150 316 C-151.33 316.67 -152.67 317.33 -154 318 C-154 318.66 -154 319.32 -154 320 C-155.65 320.33 -157.3 320.66 -159 321 C-159 321.66 -159 322.32 -159 323 C-159.69 323.25 -160.39 323.5 -161.11 323.75 C-164.44 325.19 -167.29 326.99 -170.31 329 C-171.38 329.7 -172.45 330.4 -173.55 331.12 C-174.76 332.05 -174.76 332.05 -176 333 C-176 333.66 -176 334.32 -176 335 C-179 336.5 -179 336.5 -182 338 C-182 338.66 -182 339.32 -182 340 C-182.59 340.27 -183.18 340.54 -183.78 340.82 C-190.21 344.24 -195.35 350.24 -200.5 355.31 C-201.04 355.84 -201.58 356.37 -202.14 356.91 C-203.47 358.24 -204.74 359.61 -206 361 C-206 361.66 -206 362.32 -206 363 C-206.66 363 -207.32 363 -208 363 C-209.38 364.43 -209.38 364.43 -210.76 366.33 C-211.3 367.04 -211.84 367.75 -212.39 368.49 C-212.96 369.25 -213.54 370.02 -214.12 370.81 C-214.71 371.59 -215.3 372.37 -215.9 373.17 C-217.07 374.73 -218.24 376.29 -219.4 377.86 C-220.73 379.64 -222.08 381.42 -223.43 383.19 C-229.09 390.75 -234.51 398.79 -237 408 C-237.66 408 -238.32 408 -239 408 C-239.22 408.57 -239.44 409.14 -239.66 409.73 C-241.59 414.66 -243.67 419.47 -245.94 424.25 C-251.34 435.89 -258 450.83 -258 464 C-255.07 465.47 -252.13 465.14 -248.91 465.12 C-247.8 465.12 -247.8 465.12 -246.67 465.13 C-244.15 465.13 -241.64 465.12 -239.13 465.12 C-237.32 465.12 -235.51 465.12 -233.71 465.12 C-228.72 465.13 -223.73 465.12 -218.74 465.12 C-213.37 465.11 -207.99 465.11 -202.62 465.11 C-193.3 465.11 -183.99 465.11 -174.67 465.11 C-161.2 465.1 -147.73 465.09 -134.27 465.09 C-112.42 465.09 -90.57 465.08 -68.72 465.08 C-47.48 465.07 -26.25 465.06 -5.02 465.05 C-3.72 465.05 -2.41 465.05 -1.06 465.05 C5.5 465.05 12.06 465.05 18.62 465.05 C73.08 465.04 127.54 465.02 182 465 C181.84 463.91 181.68 462.83 181.52 461.71 C181.19 459.37 180.91 457.03 180.69 454.69 C179.95 450.74 178.65 447.48 177.1 443.8 C175.91 440.78 175.02 437.74 174.12 434.62 C172.43 428.94 170.12 423.88 167.37 418.63 C166 416 166 416 164.56 412.5 C162.15 407.09 159.03 402.09 156 397 C155.33 395.81 154.66 394.63 154 393.44 C149.74 386.12 145.45 379.18 139.7 372.93 C137.34 370.26 135.31 367.38 133.26 364.47 C132.85 363.98 132.43 363.5 132 363 C131.34 363 130.68 363 130 363 C129.62 362.13 129.62 362.13 129.23 361.24 C127.87 358.77 126.36 357.1 124.38 355.11 C123.32 354.05 123.32 354.05 122.23 352.96 C121.5 352.23 120.76 351.5 120 350.75 C119.26 350 118.53 349.26 117.77 348.49 C116.71 347.44 116.71 347.44 115.62 346.36 C114.98 345.71 114.33 345.07 113.66 344.41 C112.11 342.78 112.11 342.78 110 343 C110 342.34 110 341.68 110 341 C108.5 339.56 108.5 339.56 106.44 338.06 C105.62 337.45 104.81 336.84 103.97 336.2 C102.99 335.48 102.01 334.75 101 334 C100.41 333.56 99.82 333.12 99.21 332.66 C97.27 331.21 95.32 329.76 93.38 328.31 C92.75 327.85 92.13 327.39 91.49 326.91 C87.47 323.95 83.37 321.42 79 319 C77.48 318.07 75.96 317.13 74.44 316.19 C60.81 307.98 46.49 302.2 31.29 297.69 C27.6 296.58 23.96 295.35 20.35 294.04 C16.49 292.84 12.67 292.15 8.69 291.5 C7.25 291.26 5.82 291.02 4.39 290.78 C3.7 290.67 3.01 290.55 2.31 290.43 C0.18 290.03 -1.87 289.51 -3.96 288.97 C-9.94 287.64 -15.87 287.69 -21.97 287.7 C-23.2 287.69 -24.44 287.69 -25.71 287.69 C-28.31 287.68 -30.92 287.68 -33.53 287.68 C-37.46 287.69 -41.39 287.66 -45.33 287.64 C-64.21 287.59 -80.86 289.73 -99 295 Z " fill="#000000" transform="translate(707,245)"/>
<path d="M0 0 C5 3.06 10.02 6.04 15.19 8.81 C20.56 11.7 25.77 14.83 30.96 18.02 C33.62 19.64 36.03 21.01 39 22 C39 22.66 39 23.32 39 24 C40.65 24.33 42.3 24.66 44 25 C44 25.66 44 26.32 44 27 C44.56 27.11 45.12 27.22 45.7 27.34 C50.47 28.71 54.69 31.58 59 34 C60.23 34.67 61.46 35.33 62.69 36 C63.94 36.69 65.19 37.37 66.44 38.06 C67.59 38.69 68.74 39.32 69.93 39.97 C76.36 44.22 78.98 50.06 80.88 57.38 C81.15 65.38 76.96 72.31 73.61 79.39 C71.57 83.97 69.83 88.63 68.11 93.33 C66.82 96.85 65.47 100.29 63.88 103.69 C61.32 109.26 59.72 115.13 58 121 C57.59 122.35 57.19 123.7 56.78 125.05 C54.24 133.49 51.95 141.95 49.89 150.51 C49 154 49 154 47.92 157.19 C47.11 159.65 46.7 161.69 46.5 164.25 C45.95 169.98 44.85 175.59 43.46 181.18 C42.42 185.41 41.84 189.46 41.56 193.81 C39.5 222.97 39.5 222.97 32 230 C24.94 235.68 16.25 236.3 7.57 236.26 C6.67 236.26 5.76 236.27 4.83 236.27 C1.85 236.28 -1.12 236.27 -4.1 236.27 C-6.18 236.27 -8.26 236.27 -10.34 236.27 C-14.68 236.27 -19.03 236.27 -23.38 236.26 C-28.94 236.25 -34.51 236.26 -40.07 236.27 C-44.36 236.28 -48.65 236.27 -52.94 236.27 C-54.99 236.27 -57.04 236.27 -59.1 236.27 C-61.97 236.28 -64.83 236.27 -67.7 236.26 C-68.54 236.26 -69.39 236.27 -70.25 236.27 C-75.22 236.24 -79.28 235.57 -84 234 C-85.33 233.66 -86.66 233.32 -88 233 C-88 232.34 -88 231.68 -88 231 C-88.6 230.73 -89.2 230.46 -89.81 230.19 C-93.71 228.07 -95.77 225.5 -97.43 221.32 C-99.52 212.8 -97.96 203.54 -96.78 194.97 C-96.18 190.58 -95.77 186.23 -95.5 181.81 C-94.91 172.76 -93.51 163.93 -91.43 155.11 C-90.98 152.92 -90.72 150.78 -90.5 148.56 C-89.91 142.63 -88.94 136.76 -87.01 131.11 C-85.97 127.91 -85.34 124.81 -84.75 121.5 C-83.48 114.79 -81.8 108.21 -80 101.62 C-79.75 100.71 -79.5 99.8 -79.25 98.85 C-77.67 93.17 -75.91 87.58 -74 82 C-73.19 79.58 -72.37 77.17 -71.56 74.75 C-71.35 74.11 -71.13 73.48 -70.91 72.82 C-69.5 68.59 -68.2 64.34 -66.94 60.06 C-65.64 55.77 -64.11 51.95 -62 48.01 C-60.82 45.64 -59.95 43.24 -59.06 40.75 C-55.83 31.65 -52.16 23.06 -47.4 14.66 C-46.04 12.08 -45.04 9.55 -44.06 6.81 C-41.67 0.5 -37.6 -4.27 -32 -8 C-19.67 -11.52 -10.18 -6.46 0 0 Z M-14 42 C-14.23 42.58 -14.46 43.17 -14.7 43.77 C-16.56 48.45 -18.47 53.11 -20.44 57.75 C-22.8 63.39 -24.85 69.11 -26.88 74.88 C-27.72 77.23 -28.61 79.52 -29.62 81.81 C-32.62 88.75 -34.53 95.86 -36.25 103.2 C-37 106 -37 106 -37.97 108.36 C-39.33 111.84 -40.12 115.42 -40.94 119.06 C-41.29 120.59 -41.64 122.11 -41.99 123.64 C-42.24 124.76 -42.24 124.76 -42.51 125.9 C-43.17 128.71 -43.9 131.51 -44.62 134.31 C-45.91 139.37 -46.8 144.44 -47.57 149.6 C-48 152 -48 152 -49 154 C-49.35 156.15 -49.66 158.31 -49.94 160.48 C-50.06 161.44 -50.06 161.44 -50.2 162.43 C-50.47 164.49 -50.73 166.56 -51 168.62 C-51.18 169.99 -51.36 171.36 -51.54 172.73 C-51.88 175.34 -52.22 177.95 -52.55 180.56 C-52.82 182.61 -53.09 184.66 -53.38 186.71 C-53.63 188.47 -53.82 190.23 -54 192 C-52.38 193.62 -50.58 193.16 -48.34 193.19 C-46.86 193.22 -46.86 193.22 -45.34 193.24 C-40.8 193.29 -36.26 193.33 -31.73 193.35 C-29.33 193.37 -26.93 193.39 -24.53 193.43 C-21.09 193.49 -17.64 193.51 -14.2 193.52 C-12.58 193.56 -12.58 193.56 -10.94 193.59 C-8.2 193.58 -5.68 193.54 -3 193 C0.06 189.67 0.38 186.75 0.56 182.31 C0.85 177.69 1.42 173.34 2.4 168.82 C3.01 165.96 3.54 163.09 4.06 160.21 C7.89 139.11 7.89 139.11 10 137 C10.8 133.52 11.48 130.02 12.18 126.52 C12.89 123.47 13.81 120.88 15 118 C16.03 114.54 16.98 111.06 17.93 107.57 C19.59 101.5 21.37 95.76 24.07 90.07 C25.36 87.21 26.26 84.26 27.2 81.27 C28.33 78.06 29.86 75.06 31.43 72.04 C32.19 70 32.19 70 31.45 67.95 C29.5 65.32 27.37 64.2 24.5 62.62 C23.42 62.02 22.34 61.42 21.22 60.79 C20.16 60.2 19.1 59.61 18 59 C16.31 57.99 14.62 56.97 12.94 55.94 C8.59 53.32 4.16 50.86 -0.31 48.46 C-3.65 46.65 -6.94 44.77 -10.22 42.88 C-11.97 41.85 -11.97 41.85 -14 42 Z " fill="#000000" transform="translate(187,325)"/>
<path d="M0 0 C5.4 4.97 7.5 11.77 8.11 18.98 C8.18 21.38 8.19 23.79 8.18 26.2 C8.19 27.56 8.19 27.56 8.19 28.94 C8.2 31.92 8.19 34.89 8.19 37.87 C8.19 39.95 8.19 42.03 8.19 44.11 C8.2 48.45 8.19 52.8 8.18 57.15 C8.17 62.71 8.18 68.28 8.19 73.84 C8.2 78.13 8.19 82.42 8.19 86.71 C8.19 88.76 8.19 90.81 8.19 92.87 C8.2 95.73 8.19 98.6 8.18 101.47 C8.18 102.31 8.19 103.16 8.19 104.02 C8.16 108.99 7.5 113.05 5.92 117.77 C5.52 119.07 5.52 119.07 5.11 120.39 C3.55 123.51 1.53 125.49 -1.08 127.77 C-1.74 127.77 -2.4 127.77 -3.08 127.77 C-3.08 128.43 -3.08 129.09 -3.08 129.77 C-11.09 132.14 -18.62 133.2 -26.93 133.56 C-30.1 133.64 -30.1 133.64 -33.08 134.77 C-34.93 134.9 -36.79 135 -38.64 135.08 C-46.68 135.64 -54.31 137.47 -62.13 139.32 C-64.43 139.85 -66.75 140.32 -69.08 140.77 C-82.2 143.34 -95.25 146.07 -107.75 150.91 C-110.64 151.98 -113.58 152.89 -116.52 153.83 C-123.74 156.18 -130.78 158.95 -137.83 161.77 C-138.87 162.18 -139.91 162.6 -140.98 163.03 C-148.45 166.04 -155.87 169.17 -163.08 172.77 C-170.1 173.54 -176.03 173.33 -182.05 169.43 C-188.5 164.13 -192.06 157.2 -195.59 149.77 C-197.46 146 -199.63 142.47 -201.88 138.93 C-203.03 136.85 -203.63 135.09 -204.08 132.77 C-204.74 132.77 -205.4 132.77 -206.08 132.77 C-206.43 132.03 -206.78 131.29 -207.14 130.53 C-210.3 124.06 -213.71 118.01 -217.76 112.05 C-219.08 109.77 -219.08 109.77 -219.08 106.77 C-219.74 106.77 -220.4 106.77 -221.08 106.77 C-221.45 106 -221.83 105.22 -222.21 104.43 C-225.22 98.31 -228.39 92.49 -232.08 86.77 C-236.77 79.24 -238.24 72.48 -236.45 63.71 C-230.98 52.02 -218.22 47.37 -206.93 42.57 C-205.22 41.83 -203.55 40.99 -201.89 40.14 C-199.08 38.77 -199.08 38.77 -196.45 37.89 C-192.35 36.53 -188.35 34.97 -184.33 33.39 C-183.53 33.08 -182.73 32.77 -181.9 32.45 C-177.82 30.86 -173.76 29.24 -169.7 27.58 C-165.17 25.75 -160.55 24.23 -155.9 22.71 C-153.49 21.91 -151.13 21.02 -148.77 20.08 C-145.08 18.77 -145.08 18.77 -141.7 18.33 C-137.73 17.72 -134.55 16.43 -130.9 14.8 C-127.03 13.39 -123.1 12.61 -119.08 11.77 C-117.55 11.44 -116.03 11.1 -114.51 10.77 C-112.22 10.27 -109.94 9.77 -107.65 9.27 C-103.07 8.26 -98.58 7.09 -94.08 5.77 C-88.55 4.33 -83.15 3.54 -77.47 3.05 C-74.68 2.72 -72.03 2.04 -69.32 1.31 C-60.91 -0.72 -52.34 -1.42 -43.74 -1.95 C-40.54 -2.19 -37.39 -2.57 -34.21 -3.01 C-9.09 -6.51 -9.09 -6.51 0 0 Z M-53.08 41.77 C-58.48 42.83 -63.77 43.79 -69.27 44.14 C-75.49 44.64 -81.35 46.22 -87.37 47.8 C-90.08 48.51 -92.78 49.18 -95.52 49.77 C-110.99 53.14 -110.99 53.14 -126.11 57.77 C-129.45 58.89 -132.81 59.83 -136.2 60.77 C-141.04 62.13 -145.64 63.7 -150.27 65.64 C-153.21 66.82 -156.18 67.86 -159.17 68.88 C-166.52 71.4 -173.54 74.19 -180.54 77.57 C-183.08 78.77 -183.08 78.77 -186.08 79.77 C-184.5 85.76 -181.3 90.55 -178.08 95.77 C-174.17 102.33 -170.39 108.88 -167.08 115.77 C-166.42 115.77 -165.76 115.77 -165.08 115.77 C-164.95 116.35 -164.83 116.92 -164.7 117.52 C-164.07 119.79 -163.19 121.69 -162.08 123.77 C-157.16 124.26 -154.39 123.1 -150.21 120.85 C-145.15 118.28 -139.57 116.91 -134.14 115.33 C-130.84 114.36 -127.69 113.23 -124.52 111.89 C-113.33 107.32 -101.51 104.48 -89.7 102.03 C-86.09 101.53 -86.09 101.53 -83.08 99.77 C-81.71 99.58 -80.33 99.45 -78.95 99.33 C-74.8 98.91 -71.08 97.96 -67.08 96.77 C-60.83 95.26 -54.74 94.49 -48.33 94.21 C-45.34 93.8 -42.75 93.12 -39.88 92.24 C-38.98 91.97 -38.08 91.69 -37.15 91.41 C-36.47 91.2 -35.78 90.99 -35.08 90.77 C-35.05 83.67 -35.04 76.56 -35.02 69.46 C-35.02 67.04 -35.01 64.63 -35 62.21 C-34.99 58.74 -34.98 55.27 -34.98 51.8 C-34.98 50.72 -34.97 49.63 -34.96 48.51 C-34.96 47.51 -34.96 46.5 -34.96 45.47 C-34.96 44.59 -34.96 43.7 -34.96 42.79 C-34.85 40.77 -34.85 40.77 -36.08 39.77 C-41.87 39.31 -47.42 40.66 -53.08 41.77 Z " fill="#000000" transform="translate(623.078125,23.23046875)"/>
<path d="M0 0 C1.51 -0.01 1.51 -0.01 3.04 -0.02 C6.36 -0.03 9.67 -0.03 12.99 -0.03 C15.3 -0.03 17.6 -0.03 19.91 -0.04 C24.75 -0.05 29.59 -0.05 34.42 -0.04 C40.62 -0.04 46.81 -0.05 53 -0.08 C57.77 -0.09 62.53 -0.09 67.3 -0.09 C69.58 -0.09 71.87 -0.09 74.15 -0.1 C77.34 -0.12 80.54 -0.11 83.73 -0.1 C84.67 -0.11 85.61 -0.11 86.58 -0.12 C92.15 -0.08 96.03 0.71 101 3.27 C101 3.93 101 4.59 101 5.27 C101.57 5.46 102.15 5.65 102.75 5.84 C107.13 8.63 109.35 14.12 110.63 19.05 C111.34 23.35 111.52 27.71 111.75 32.07 C111.95 34.66 112.36 36.78 113 39.27 C113.15 41.19 113.27 43.11 113.37 45.02 C114.29 57.72 117.29 69.99 120.48 82.28 C120.99 84.26 121.48 86.25 121.97 88.24 C124.18 97.34 126.69 106.32 129.4 115.29 C129.96 117.16 130.51 119.04 131.06 120.92 C132.72 126.49 134.53 131.78 137 137.04 C138.11 139.52 138.99 142.03 139.87 144.59 C141.33 148.71 143.07 152.56 145.06 156.46 C146.04 158.4 147.02 160.34 148 162.27 C148.34 162.95 148.69 163.62 149.05 164.32 C151.88 170.61 151.96 177.53 151 184.27 C149.52 187.79 147.8 190.68 145 193.27 C142.79 194.01 142.79 194.01 141 194.27 C141 194.93 141 195.59 141 196.27 C140.23 196.64 139.47 197 138.69 197.38 C133 200.15 127.67 203.04 122.47 206.64 C115.5 211.25 108.03 215.19 100.68 219.15 C94.36 222.57 88.19 226.25 82.01 229.91 C81.34 230.3 80.67 230.7 79.98 231.1 C78.66 231.88 77.34 232.67 76.03 233.47 C71.33 236.27 71.33 236.27 68 236.27 C68 236.93 68 237.59 68 238.27 C66.35 238.6 64.7 238.93 63 239.27 C63 239.93 63 240.59 63 241.27 C55.87 244.69 49.63 246.3 41.88 243.99 C34.28 241.09 30.34 235.48 27.12 228.34 C26.41 226.65 25.7 224.96 25 223.27 C23.88 220.69 22.75 218.11 21.62 215.52 C21.32 214.84 21.02 214.15 20.72 213.44 C18.32 207.96 15.82 202.54 13.26 197.14 C11.98 194.23 10.98 191.3 10 188.27 C9.32 186.76 9.32 186.76 8.62 185.21 C7.15 181.87 6.11 178.46 5.06 174.96 C3.87 170.99 2.6 167.16 1 163.34 C-1.13 158.21 -2.59 152.95 -4.06 147.6 C-4.84 144.85 -5.69 142.16 -6.63 139.46 C-7.85 135.88 -8.71 132.31 -9.48 128.61 C-10.02 126.21 -10.69 123.88 -11.38 121.52 C-14.72 109.5 -16.6 97 -18.57 84.68 C-18.95 82.55 -19.44 80.49 -20 78.4 C-22.45 69.09 -23.13 59.41 -23.72 49.84 C-24.01 46.14 -24.52 42.51 -25.07 38.84 C-27.98 17.47 -27.98 17.47 -23.34 9.92 C-16.69 1.73 -10.23 -0.03 0 0 Z M18 43.27 C18.26 46.29 18.61 49.27 19 52.27 C19.16 53.62 19.32 54.98 19.48 56.33 C19.65 57.77 19.82 59.21 20 60.65 C20.08 61.35 20.16 62.05 20.25 62.78 C20.61 65.75 21.05 68.42 22 71.27 C22.26 73.98 22.44 76.68 22.62 79.39 C23.03 82.55 23.99 85.25 25 88.27 C25.49 90.96 25.95 93.64 26.37 96.34 C27.46 102.95 29.06 109.17 31.16 115.55 C32.15 118.76 32.55 121.94 33 125.27 C33.88 128.32 34.94 131.29 36 134.27 C36.5 135.79 37 137.32 37.5 138.84 C38.45 141.72 39.47 144.56 40.56 147.4 C41.92 150.97 42.95 154.59 44 158.27 C46 164.68 48.16 170.89 50.99 176.97 C52.55 180.54 53.8 184.21 55.07 187.89 C55.98 190.48 55.98 190.48 58 193.27 C63.33 192.8 67.22 189.89 71.62 187.09 C73.24 186.08 74.85 185.07 76.47 184.06 C77.25 183.58 78.03 183.09 78.83 182.6 C82.32 180.46 85.92 178.54 89.52 176.61 C92.24 175.14 94.94 173.64 97.62 172.09 C98.85 171.39 98.85 171.39 100.1 170.67 C102.3 169.34 102.3 169.34 103 166.27 C102.38 163.8 102.38 163.8 101.31 161.15 C100.98 160.26 100.64 159.37 100.3 158.45 C99.27 155.93 98.18 153.47 97.04 151 C94.96 146.36 93.41 141.64 91.93 136.77 C91.44 135.18 90.95 133.59 90.46 131.99 C90.1 130.83 90.1 130.83 89.74 129.64 C88.28 124.98 86.72 120.35 85.12 115.74 C83.62 111.42 82.46 107.14 81.53 102.66 C80.93 100 80.19 97.4 79.43 94.77 C78.27 90.6 77.62 86.63 77.24 82.32 C76.87 79.2 75.89 76.28 75 73.27 C73.48 67 72.72 60.88 72.44 54.43 C72.04 51.59 71.39 49.27 70.47 46.58 C70.06 45.37 70.06 45.37 69.64 44.13 C69.43 43.52 69.21 42.91 69 42.27 C61.89 42.25 54.79 42.23 47.69 42.22 C45.27 42.21 42.85 42.21 40.43 42.2 C36.97 42.19 33.5 42.18 30.03 42.18 C28.94 42.17 27.85 42.17 26.73 42.16 C25.73 42.16 24.73 42.16 23.7 42.16 C22.81 42.16 21.93 42.16 21.02 42.15 C19 42.05 19 42.05 18 43.27 Z " fill="#000000" transform="translate(115.00341796875,586.725341796875)"/>
<path d="M0 0 C0 0.66 0 1.32 0 2 C0.72 2.18 1.45 2.36 2.19 2.54 C6.19 4.62 7.69 7.56 9.94 11.38 C10.37 12.09 10.81 12.81 11.26 13.55 C14.34 18.69 17.06 23.96 19.66 29.36 C20.88 31.77 22.21 33.91 23.75 36.12 C27.3 41.23 30.19 46.68 33.18 52.13 C35.75 56.8 38.41 61.36 41.25 65.88 C44.41 70.91 47.1 76.06 49.69 81.41 C50.77 83.54 51.88 85.43 53.25 87.38 C56.68 92.52 57.92 97.87 57 104 C55.49 108.59 53.79 112.85 50 116 C49.34 116 48.68 116 48 116 C48 116.66 48 117.32 48 118 C47.01 118 46.02 118 45 118 C45 118.66 45 119.32 45 120 C42.78 121.73 40.56 123.35 38.25 124.94 C36.98 125.82 35.72 126.71 34.45 127.59 C33.85 128 33.25 128.42 32.63 128.85 C31.29 129.8 29.97 130.8 28.67 131.82 C27 133 27 133 25 133 C25 133.66 25 134.32 25 135 C22.88 136.95 22.88 136.95 20.12 139.12 C19.22 139.85 18.32 140.57 17.38 141.32 C15 143 15 143 13 143 C12.67 143.99 12.34 144.98 12 146 C11.34 146 10.68 146 10 146 C10 146.66 10 147.32 10 148 C4.52 153 4.52 153 2 153 C2 153.66 2 154.32 2 155 C0.53 156.45 0.53 156.45 -1.5 158.14 C-5.86 161.85 -9.95 165.76 -14 169.81 C-14.7 170.51 -15.39 171.2 -16.11 171.92 C-20.66 176.5 -24.79 181.16 -28.62 186.38 C-29.3 187.18 -29.3 187.18 -30 188 C-30.66 188 -31.32 188 -32 188 C-32.24 188.55 -32.49 189.11 -32.74 189.68 C-34.26 192.48 -36.13 194.69 -38.19 197.12 C-41.96 201.64 -45.36 206.28 -48.59 211.2 C-49.06 211.79 -49.52 212.39 -50 213 C-50.66 213 -51.32 213 -52 213 C-52.08 213.54 -52.15 214.07 -52.23 214.62 C-53.3 217.93 -55.16 220.23 -57.25 223 C-58.4 224.55 -58.4 224.55 -59.58 226.12 C-63.79 231.13 -67.97 234.41 -74.54 235.37 C-81.94 235.56 -86.73 233.8 -93 230 C-93.9 229.46 -94.81 228.92 -95.74 228.37 C-97.46 227.34 -99.17 226.29 -100.87 225.23 C-103.07 223.87 -103.07 223.87 -106 223 C-106 222.34 -106 221.68 -106 221 C-107.65 220.67 -109.3 220.34 -111 220 C-111 219.34 -111 218.68 -111 218 C-111.56 217.89 -112.12 217.78 -112.7 217.66 C-115.35 216.9 -117.47 215.78 -119.88 214.44 C-120.85 213.9 -121.82 213.35 -122.82 212.8 C-123.87 212.2 -124.92 211.61 -126 211 C-127.64 210.08 -127.64 210.08 -129.3 209.14 C-136.13 205.27 -142.88 201.29 -149.59 197.22 C-153.32 194.97 -157.09 192.85 -160.94 190.81 C-169.04 186.43 -176.31 181.71 -179.85 172.87 C-181.89 165.81 -180.1 160.83 -176.66 154.55 C-172.61 147.91 -167.9 141.74 -163.18 135.57 C-161.04 132.77 -159.04 130.07 -157.27 127.02 C-156.85 126.36 -156.43 125.69 -156 125 C-155.34 125 -154.68 125 -154 125 C-153.69 124.38 -153.38 123.76 -153.06 123.12 C-152.38 121.75 -151.69 120.38 -151 119 C-150.34 119 -149.68 119 -149 119 C-148.5 117.02 -148.5 117.02 -148 115 C-147.34 115 -146.68 115 -146 115 C-145.73 114.2 -145.46 113.39 -145.19 112.56 C-144.8 111.72 -144.4 110.87 -144 110 C-143.01 109.67 -142.02 109.34 -141 109 C-139.95 107.16 -139.95 107.16 -139 105 C-138.03 103.56 -137.03 102.14 -136 100.75 C-135.48 100.04 -134.97 99.34 -134.44 98.61 C-133.96 98.08 -133.49 97.55 -133 97 C-132.34 97 -131.68 97 -131 97 C-130.77 96.46 -130.55 95.93 -130.31 95.38 C-127.98 91.15 -124.68 87.15 -121 84 C-120.34 84 -119.68 84 -119 84 C-118.65 83.16 -118.65 83.16 -118.29 82.31 C-116.66 79.4 -114.64 77.38 -112.28 75.02 C-110.88 73.61 -110.88 73.61 -109.46 72.18 C-108.97 71.7 -108.49 71.22 -107.99 70.73 C-106.5 69.25 -105.02 67.76 -103.54 66.27 C-102.61 65.34 -101.68 64.41 -100.72 63.45 C-99.86 62.6 -99.01 61.74 -98.12 60.86 C-96 59 -96 59 -94 59 C-94 58.34 -94 57.68 -94 57 C-92.36 55.38 -92.36 55.38 -90.19 53.56 C-87.18 51.03 -87.18 51.03 -84.36 48.28 C-83 47 -83 47 -81 47 C-81 46.34 -81 45.68 -81 45 C-78.88 43.05 -78.88 43.05 -76.12 40.88 C-75.22 40.15 -74.32 39.43 -73.38 38.68 C-71 37 -71 37 -69 37 C-68.67 36.01 -68.34 35.02 -68 34 C-65.89 32.18 -63.79 30.48 -61.56 28.81 C-60.96 28.35 -60.36 27.89 -59.75 27.41 C-55.27 24 -55.27 24 -53 24 C-53 23.34 -53 22.68 -53 22 C-51.65 20.81 -51.65 20.81 -49.74 19.5 C-49.04 19.01 -48.34 18.52 -47.61 18.01 C-46.86 17.49 -46.1 16.97 -45.31 16.44 C-44.16 15.64 -44.16 15.64 -42.98 14.82 C-41.41 13.73 -39.83 12.64 -38.25 11.56 C-36.23 10.16 -34.22 8.74 -32.22 7.31 C-31.65 6.91 -31.08 6.5 -30.5 6.09 C-28.97 5.01 -27.45 3.92 -25.93 2.84 C-16.93 -2.81 -10.1 -3.7 0 0 Z M-19 50 C-20.79 50.96 -20.79 50.96 -22.56 52.5 C-26.6 55.72 -30.8 58.61 -35.09 61.48 C-36.04 62.23 -36.04 62.23 -37 63 C-37 63.66 -37 64.32 -37 65 C-37.56 65.26 -38.12 65.52 -38.7 65.78 C-41.27 67.14 -43.45 68.73 -45.75 70.5 C-46.55 71.11 -47.35 71.72 -48.17 72.34 C-48.78 72.89 -49.38 73.44 -50 74 C-50 74.66 -50 75.32 -50 76 C-50.54 76.23 -51.07 76.45 -51.62 76.69 C-54.82 78.46 -57.29 80.54 -60 83 C-60 83.66 -60 84.32 -60 85 C-60.6 85.27 -61.19 85.54 -61.81 85.82 C-63.97 86.98 -65.38 88.13 -67.12 89.86 C-67.7 90.43 -68.28 91.01 -68.87 91.6 C-69.8 92.52 -69.8 92.52 -70.73 93.47 C-71.37 94.1 -72.01 94.74 -72.67 95.4 C-74.01 96.74 -75.35 98.08 -76.69 99.43 C-78.75 101.5 -80.82 103.56 -82.89 105.61 C-84.19 106.92 -85.49 108.22 -86.8 109.53 C-87.42 110.15 -88.04 110.77 -88.68 111.4 C-91.89 114.19 -91.89 114.19 -93 118 C-93.66 118 -94.32 118 -95 118 C-96.81 119.71 -96.81 119.71 -98.62 121.88 C-99.57 122.95 -99.57 122.95 -100.54 124.05 C-102.2 125.86 -102.2 125.86 -102 128 C-102.66 128 -103.32 128 -104 128 C-105.54 129.89 -106.97 131.77 -108.38 133.75 C-111.06 137.47 -113.74 140.78 -117 144 C-118.81 146.1 -120.54 148.26 -122.25 150.44 C-122.71 151 -123.17 151.56 -123.64 152.13 C-125.71 154.77 -126.95 156.54 -127.3 159.91 C-127.2 160.6 -127.1 161.29 -127 162 C-125.57 162.84 -124.13 163.67 -122.69 164.5 C-121.89 164.96 -121.09 165.43 -120.26 165.91 C-117.97 167.22 -117.97 167.22 -115 167 C-115 167.66 -115 168.32 -115 169 C-114.37 169.34 -113.74 169.68 -113.09 170.03 C-106.42 173.64 -99.83 177.37 -93.26 181.17 C-90.22 182.88 -87.14 184.47 -84 186 C-79.66 181.79 -79.66 181.79 -76 177 C-76 176.34 -76 175.68 -76 175 C-75.34 175 -74.68 175 -74 175 C-71.6 172.36 -71.6 172.36 -71 169 C-70.34 169 -69.68 169 -69 169 C-67.22 167.09 -67.22 167.09 -65.44 164.69 C-64.82 163.89 -64.2 163.09 -63.56 162.26 C-61.85 160 -61.85 160 -61 157 C-60.34 157 -59.68 157 -59 157 C-57.6 155.65 -57.6 155.65 -56.12 153.81 C-34.3 128.18 -34.3 128.18 -22.36 120.12 C-21.91 119.75 -21.46 119.38 -21 119 C-21 118.34 -21 117.68 -21 117 C-20.34 117 -19.68 117 -19 117 C-17.31 115.36 -15.65 113.69 -14 112 C-12.12 110.39 -10.23 108.81 -8.31 107.25 C-7.36 106.47 -6.41 105.69 -5.43 104.89 C-3 103 -3 103 -1 102 C-1 101.34 -1 100.68 -1 100 C-0.42 99.73 0.15 99.46 0.75 99.19 C3.03 97.98 4.97 96.59 7 95 C6.73 89.71 4.62 86.73 1.68 82.56 C-0.77 78.83 -2.62 74.86 -4.56 70.85 C-6.13 67.75 -7.88 64.86 -9.78 61.95 C-11.63 58.99 -13.2 55.89 -14.79 52.79 C-15.95 50.68 -15.95 50.68 -19 50 Z " fill="#000000" transform="translate(358,110)"/>
<path d="M0 0 C5.99 3.39 9.4 8.73 11.55 15.16 C12.33 21.66 11.4 26.81 7.55 32.16 C2.75 37.28 -1.79 40.18 -8.89 40.47 C-15.04 40.31 -19.47 37.71 -24.06 33.66 C-27.76 29.66 -29.67 25.16 -29.95 19.72 C-29.66 14.07 -27.84 8.78 -23.99 4.55 C-17.1 -1.41 -8.77 -3 0 0 Z " fill="#000000" transform="translate(134.453125,927.83984375)"/>
</svg>
